<svg width="333" height="333" viewBox="0 0 422 441" fill="none" xmlns="http://www.w3.org/2000/svg">
<path d="M399.64 0H283.085C270.736 0 260.725 10.0107 260.725 22.3596V138.914C260.725 151.263 270.736 161.274 283.085 161.274H303.998C310.087 161.274 315.023 166.21 315.023 172.299V191.155C315.023 195.117 320.037 196.833 322.466 193.704L344.444 165.383C346.455 162.791 349.553 161.274 352.834 161.274H399.64C411.989 161.274 422 151.263 422 138.914V22.3596C422 10.0107 411.988 0 399.64 0Z" fill="#F7E365"/>
<path d="M399.64 0H375.484C387.833 0 397.844 10.0107 397.844 22.3596V138.914C397.844 151.263 387.833 161.274 375.484 161.274H399.64C411.988 161.274 421.999 151.263 421.999 138.914V22.3596C422 10.0107 411.988 0 399.64 0Z" fill="#F3D332"/>
<path d="M254.979 440.108H19.5272L22.767 395.638C24.7509 368.424 45.2366 346.174 72.2027 341.956L90.8479 339.033C100.328 337.557 107.307 329.389 107.307 319.803V251.358H177.266V319.803C177.266 329.389 184.255 337.557 193.726 339.033L212.38 341.956C239.336 346.174 259.831 368.424 261.807 395.638L264.316 430.068C264.71 435.491 260.417 440.108 254.979 440.108Z" fill="#FAA68E"/>
<path d="M91.2236 381.484C92.0333 378.369 94.8459 376.194 98.0642 376.194H127.453C143.373 376.194 156.279 363.288 156.279 347.369V335.252C156.279 332.415 158.579 330.114 161.417 330.114H180.239C178.356 327.106 177.265 323.568 177.265 319.802V299.438H115.47C112.163 299.438 110.226 295.718 112.124 293.015L124.509 275.318C126.437 272.577 127.309 269.404 127.203 266.279C127.088 261.793 124.95 257.412 121.039 254.574L120.723 254.344C116.679 251.41 111.732 250.703 107.306 251.963V319.8C107.306 329.386 100.327 337.554 90.8462 339.03L72.2009 341.954C59.5951 343.925 48.4067 349.839 39.8607 358.357L19.8814 435.219L19.5272 440.108H75.984L91.2236 381.484Z" fill="#E09380"/>
<path d="M254.979 440.108H19.5272L22.767 395.638C24.7509 368.424 45.2366 346.174 72.2027 341.956L90.8479 339.033C92.1708 338.822 93.4456 338.486 94.6628 338.036C106.176 350.488 123.086 358.358 141.931 358.358C160.884 358.358 177.87 350.411 189.392 337.834C190.753 338.391 192.21 338.793 193.725 339.033L212.38 341.956C239.335 346.174 259.831 368.424 261.806 395.638L264.315 430.068C264.709 435.484 260.414 440.108 254.979 440.108Z" fill="#ACD980"/>
<path d="M98.065 376.194H127.454C139.947 376.194 150.581 368.246 154.581 357.13C150.493 357.923 146.267 358.357 141.932 358.357C123.086 358.357 106.176 350.487 94.6636 338.035C83.3962 342.213 59.9742 338.315 39.8633 358.359L19.884 435.221L19.5272 440.108H75.984L91.2236 381.484C92.0333 378.369 94.8459 376.194 98.065 376.194Z" fill="#8CC951"/>
<path d="M264.315 430.068L261.806 395.638C260.828 382.162 255.292 369.764 246.46 360.173C226.347 338.33 201.371 342.012 190.332 338.185C190.289 338.171 190.248 338.153 190.205 338.138C189.931 338.041 189.658 337.943 189.392 337.834C187.434 339.971 185.306 341.963 183.05 343.817L188.13 344.613C215.086 348.831 235.581 371.081 237.556 398.295L240.064 432.724C240.274 435.607 239.151 438.254 237.244 440.109H254.978C260.417 440.108 264.71 435.491 264.315 430.068Z" fill="#8CC951"/>
<path d="M217.701 399.688C214.033 399.688 211.06 402.662 211.06 406.33V440.108H224.343V406.33C224.343 402.662 221.369 399.688 217.701 399.688Z" fill="#8CC951"/>
<path d="M337.148 110.122C333.479 110.122 330.507 107.148 330.507 103.481V80.7583C330.507 77.0904 333.48 74.1171 337.148 74.1171H341.362C351.02 74.1171 358.876 66.2605 358.876 56.603C358.876 46.9456 351.02 39.089 341.362 39.089C331.706 39.089 323.849 46.9456 323.849 56.603C323.849 60.2709 320.876 63.2442 317.208 63.2442C313.539 63.2442 310.567 60.2709 310.567 56.603C310.567 39.621 324.381 25.8066 341.363 25.8066C358.345 25.8066 372.16 39.6219 372.16 56.603C372.16 72.7675 359.641 86.0645 343.79 87.3057V103.481C343.789 107.148 340.816 110.122 337.148 110.122Z" fill="#544F56"/>
<path d="M337.148 135.469C333.479 135.469 330.507 132.495 330.507 128.828V126.882C330.507 123.215 333.48 120.241 337.148 120.241C340.816 120.241 343.789 123.215 343.789 126.882V128.828C343.789 132.495 340.816 135.469 337.148 135.469Z" fill="#544F56"/>
<path d="M154.815 29.5708H125.126C90.572 29.5708 60.4297 48.4499 44.4457 76.4552C22.2237 82.2763 6.02568 102.815 6.72109 126.882L9.28523 215.567H269.052V143.808C269.052 80.717 217.906 29.5708 154.815 29.5708Z" fill="#655E67"/>
<path d="M65.6492 230.498H19.8934C8.90703 230.498 0 221.591 0 210.604V204.367C0 193.381 8.90617 184.474 19.8934 184.474H65.6492V230.498Z" fill="#FAA68E"/>
<path d="M212.908 230.498H258.664C269.65 230.498 278.557 221.591 278.557 210.604V204.367C278.557 193.381 269.651 184.474 258.664 184.474H212.908V230.498Z" fill="#FAA68E"/>
<path d="M246.731 199.889C246.731 265.457 180.582 303.096 141.935 303.096C103.298 303.096 37.1384 265.457 37.1384 199.889C37.1384 158.006 48.7807 126.307 67.6185 105.049C71.8571 100.267 79.3243 100.315 83.5578 105.103C87.8643 109.973 92.3986 114.626 97.337 118.866C103.153 123.862 110.018 128.421 117.673 128.505C122.783 128.567 128.082 125.827 130.835 121.732C133.115 118.341 137.638 117.295 141.34 119.024C165.745 130.429 192.674 137.42 219.672 138.93C230.529 139.538 239.763 147.197 242.222 157.789C245.157 170.435 246.731 184.473 246.731 199.889Z" fill="#FAA68E"/>
<path d="M242.221 157.79C240.267 149.372 234.028 142.822 226.103 140.176C228.469 151.891 229.734 164.714 229.734 178.642C229.734 245.595 162.187 284.029 122.723 284.029C104.371 284.029 79.9397 275.708 59.0535 260.073C81.7973 287.923 117.408 303.096 141.935 303.096C180.582 303.096 246.731 265.456 246.731 199.889C246.731 184.474 245.156 170.436 242.221 157.79Z" fill="#E09380"/>
<path d="M57.0507 440.108L76.1584 366.606C76.975 363.465 79.8108 361.272 83.0566 361.272H112.4C128.32 361.272 141.226 348.366 141.226 332.447V320.33C141.226 317.492 143.526 315.192 146.363 315.192H175.016C183.499 315.192 190.679 308.472 190.746 299.989C190.785 295.694 189.059 291.811 186.26 289.013C183.48 286.233 179.646 284.517 175.409 284.517H100.417C97.11 284.517 95.1733 280.798 97.0713 278.094L109.456 260.398C111.383 257.657 112.255 254.483 112.15 251.359C112.035 246.872 109.897 242.491 105.986 239.654L105.67 239.423C98.6813 234.352 88.98 235.895 83.9669 242.845C75.1201 255.116 36.2289 308.961 32.3849 314.291L1.7518 432.137C0.70311 436.171 3.74776 440.108 7.9159 440.108H57.0507Z" fill="#F9B1A0"/>
<path d="M113.436 204.814C117.303 204.814 120.438 201.679 120.438 197.812V189.993C120.438 186.126 117.303 182.991 113.436 182.991C109.569 182.991 106.434 186.126 106.434 189.993V197.812C106.434 201.679 109.569 204.814 113.436 204.814Z" fill="#444145"/>
<path d="M218.075 204.814C221.943 204.814 225.077 201.679 225.077 197.812V189.993C225.077 186.126 221.943 182.991 218.075 182.991C214.208 182.991 211.073 186.126 211.073 189.993V197.812C211.073 201.679 214.208 204.814 218.075 204.814Z" fill="#444145"/>
<path d="M153.678 239.266C163.225 233.697 172.116 233.697 181.664 239.266C182.773 239.913 183.986 240.221 185.185 240.22C187.594 240.22 189.938 238.975 191.24 236.745C193.188 233.404 192.059 229.117 188.719 227.169C174.949 219.136 160.392 219.136 146.622 227.169C143.281 229.117 142.152 233.405 144.101 236.745C146.05 240.086 150.338 241.214 153.678 239.266Z" fill="#444145"/>
</svg>
