<svg width="362" height="331" viewBox="0 0 362 331" fill="none" xmlns="http://www.w3.org/2000/svg">
<g clip-path="url(#clip0)">
<path d="M181.659 212.37C185.021 209.008 185.018 203.554 181.652 200.188C178.286 196.823 172.832 196.82 169.47 200.182C166.108 203.544 166.111 208.998 169.477 212.363C172.843 215.729 178.297 215.732 181.659 212.37Z" fill="#ADE993"/>
<path d="M176.943 222.503L180.999 218.447L185.062 222.51L181.006 226.566L176.943 222.503Z" fill="#F0CE46"/>
<path d="M161.91 221.014L165.966 216.958L170.029 221.02L165.973 225.076L161.91 221.014Z" fill="#F0CE46"/>
<path d="M175.585 236.049L179.641 231.993L183.704 236.056L179.648 240.112L175.585 236.049Z" fill="#F0CE46"/>
<path d="M166.249 306.805C167.77 309.842 176.939 328.157 177.993 330.264C178.764 328.721 212.711 260.743 213.108 259.946L177.939 289.164L166.249 306.805Z" fill="#F0CE46"/>
<path d="M192.902 241.524C192.367 243.327 192.09 245.43 192.09 247.79C192.09 254.913 195.626 258.632 195.662 258.667L191.609 262.74C185.325 256.487 184.298 241.415 190.521 233.76C189.848 228.2 191.196 222.617 195.199 218.614L199.249 214.553L203.318 218.61L199.265 222.674C197.181 224.759 196.405 227.348 196.181 229.558C207.881 224.92 219.806 237.853 213.371 246.855C208.739 253.336 198.056 251.465 192.902 241.524ZM196.76 235.723C199.138 244.109 206.323 246.834 208.697 243.514C211.925 238.998 203.465 231.108 196.76 235.723Z" fill="#E17D46"/>
<path d="M170.296 262.936L166.724 258.436L166.695 258.46C166.824 258.352 169.847 255.75 169.847 250.183C169.847 247.235 169.376 244.779 168.464 242.882C164.016 256.711 149.033 253.274 149.025 243.448C149.02 237.855 153.977 233.474 159.921 232.772C154.541 228.207 147.984 229.424 146.275 229.226L146.28 223.481L149.852 223.484C157.498 223.484 165.282 227.623 168.122 234.35C173.579 237.441 175.592 243.758 175.593 250.183C175.593 256.136 172.859 260.899 170.296 262.936ZM157.645 246.319C161.213 246.322 162.773 242.566 163.455 239.383C163.445 239.124 163.422 238.866 163.386 238.611C161.439 238.155 159.271 238.459 157.448 239.513C153.302 241.908 154.464 246.316 157.645 246.319Z" fill="#8DC5E8"/>
<path d="M166.249 306.805L177.993 330.264L177.939 289.165L166.249 306.805Z" fill="#F6E486"/>
<path d="M192.446 257.83C190.851 259.425 184.674 263.54 177.997 270.217C169.704 278.511 160.64 289.636 158.65 291.626C159.55 293.424 165.431 305.172 166.249 306.805L213.108 259.946L214.156 257.848C213.272 257.847 193.307 257.83 192.446 257.83Z" fill="#E17D46"/>
<path d="M213.108 259.947L214.156 257.848C213.277 257.848 193.305 257.831 192.446 257.83C189.206 261.07 180.969 267.245 177.997 270.218L177.993 295.062L213.108 259.947Z" fill="#DB4D6C"/>
<path d="M172.149 257.813C171.118 258.844 164.88 262.699 160.071 267.507C155.944 271.634 153.208 276.754 151.873 278.089C153.52 281.378 157.553 289.435 158.65 291.626L192.446 257.83C186.892 257.825 175.528 257.815 172.149 257.813Z" fill="#F6E486"/>
<path d="M192.446 257.83C189.78 257.828 180.687 257.82 177.993 257.818L177.993 272.283L192.446 257.83Z" fill="#F0CE46"/>
<path d="M172.149 257.813L141.709 257.787L151.873 278.089L172.149 257.813Z" fill="#E17D46"/>
</g>
<g clip-path="url(#clip1)">
<path d="M118.26 126.224C116.84 126.224 115.689 127.375 115.689 128.794V130.524C115.689 131.944 116.84 133.095 118.26 133.095C119.679 133.095 120.83 131.944 120.83 130.524V128.794C120.83 127.375 119.679 126.224 118.26 126.224Z" fill="#F25817"/>
<path d="M118.26 151.78C116.84 151.78 115.689 152.931 115.689 154.35V156.08C115.689 157.5 116.84 158.65 118.26 158.65C119.679 158.65 120.83 157.5 120.83 156.08V154.35C120.83 152.931 119.679 151.78 118.26 151.78Z" fill="#F25817"/>
<path d="M126.693 136.584C127.351 136.584 128.008 136.333 128.51 135.832L129.734 134.609C130.739 133.606 130.739 131.978 129.736 130.974C128.733 129.97 127.105 129.969 126.101 130.972L124.877 132.195C123.872 133.198 123.872 134.826 124.875 135.83C125.377 136.333 126.035 136.584 126.693 136.584Z" fill="#F25817"/>
<path d="M108.009 149.042L106.785 150.266C105.78 151.269 105.78 152.896 106.783 153.9C107.285 154.403 107.943 154.654 108.601 154.654C109.259 154.654 109.916 154.404 110.418 153.902L111.642 152.679C112.647 151.676 112.647 150.049 111.644 149.045C110.641 148.04 109.014 148.039 108.009 149.042Z" fill="#F25817"/>
<path d="M131.918 139.867H130.186C128.767 139.867 127.616 141.018 127.616 142.437C127.616 143.857 128.767 145.007 130.186 145.007H131.918C133.338 145.007 134.489 143.857 134.489 142.437C134.489 141.018 133.338 139.867 131.918 139.867Z" fill="#F25817"/>
<path d="M108.903 142.437C108.903 141.018 107.752 139.867 106.333 139.867H104.601C103.181 139.867 102.03 141.018 102.03 142.437C102.03 143.857 103.181 145.007 104.601 145.007H106.333C107.752 145.007 108.903 143.857 108.903 142.437Z" fill="#F25817"/>
<path d="M128.51 149.042C127.505 148.039 125.878 148.04 124.875 149.044C123.872 150.049 123.872 151.676 124.877 152.679L126.101 153.902C126.603 154.404 127.26 154.654 127.918 154.654C128.576 154.654 129.234 154.403 129.736 153.9C130.739 152.896 130.739 151.269 129.734 150.265L128.51 149.042Z" fill="#F25817"/>
<path d="M110.418 130.972C109.413 129.969 107.786 129.97 106.783 130.974C105.78 131.979 105.78 133.606 106.785 134.609L108.009 135.832C108.511 136.333 109.168 136.584 109.826 136.584C110.484 136.584 111.142 136.333 111.644 135.83C112.647 134.825 112.647 133.198 111.642 132.195L110.418 130.972Z" fill="#F25817"/>
<path d="M237.287 1.26025C235.868 1.26025 234.717 2.41107 234.717 3.83057V5.56023C234.717 6.97973 235.868 8.13055 237.287 8.13055C238.707 8.13055 239.858 6.97973 239.858 5.56023V3.83057C239.858 2.41107 238.707 1.26025 237.287 1.26025Z" fill="#F25817"/>
<path d="M237.287 26.8154C235.868 26.8154 234.717 27.9662 234.717 29.3857V31.1157C234.717 32.5352 235.868 33.6861 237.287 33.6861C238.707 33.6861 239.858 32.5352 239.858 31.1157V29.3857C239.858 27.9662 238.707 26.8154 237.287 26.8154Z" fill="#F25817"/>
<path d="M245.721 11.6199C246.378 11.6199 247.036 11.3694 247.537 10.868L248.762 9.64487C249.766 8.64176 249.767 7.01423 248.764 6.01009C247.761 5.00596 246.133 5.00493 245.129 6.00804L243.905 7.23117C242.9 8.23428 242.9 9.86181 243.903 10.8659C244.404 11.3687 245.063 11.6199 245.721 11.6199Z" fill="#F25817"/>
<path d="M227.037 24.0784L225.813 25.3016C224.808 26.3047 224.807 27.9322 225.81 28.9363C226.312 29.4391 226.971 29.6903 227.629 29.6903C228.286 29.6903 228.944 29.4398 229.446 28.9387L230.67 27.7156C231.675 26.7125 231.676 25.085 230.672 24.0808C229.669 23.076 228.042 23.0753 227.037 24.0784Z" fill="#F25817"/>
<path d="M250.946 14.9028H249.214C247.794 14.9028 246.644 16.0537 246.644 17.4732C246.644 18.8927 247.794 20.0435 249.214 20.0435H250.946C252.365 20.0435 253.516 18.8927 253.516 17.4732C253.516 16.0537 252.365 14.9028 250.946 14.9028Z" fill="#F25817"/>
<path d="M227.931 17.4732C227.931 16.0537 226.78 14.9028 225.36 14.9028H223.628C222.209 14.9028 221.058 16.0537 221.058 17.4732C221.058 18.8927 222.209 20.0435 223.628 20.0435H225.36C226.78 20.0435 227.931 18.8927 227.931 17.4732Z" fill="#F25817"/>
<path d="M247.537 24.0783C246.533 23.0752 244.906 23.0762 243.902 24.0807C242.899 25.0852 242.9 26.7124 243.905 27.7155L245.129 28.9386C245.631 29.4397 246.288 29.6902 246.946 29.6902C247.604 29.6902 248.262 29.439 248.764 28.9362C249.768 27.9317 249.767 26.3046 248.762 25.3014L247.537 24.0783Z" fill="#F25817"/>
<path d="M227.037 10.8676C227.539 11.369 228.196 11.6195 228.854 11.6195C229.512 11.6195 230.17 11.3683 230.672 10.8656C231.675 9.8611 231.674 8.23392 230.67 7.23081L229.445 6.00768C228.441 5.00457 226.814 5.00525 225.811 6.00973C224.808 7.01422 224.808 8.6414 225.813 9.64451L227.037 10.8676Z" fill="#F25817"/>
<path d="M182.871 1.10905L188.507 11.4157C188.703 11.7735 188.997 12.0675 189.355 12.2632L199.662 17.9001C201.14 18.7089 201.14 20.8327 199.662 21.6415L189.355 27.2787C188.998 27.4744 188.704 27.7684 188.508 28.1262L182.871 38.4329C182.062 39.9116 179.938 39.9116 179.13 38.4329L173.492 28.1262C173.297 27.7684 173.003 27.4744 172.645 27.2787L162.338 21.6418C160.859 20.833 160.859 18.7092 162.338 17.9004L172.645 12.2636C173.003 12.0679 173.297 11.7738 173.492 11.416L179.129 1.10939C179.938 -0.369741 182.062 -0.369741 182.871 1.10905Z" fill="#FCA309"/>
<path d="M199.662 17.9005L189.355 12.2636C188.998 12.0679 188.704 11.7739 188.508 11.4161L182.871 1.10909C182.062 -0.369698 179.938 -0.369698 179.129 1.10909L176.591 5.75041L178.324 8.91876C179.411 10.9072 181.046 12.5419 183.034 13.6293C187.889 16.2846 187.889 23.2577 183.034 25.913C181.046 27.0005 179.411 28.6352 178.324 30.6236L176.591 33.7919L179.129 38.4332C179.938 39.912 182.062 39.912 182.871 38.4332L188.507 28.1266C188.703 27.7688 188.997 27.4748 189.355 27.2791L199.662 21.6422C201.141 20.8331 201.141 18.7093 199.662 17.9005Z" fill="#FD8E09"/>
<path d="M114.908 31.1379L120.545 41.4445C120.74 41.8023 121.034 42.0963 121.392 42.292L131.699 47.9289C133.178 48.7377 133.178 50.8615 131.699 51.6703L121.393 57.3075C121.035 57.5032 120.741 57.7972 120.545 58.155L114.908 68.4617C114.099 69.9405 111.976 69.9405 111.167 68.4617L105.53 58.155C105.334 57.7972 105.04 57.5032 104.682 57.3075L94.3755 51.6706C92.8967 50.8618 92.8967 48.7381 94.3755 47.9293L104.682 42.2924C105.04 42.0967 105.334 41.8026 105.53 41.4448L111.167 31.1382C111.976 29.6591 114.099 29.6591 114.908 31.1379Z" fill="#FCA309"/>
<path d="M131.699 47.9293L121.393 42.2924C121.035 42.0967 120.741 41.8027 120.545 41.4449L114.908 31.1379C114.099 29.6591 111.975 29.6591 111.167 31.1379L108.628 35.7792L110.361 38.9476C111.449 40.936 113.083 42.5707 115.072 43.6581C119.927 46.3134 119.927 53.2865 115.072 55.9418C113.083 57.0293 111.449 58.664 110.361 60.6524L108.628 63.8207L111.167 68.462C111.976 69.9408 114.099 69.9408 114.908 68.462L120.545 58.1554C120.74 57.7976 121.035 57.5036 121.392 57.3079L131.699 51.671C133.178 50.8619 133.178 48.7381 131.699 47.9293Z" fill="#FD8E09"/>
<path d="M250.833 45.4035L256.47 55.7102C256.666 56.068 256.96 56.362 257.318 56.5577L267.624 62.1946C269.103 63.0034 269.103 65.1271 267.624 65.9359L257.318 71.5728C256.96 71.7685 256.666 72.0626 256.47 72.4203L250.833 82.727C250.024 84.2058 247.901 84.2058 247.092 82.727L241.455 72.4203C241.259 72.0626 240.965 71.7685 240.608 71.5728L230.301 65.9359C228.822 65.1271 228.822 63.0034 230.301 62.1946L240.608 56.5577C240.965 56.362 241.259 56.068 241.455 55.7102L247.092 45.4035C247.901 43.9247 250.024 43.9247 250.833 45.4035Z" fill="#FCA309"/>
<path d="M267.625 62.1946L257.318 56.5577C256.96 56.362 256.666 56.068 256.471 55.7102L250.834 45.4035C250.025 43.9247 247.901 43.9247 247.093 45.4035L244.554 50.0448L246.287 53.2132C247.374 55.2016 249.009 56.8363 250.997 57.9237C255.853 60.5791 255.853 67.5522 250.997 70.2075C249.009 71.2949 247.374 72.9296 246.287 74.918L244.554 78.0864L247.093 82.7277C247.901 84.2065 250.025 84.2065 250.834 82.7277L256.471 72.421C256.666 72.0632 256.96 71.7692 257.318 71.5735L267.625 65.9366C269.103 65.1268 269.103 63.003 267.625 62.1946Z" fill="#FD8E09"/>
<path d="M196.595 175.19C196.992 166.779 199.999 134.167 222.627 88.3497C224.476 84.607 229.306 83.5254 232.561 86.1393C235.186 88.2476 235.777 92.0109 233.916 94.8167C226.493 106.009 208.492 135.64 197.116 175.273C197.028 175.577 196.579 175.506 196.595 175.19Z" fill="#F13555"/>
<path d="M168.336 175.184C167.249 160.857 161.66 104.631 139.145 70.3287C137.095 67.2059 132.832 66.4687 129.867 68.7406C127.111 70.852 126.53 74.774 128.566 77.5859C136.442 88.4618 154.734 118.294 167.812 175.259C167.886 175.58 168.361 175.512 168.336 175.184Z" fill="#F13555"/>
<path d="M180.475 175.216L174.529 62.8699C174.332 59.1614 177.286 56.0469 181 56.0469C184.725 56.0469 187.684 59.1803 187.47 62.8997L181.006 175.217C180.986 175.552 180.492 175.551 180.475 175.216Z" fill="#F13555"/>
</g>
<path d="M58.281 222.851H50.8711C50.8711 217.068 54.2658 214.051 56.7453 211.843C59.0331 209.805 60.1335 208.725 60.1335 206.374C60.1335 204.022 59.0331 202.938 56.7453 200.902C54.2658 198.698 50.8711 195.677 50.8711 189.896C50.8711 184.114 54.2658 181.097 56.7453 178.889C59.0331 176.852 60.1335 175.772 60.1335 173.424C60.1335 171.077 59.0331 169.992 56.7453 167.96C54.2667 165.755 50.8711 162.736 50.8711 156.954C50.8711 151.172 54.2667 148.155 56.7453 145.951C59.0331 143.913 60.1335 142.834 60.1335 140.486C60.1335 138.138 59.0331 137.053 56.7453 135.022C54.2658 132.817 50.8711 129.798 50.8711 124.017C50.8711 118.236 54.2667 115.218 56.7453 113.012C59.0331 110.974 60.1335 109.895 60.1335 107.547H67.5434C67.5434 113.329 64.1478 116.347 61.6692 118.552C59.3805 120.59 58.281 121.669 58.281 124.017C58.281 126.365 59.3805 127.45 61.6692 129.482C64.1478 131.686 67.5434 134.706 67.5434 140.487C67.5434 146.269 64.1478 149.287 61.6683 151.491C59.3805 153.529 58.281 154.607 58.281 156.956C58.281 159.305 59.3805 160.389 61.6692 162.421C64.1488 164.625 67.5434 167.645 67.5434 173.426C67.5434 179.208 64.1488 182.226 61.6692 184.433C59.3805 186.471 58.281 187.551 58.281 189.898C58.281 192.245 59.3805 193.332 61.6692 195.362C64.1488 197.568 67.5434 200.588 67.5434 206.371C67.5434 212.153 64.1488 215.17 61.6692 217.378C59.3805 219.416 58.281 220.499 58.281 222.851Z" fill="#FDBF00"/>
<path d="M94.1508 189.896H86.7408C86.7408 184.114 90.1355 181.097 92.6151 178.889C94.9038 176.852 96.0033 175.772 96.0033 173.424C96.0033 171.077 94.9038 169.992 92.6151 167.96C90.1364 165.755 86.7408 162.736 86.7408 156.954C86.7408 151.172 90.1364 148.155 92.6151 145.951C94.9038 143.913 96.0033 142.834 96.0033 140.486C96.0033 138.138 94.9038 137.053 92.6151 135.022C90.1355 132.817 86.7408 129.798 86.7408 124.017C86.7408 118.236 90.1364 115.218 92.6151 113.012C94.9038 110.974 96.0033 109.895 96.0033 107.547H103.413C103.413 113.329 100.018 116.347 97.5399 118.552C95.2512 120.59 94.1508 121.669 94.1508 124.017C94.1508 126.365 95.2512 127.45 97.5399 129.482C100.018 131.686 103.413 134.706 103.413 140.487C103.413 146.269 100.018 149.287 97.539 151.491C95.2512 153.529 94.1508 154.607 94.1508 156.956C94.1508 159.305 95.2512 160.389 97.5399 162.421C100.019 164.625 103.413 167.645 103.413 173.426C103.413 179.208 100.019 182.226 97.5399 184.433C95.2512 186.462 94.1508 187.545 94.1508 189.896Z" fill="#FFDA2D"/>
<path d="M31.6775 189.896H24.2675C24.2675 187.545 23.1681 186.462 20.8793 184.431C18.3952 182.222 15.0051 179.203 15.0051 173.421C15.0051 167.639 18.3952 164.62 20.8747 162.414C23.1635 160.376 24.2629 159.296 24.2629 156.949C24.2629 154.602 23.1635 153.522 20.8756 151.484C18.3961 149.28 15.0005 146.262 15.0005 140.48C15.0005 134.699 18.3961 131.681 20.8747 129.475C23.1635 127.437 24.2629 126.358 24.2629 124.01C24.2629 121.662 23.1635 120.577 20.8747 118.545C18.3961 116.334 15.0051 113.315 15.0051 107.534H22.4151C22.4151 109.884 23.5154 110.966 25.8032 112.999C28.2819 115.203 31.6775 118.222 31.6775 124.003C31.6775 129.785 28.2828 132.802 25.8032 135.008C23.5154 137.046 22.4151 138.125 22.4151 140.473C22.4151 142.821 23.5154 143.9 25.8032 145.938C28.2772 148.149 31.6775 151.165 31.6775 156.949C31.6775 162.732 28.2819 165.748 25.8032 167.954C23.5154 169.992 22.4151 171.072 22.4151 173.419C22.4151 175.766 23.5154 176.853 25.8032 178.884C28.2782 181.095 31.6775 184.114 31.6775 189.896Z" fill="#FFDA2D"/>
<path d="M67.5349 124.712L72.976 119.271L78.4172 124.712L72.976 130.154L67.5349 124.712Z" fill="#979FEF"/>
<path d="M80.7236 207.586L86.1648 202.145L91.606 207.586L86.1648 213.027L80.7236 207.586Z" fill="#979FEF"/>
<path d="M106.111 157.915L111.552 152.474L116.993 157.915L111.552 163.356L106.111 157.915Z" fill="#979FEF"/>
<path d="M8.70288 202.138L14.1441 196.697L19.5852 202.138L14.1441 207.579L8.70288 202.138Z" fill="#979FEF"/>
<path d="M34.2872 170.634L39.7284 165.193L45.1696 170.634L39.7284 176.075L34.2872 170.634Z" fill="#979FEF"/>
<path d="M80.7423 155.93C80.7423 156.977 80.4317 158.001 79.8496 158.872C79.2675 159.744 78.4402 160.423 77.4723 160.823C76.5044 161.224 75.4393 161.329 74.4117 161.125C73.3842 160.921 72.4403 160.416 71.6995 159.675C70.9587 158.934 70.4542 157.99 70.2498 156.963C70.0454 155.935 70.1503 154.87 70.5512 153.902C70.9521 152.934 71.6311 152.107 72.5022 151.525C73.3733 150.943 74.3975 150.632 75.4452 150.632C76.1408 150.632 76.8297 150.769 77.4724 151.035C78.1152 151.301 78.6992 151.692 79.1911 152.184C79.683 152.675 80.0732 153.259 80.3393 153.902C80.6055 154.545 80.7424 155.234 80.7423 155.93Z" fill="#FF7CB9"/>
<path d="M46.5687 137.66C46.5688 138.707 46.2583 139.732 45.6763 140.603C45.0943 141.474 44.267 142.153 43.2991 142.554C42.3311 142.955 41.2659 143.06 40.2383 142.856C39.2106 142.652 38.2667 142.147 37.5258 141.406C36.7849 140.665 36.2804 139.721 36.076 138.694C35.8717 137.666 35.9767 136.601 36.3777 135.633C36.7788 134.665 37.4578 133.838 38.3291 133.256C39.2004 132.674 40.2246 132.363 41.2724 132.363C41.9679 132.363 42.6566 132.5 43.2992 132.766C43.9418 133.033 44.5256 133.423 45.0174 133.915C45.5092 134.406 45.8993 134.99 46.1655 135.633C46.4317 136.275 46.5687 136.964 46.5687 137.66Z" fill="#FF7CB9"/>
<path d="M12.2144 123.829C12.2144 124.877 11.9037 125.901 11.3216 126.772C10.7394 127.643 9.91209 128.322 8.9441 128.723C7.97612 129.124 6.91098 129.229 5.88341 129.024C4.85583 128.82 3.91196 128.315 3.17118 127.574C2.43039 126.833 1.92596 125.889 1.72167 124.862C1.51738 123.834 1.62241 122.769 2.02349 121.801C2.42456 120.833 3.10366 120.006 3.97489 119.424C4.84613 118.842 5.87038 118.532 6.9181 118.532C7.61369 118.532 8.30247 118.669 8.9451 118.935C9.58773 119.201 10.1716 119.591 10.6634 120.083C11.1553 120.575 11.5454 121.159 11.8115 121.802C12.0776 122.445 12.2145 123.133 12.2144 123.829Z" fill="#FF7CB9"/>
<path d="M43.035 206.627C43.035 207.674 42.7243 208.699 42.1422 209.57C41.5602 210.441 40.7329 211.12 39.7649 211.521C38.797 211.922 37.7319 212.027 36.7044 211.822C35.6768 211.618 34.7329 211.113 33.9921 210.372C33.2513 209.632 32.7468 208.688 32.5424 207.66C32.338 206.633 32.4429 205.568 32.8438 204.6C33.2448 203.632 33.9237 202.804 34.7948 202.222C35.666 201.64 36.6901 201.33 37.7378 201.33C39.1427 201.33 40.4901 201.888 41.4835 202.881C42.4769 203.875 43.035 205.222 43.035 206.627Z" fill="#FF7CB9"/>
<path d="M116.866 199.101C116.866 200.149 116.555 201.173 115.973 202.044C115.391 202.915 114.564 203.594 113.596 203.995C112.628 204.396 111.563 204.501 110.535 204.296C109.508 204.092 108.564 203.587 107.823 202.847C107.082 202.106 106.578 201.162 106.373 200.134C106.169 199.107 106.274 198.042 106.675 197.074C107.076 196.106 107.755 195.279 108.626 194.696C109.497 194.114 110.521 193.804 111.569 193.804C112.973 193.804 114.321 194.362 115.314 195.355C116.308 196.349 116.866 197.696 116.866 199.101Z" fill="#FF7CB9"/>
<path d="M301.722 223.641H294.312C294.312 217.859 297.707 214.842 300.186 212.634C302.474 210.596 303.575 209.516 303.575 207.164C303.575 204.812 302.474 203.729 300.186 201.693C297.707 199.488 294.312 196.468 294.312 190.686C294.312 184.905 297.707 181.887 300.186 179.68C302.474 177.642 303.575 176.562 303.575 174.215C303.575 171.868 302.474 170.782 300.186 168.75C297.708 166.546 294.312 163.526 294.312 157.745C294.312 151.963 297.708 148.945 300.186 146.742C302.474 144.704 303.575 143.625 303.575 141.277C303.575 138.929 302.474 137.843 300.186 135.812C297.707 133.608 294.312 130.588 294.312 124.807C294.312 119.027 297.708 116.008 300.186 113.803C302.474 111.765 303.575 110.686 303.575 108.338H310.985C310.985 114.119 307.589 117.137 305.11 119.343C302.822 121.38 301.722 122.459 301.722 124.807C301.722 127.155 302.822 128.24 305.11 130.272C307.589 132.477 310.985 135.496 310.985 141.278C310.985 147.059 307.589 150.077 305.109 152.282C302.822 154.319 301.722 155.397 301.722 157.746C301.722 160.095 302.822 161.18 305.11 163.211C307.59 165.416 310.985 168.435 310.985 174.217C310.985 179.998 307.59 183.016 305.11 185.223C302.822 187.261 301.722 188.341 301.722 190.688C301.722 193.035 302.822 194.123 305.11 196.153C307.59 198.358 310.985 201.379 310.985 207.161C310.985 212.944 307.59 215.961 305.11 218.169C302.822 220.207 301.722 221.289 301.722 223.641Z" fill="#FDBF00"/>
<path d="M337.592 190.686H330.182C330.182 184.905 333.577 181.887 336.056 179.68C338.345 177.642 339.444 176.562 339.444 174.215C339.444 171.868 338.345 170.782 336.056 168.75C333.577 166.546 330.182 163.526 330.182 157.745C330.182 151.963 333.577 148.945 336.056 146.742C338.345 144.704 339.444 143.625 339.444 141.277C339.444 138.929 338.345 137.843 336.056 135.812C333.577 133.608 330.182 130.588 330.182 124.807C330.182 119.027 333.577 116.008 336.056 113.803C338.345 111.765 339.444 110.686 339.444 108.338H346.854C346.854 114.119 343.459 117.137 340.981 119.343C338.692 121.38 337.592 122.459 337.592 124.807C337.592 127.155 338.692 128.24 340.981 130.272C343.459 132.477 346.854 135.496 346.854 141.278C346.854 147.059 343.459 150.077 340.98 152.282C338.692 154.319 337.592 155.397 337.592 157.746C337.592 160.095 338.692 161.18 340.981 163.211C343.46 165.416 346.854 168.435 346.854 174.217C346.854 179.998 343.46 183.016 340.981 185.223C338.692 187.253 337.592 188.336 337.592 190.686Z" fill="#FFDA2D"/>
<path d="M275.119 190.687H267.709C267.709 188.336 266.609 187.253 264.32 185.222C261.836 183.013 258.446 179.993 258.446 174.212C258.446 168.43 261.836 165.41 264.316 163.204C266.605 161.166 267.704 160.086 267.704 157.739C267.704 155.392 266.605 154.312 264.317 152.274C261.837 150.071 258.442 147.052 258.442 141.271C258.442 135.489 261.837 132.471 264.316 130.265C266.605 128.227 267.704 127.148 267.704 124.8C267.704 122.452 266.605 121.368 264.316 119.335C261.837 117.124 258.446 114.106 258.446 108.324H265.856C265.856 110.674 266.957 111.757 269.244 113.789C271.723 115.994 275.119 119.012 275.119 124.794C275.119 130.575 271.724 133.593 269.244 135.798C266.957 137.836 265.856 138.915 265.856 141.263C265.856 143.611 266.957 144.69 269.244 146.728C271.718 148.94 275.119 151.956 275.119 157.739C275.119 163.523 271.723 166.539 269.244 168.745C266.957 170.783 265.856 171.863 265.856 174.21C265.856 176.557 266.957 177.643 269.244 179.674C271.719 181.885 275.119 184.905 275.119 190.687Z" fill="#FFDA2D"/>
<path d="M310.976 125.503L316.417 120.062L321.858 125.503L316.417 130.944L310.976 125.503Z" fill="#979FEF"/>
<path d="M324.165 208.376L329.606 202.935L335.047 208.376L329.606 213.818L324.165 208.376Z" fill="#979FEF"/>
<path d="M349.552 158.706L354.993 153.264L360.434 158.706L354.993 164.147L349.552 158.706Z" fill="#979FEF"/>
<path d="M252.144 202.928L257.585 197.487L263.026 202.928L257.585 208.369L252.144 202.928Z" fill="#979FEF"/>
<path d="M277.728 171.425L283.17 165.984L288.611 171.425L283.17 176.866L277.728 171.425Z" fill="#979FEF"/>
<path d="M324.183 156.72C324.183 157.768 323.873 158.792 323.291 159.663C322.709 160.534 321.881 161.213 320.913 161.614C319.945 162.015 318.88 162.12 317.853 161.915C316.825 161.711 315.881 161.207 315.141 160.466C314.4 159.725 313.895 158.781 313.691 157.753C313.486 156.726 313.591 155.661 313.992 154.693C314.393 153.725 315.072 152.898 315.943 152.316C316.814 151.734 317.839 151.423 318.886 151.423C319.582 151.423 320.271 151.56 320.913 151.826C321.556 152.092 322.14 152.482 322.632 152.974C323.124 153.466 323.514 154.05 323.78 154.693C324.047 155.335 324.183 156.024 324.183 156.72Z" fill="#FF7CB9"/>
<path d="M290.01 138.45C290.01 139.498 289.699 140.522 289.117 141.393C288.535 142.265 287.708 142.944 286.74 143.345C285.772 143.746 284.707 143.851 283.679 143.646C282.652 143.442 281.708 142.938 280.967 142.197C280.226 141.456 279.721 140.512 279.517 139.484C279.313 138.457 279.418 137.391 279.819 136.423C280.22 135.455 280.899 134.628 281.77 134.046C282.641 133.464 283.666 133.154 284.713 133.154C285.409 133.154 286.098 133.291 286.74 133.557C287.383 133.823 287.967 134.213 288.458 134.705C288.95 135.197 289.34 135.781 289.607 136.423C289.873 137.066 290.01 137.755 290.01 138.45Z" fill="#FF7CB9"/>
<path d="M255.655 124.619C255.655 125.667 255.345 126.691 254.763 127.562C254.18 128.434 253.353 129.113 252.385 129.513C251.417 129.914 250.352 130.019 249.324 129.815C248.297 129.61 247.353 129.106 246.612 128.365C245.871 127.624 245.367 126.68 245.163 125.652C244.958 124.625 245.063 123.56 245.464 122.592C245.866 121.624 246.545 120.797 247.416 120.215C248.287 119.633 249.311 119.322 250.359 119.322C251.055 119.322 251.743 119.459 252.386 119.726C253.029 119.992 253.613 120.382 254.104 120.874C254.596 121.366 254.986 121.95 255.252 122.592C255.519 123.235 255.655 123.924 255.655 124.619Z" fill="#FF7CB9"/>
<path d="M286.476 207.417C286.476 208.465 286.165 209.489 285.583 210.36C285.001 211.231 284.174 211.91 283.206 212.311C282.238 212.712 281.173 212.817 280.145 212.613C279.118 212.408 278.174 211.904 277.433 211.163C276.692 210.422 276.188 209.478 275.983 208.451C275.779 207.423 275.884 206.358 276.285 205.39C276.686 204.422 277.365 203.595 278.236 203.013C279.107 202.431 280.131 202.12 281.179 202.12C282.584 202.12 283.931 202.678 284.925 203.672C285.918 204.665 286.476 206.012 286.476 207.417Z" fill="#FF7CB9"/>
<path d="M360.307 199.891C360.307 200.939 359.996 201.963 359.414 202.834C358.832 203.705 358.005 204.384 357.037 204.785C356.069 205.186 355.004 205.291 353.976 205.087C352.949 204.882 352.005 204.378 351.264 203.637C350.523 202.896 350.019 201.952 349.814 200.925C349.61 199.897 349.715 198.832 350.116 197.864C350.517 196.896 351.196 196.069 352.067 195.487C352.938 194.905 353.962 194.594 355.01 194.594C356.415 194.594 357.762 195.152 358.755 196.146C359.749 197.139 360.307 198.487 360.307 199.891Z" fill="#FF7CB9"/>
<defs>
<clipPath id="clip0">
<rect width="98.0087" height="98.0087" fill="white" transform="translate(108.284 261.368) rotate(-45)"/>
</clipPath>
<clipPath id="clip1">
<rect width="175.467" height="175.467" fill="white" transform="translate(93.2664)"/>
</clipPath>
</defs>
</svg>
