<svg width="152" height="152" viewBox="0 0 152 152" fill="none" xmlns="http://www.w3.org/2000/svg">
<g clip-path="url(#clip0)">
<path d="M149.847 89.8647C148.044 88.4507 145.562 88.2723 143.575 89.4148C134.151 94.8314 124.191 97.5783 113.97 97.5783C81.1302 97.5783 54.4139 70.8605 54.4139 38.02C54.4139 27.7543 57.1646 17.8073 62.5901 8.45633C63.7424 6.47112 63.5715 3.98437 62.1583 2.1746C60.7459 0.364825 58.3746 -0.405116 56.169 0.232128C40.3046 4.80529 26.0258 14.5079 15.9633 27.5519C5.52003 41.0907 0 57.3052 0 74.4434C0 117.202 34.786 151.991 77.5444 151.991C94.6825 151.991 110.901 146.473 124.446 136.033C137.499 125.972 147.206 111.702 151.78 95.8488C152.415 93.6461 151.651 91.2793 149.847 89.8647ZM77.5444 140.744C40.9868 140.744 11.2455 111.002 11.2455 74.4434C11.2455 49.7797 25.3586 27.3353 46.8082 16.0553C44.3882 23.1662 43.1684 30.5125 43.1684 38.02C43.1684 77.0613 74.9302 108.824 113.97 108.824C121.467 108.824 128.826 107.599 135.971 105.171C124.693 126.625 102.229 140.744 77.5444 140.744Z" fill="white"/>
</g>
<defs>
<clipPath id="clip0">
<rect width="152" height="152" fill="white"/>
</clipPath>
</defs>
</svg>
