<svg width="92" height="103" viewBox="0 0 92 103" fill="none" xmlns="http://www.w3.org/2000/svg">
<path d="M3.21691 16.9176C4.13261 17.3653 5.14341 17.518 6.1337 17.3583C6.83833 18.4185 7.84 19.1896 8.98188 19.5507C10.1237 19.9118 11.3413 19.8427 12.444 19.354C13.5466 18.8654 14.4721 17.9849 15.0754 16.8504C15.6788 15.7159 15.9259 14.3915 15.7782 13.0845C16.7097 12.2907 17.3807 11.1797 17.6883 9.92211C17.9958 8.66448 17.923 7.32963 17.4809 6.12236C17.0387 4.91509 16.2518 3.90208 15.2407 3.23875C14.2297 2.57541 13.0503 2.29839 11.8837 2.45019C11.185 1.38588 10.1881 0.608344 9.04881 0.239085C7.90956 -0.130175 6.69214 -0.0703552 5.58678 0.409195C4.48142 0.888746 3.5504 1.76101 2.93921 2.88968C2.32801 4.01836 2.07108 5.33985 2.20855 6.64767C1.44502 7.26475 0.841771 8.09441 0.45973 9.05287C0.0776887 10.0113 -0.0696234 11.0646 0.0326685 12.1065C0.13496 13.1483 0.483235 14.1417 1.04232 14.9865C1.60141 15.8312 2.35152 16.4973 3.21691 16.9176ZM3.26099 10.4405C3.38137 10.1331 3.55552 9.85521 3.77334 9.62294C3.99117 9.39067 4.24836 9.20863 4.53002 9.08735C4.71756 9.00596 4.88881 8.88438 5.03399 8.72956C5.17917 8.57474 5.29544 8.38971 5.37615 8.18503C5.45687 7.98036 5.50045 7.76005 5.50441 7.53669C5.50837 7.31333 5.47263 7.09129 5.39923 6.88326C5.28662 6.57068 5.23089 6.23648 5.23523 5.8999C5.23956 5.56332 5.30389 5.23102 5.42451 4.92214C5.54512 4.61327 5.71964 4.33392 5.938 4.10019C6.15636 3.86647 6.41425 3.68298 6.69681 3.56031C6.97938 3.43764 7.28103 3.37821 7.58439 3.38544C7.88775 3.39267 8.18682 3.46642 8.46438 3.60243C8.74193 3.73845 8.99248 3.93405 9.20159 4.17796C9.41071 4.42187 9.57425 4.70928 9.68279 5.02362C9.83097 5.44374 10.1235 5.78135 10.4961 5.96219C10.8687 6.14302 11.2907 6.15226 11.6694 5.98788C12.2304 5.74687 12.8541 5.75949 13.4068 6.02303C13.9594 6.28656 14.3969 6.77999 14.6252 7.39737C14.8536 8.01475 14.8546 8.70685 14.628 9.32504C14.4015 9.94324 13.9655 10.4382 13.4136 10.7037C13.05 10.8769 12.7609 11.1993 12.6066 11.6035C12.4523 12.0077 12.4449 12.4624 12.5858 12.8725C12.5902 12.8857 12.5952 12.8993 12.6002 12.9132C12.8198 13.5422 12.8059 14.2422 12.5616 14.8599C12.3173 15.4777 11.8624 15.9629 11.2964 16.2096C10.7304 16.4562 10.0994 16.4442 9.54135 16.1761C8.98334 15.908 8.54374 15.4057 8.3187 14.779C8.24683 14.562 8.13586 14.3636 7.99256 14.1958C7.84926 14.028 7.67664 13.8944 7.48524 13.8031C7.29384 13.7118 7.08767 13.6647 6.87932 13.6647C6.67097 13.6647 6.46481 13.7119 6.27342 13.8032C6.24486 13.817 6.21592 13.8313 6.18142 13.8498C5.75804 14.0273 5.29686 14.0623 4.85563 13.9504C4.41441 13.8385 4.01275 13.5847 3.70096 13.2207C3.38918 12.8567 3.18112 12.3988 3.10286 11.9043C3.0246 11.4097 3.07961 10.9005 3.26099 10.4405Z" fill="white"/>
<path d="M57.9477 15.8909C57.7176 17.1828 57.8801 18.5229 58.4097 19.7015C58.9393 20.8801 59.8062 21.8307 60.8746 22.4045C61.9431 22.9783 63.1529 23.1431 64.3147 22.8729C65.4765 22.6028 66.5249 21.913 67.2957 20.9115C68.4522 21.1379 69.6438 20.9374 70.6879 20.3407C71.7319 19.744 72.5707 18.784 73.0759 17.6078C73.581 16.4316 73.7246 15.1041 73.4845 13.8287C73.2445 12.5533 72.6341 11.4004 71.747 10.5467C71.9851 9.25675 71.8311 7.91557 71.309 6.73306C70.7868 5.55055 69.9261 4.59343 68.8613 4.01147C67.7966 3.42951 66.588 3.25555 65.4246 3.51681C64.2613 3.77807 63.2088 4.45982 62.4319 5.45536C61.2574 5.18906 60.0362 5.36655 58.9631 5.95955C57.8901 6.55254 57.0267 7.52692 56.5108 8.72742C55.9948 9.92791 55.8559 11.2854 56.1162 12.5837C56.3765 13.8819 57.021 15.0462 57.9469 15.8909H57.9477ZM59.2922 10.1623C59.5619 9.55533 60.0379 9.09206 60.6154 8.87438C61.193 8.6567 61.8248 8.70245 62.372 9.00156C62.7367 9.20096 63.158 9.23144 63.543 9.08629C63.928 8.94114 64.2453 8.63226 64.4251 8.2276C64.5586 7.92702 64.7442 7.65856 64.9712 7.43755C65.1982 7.21653 65.4622 7.04728 65.7482 6.93947C66.0342 6.83165 66.3365 6.78739 66.6379 6.80919C66.9394 6.83099 67.2339 6.91844 67.5049 7.06654C67.7758 7.21465 68.0178 7.4205 68.2171 7.67235C68.4163 7.9242 68.5688 8.21712 68.666 8.53438C68.7632 8.85165 68.8031 9.18704 68.7835 9.52141C68.7638 9.85577 68.685 10.1826 68.5515 10.4831C68.3717 10.8878 68.3443 11.3551 68.4751 11.7823C68.6059 12.2094 68.8844 12.5614 69.2491 12.7608C69.7973 13.0515 70.2194 13.5711 70.4231 14.2062C70.6268 14.8412 70.5954 15.5398 70.3359 16.1493C70.0764 16.7587 69.6099 17.2294 69.0384 17.4582C68.467 17.687 67.837 17.6555 67.2865 17.3704C66.9207 17.1866 66.5045 17.1694 66.1273 17.3223C65.7502 17.4753 65.4422 17.7864 65.2696 18.1886C65.268 18.192 65.2667 18.1951 65.2655 18.1983C64.9961 18.8055 64.5203 19.2691 63.9428 19.4871C63.3653 19.7051 62.7334 19.6597 62.186 19.3608C61.6387 19.0619 61.2208 18.5341 61.0243 17.8934C60.8278 17.2527 60.8688 16.5517 61.1382 15.9445C61.1464 15.9271 61.1543 15.9094 61.1618 15.892C61.2495 15.6877 61.2995 15.4661 61.309 15.2401C61.3186 15.014 61.2874 14.7882 61.2172 14.5757C61.1471 14.3633 61.0395 14.1685 60.9006 14.0027C60.7618 13.837 60.5946 13.7036 60.4087 13.6105C60.3803 13.5962 60.3512 13.5828 60.3161 13.5665C59.7764 13.2623 59.3663 12.7345 59.1747 12.0974C58.983 11.4603 59.0253 10.7651 59.2922 10.1623Z" fill="white"/>
<path d="M91.9881 59.3326C91.986 59.3129 90.4209 52.3181 90.4209 52.3181C90.3379 51.95 90.1465 51.6233 89.877 51.3898C89.6074 51.1564 89.2753 51.0295 88.9333 51.0295H85.8667V37.7705L90.3428 26.1842C90.4428 25.9255 90.4833 25.6433 90.4607 25.3629C90.4381 25.0825 90.3532 24.8127 90.2135 24.5777C90.0738 24.3427 89.8837 24.1499 89.6603 24.0165C89.4369 23.883 89.1871 23.8132 88.9333 23.8132H82.8C82.5153 23.8132 82.2361 23.9012 81.9939 24.0672C81.7517 24.2333 81.556 24.4709 81.4286 24.7534L76.8286 34.9596C76.7221 35.1958 76.6666 35.4562 76.6666 35.7203V51.0295H69.9704L70.3802 47.3936C71.4294 47.0285 72.326 46.2586 72.9076 45.2232C73.4891 44.1879 73.7171 42.9557 73.5502 41.75C73.3833 40.5442 72.8326 39.4447 71.9979 38.6506C71.1631 37.8565 70.0996 37.4204 69 37.4214H67.2407C67.4476 36.6561 67.5134 35.8523 67.434 35.0582C67.3547 34.2641 67.1319 33.4958 66.7789 32.7994C66.4259 32.1029 65.95 31.4925 65.3796 31.0047C64.8092 30.5169 64.156 30.1616 63.4591 29.9601C63.159 28.6858 62.4866 27.5579 61.547 26.7529C60.6075 25.9478 59.4538 25.5112 58.2666 25.5112C57.0794 25.5112 55.9258 25.9478 54.9862 26.7529C54.0466 27.5579 53.3742 28.6858 53.0742 29.9601C52.1336 30.2361 51.2784 30.7905 50.5999 31.5641C49.9215 30.7905 49.0663 30.2361 48.1257 29.9601C47.957 29.253 47.6717 28.5866 47.2843 27.9947C47.8606 27.5947 48.3622 27.0754 48.7619 26.4653C49.9305 26.5918 51.1044 26.2897 52.1035 25.6054C53.1027 24.9211 53.872 23.8922 54.2937 22.6765C54.7154 21.4608 54.7662 20.1252 54.4383 18.8744C54.1104 17.6235 53.4219 16.5265 52.4783 15.7512C52.6243 14.4448 52.3762 13.1216 51.7727 11.9881C51.1692 10.8547 50.2443 9.97492 49.1425 9.48624C48.0407 8.99756 46.8239 8.92751 45.6824 9.28701C44.5409 9.64651 43.5389 10.4153 42.8328 11.4734C41.6433 11.3082 40.4381 11.5896 39.4096 12.2727C38.381 12.9558 37.5882 14.0013 37.1576 15.2425C36.7271 16.4837 36.6835 17.8491 37.0339 19.1209C37.3843 20.3928 38.1084 21.4979 39.0909 22.26C38.936 23.7396 39.2851 25.23 40.0696 26.4389C38.9208 27.2447 38.089 28.5025 37.7412 29.9601C36.8005 30.236 35.9451 30.7904 35.2666 31.5641C34.5881 30.7904 33.7327 30.2359 32.792 29.9601C32.6089 29.1907 32.2883 28.4701 31.8494 27.8408C32.5143 26.6763 32.7952 25.2923 32.6444 23.924C33.5757 23.1301 34.2466 22.0192 34.554 20.7616C34.8615 19.5041 34.7885 18.1694 34.3464 16.9622C33.9044 15.7551 33.1175 14.7422 32.1066 14.0788C31.0956 13.4155 29.9165 13.1384 28.7499 13.2901C28.0511 12.2256 27.054 11.448 25.9145 11.0788C24.7751 10.7096 23.5575 10.7696 22.4521 11.2494C21.3466 11.7292 20.4156 12.6019 19.8046 13.7309C19.1936 14.8599 18.937 16.1817 19.0749 17.4897C18.1065 18.2729 17.4021 19.393 17.074 20.6718C16.7459 21.9505 16.8129 23.3142 17.2643 24.5458C17.7157 25.7774 18.5256 26.8061 19.565 27.4679C20.6044 28.1298 21.8136 28.3868 22.9999 28.198C23.0204 28.2288 23.0434 28.2578 23.0645 28.2882C22.768 28.8043 22.546 29.3686 22.4065 29.9607C21.4665 30.2366 20.6119 30.7909 19.934 31.5641C19.2556 30.7905 18.4003 30.2361 17.4598 29.9601C17.1597 28.6858 16.4873 27.5579 15.5477 26.7529C14.6082 25.9478 13.4545 25.5112 12.2673 25.5112C11.0801 25.5112 9.92648 25.9478 8.98691 26.7529C8.04734 27.5579 7.3749 28.6858 7.07486 29.9601C6.36346 30.167 5.69797 30.5339 5.11966 31.038C4.54134 31.5421 4.06252 32.1725 3.71289 32.8904C3.36325 33.6082 3.15026 34.398 3.08712 35.2109C3.02397 36.0237 3.11201 36.8423 3.34579 37.6159C2.39323 37.9154 1.55318 38.5478 0.950484 39.4192C0.347789 40.2906 0.0146137 41.3545 0.000469684 42.4527C-0.0136744 43.551 0.291968 44.625 0.871976 45.5151C1.45198 46.4053 2.2754 47.0641 3.21987 47.3936L9.21195 100.572C9.25864 100.983 9.43894 101.361 9.71904 101.635C9.99913 101.909 10.3597 102.06 10.7332 102.06H62.8666C63.2404 102.06 63.6012 101.909 63.8814 101.634C64.1615 101.36 64.3417 100.981 64.3881 100.57L65.2529 92.8942L65.941 100.528C65.9786 100.947 66.1556 101.337 66.4375 101.62C66.7195 101.903 67.0863 102.06 67.4666 102.06H85.8667C86.2468 102.06 86.6134 101.903 86.8953 101.621C87.1772 101.338 87.3543 100.949 87.3923 100.529L90.321 68.0397H90.4667C90.8733 68.0397 91.2633 67.8605 91.5509 67.5415C91.8385 67.2225 92 66.7898 92 66.3387C92 66.3387 91.9925 59.3737 91.9881 59.3326ZM88.9333 64.6377H64.4V61.2356H88.9333V64.6377ZM85.4626 87.7463L67.5546 84.2405L66.9351 77.3677L86.0606 81.1119L85.4626 87.7463ZM88.5028 57.8336H64.8304L65.5971 54.4316H87.7362L88.5028 57.8336ZM79.7333 36.122L83.7476 27.2152H86.608L82.9238 36.7514C82.8421 36.9631 82.8 37.191 82.8 37.4214V51.0295H79.7333V36.122ZM54.4333 33.1688C54.8399 33.1688 55.23 32.9896 55.5175 32.6706C55.8051 32.3516 55.9666 31.9189 55.9666 31.4678C55.9666 30.7911 56.2089 30.1421 56.6403 29.6636C57.0716 29.1851 57.6566 28.9163 58.2666 28.9163C58.8766 28.9163 59.4616 29.1851 59.893 29.6636C60.3243 30.1421 60.5666 30.7911 60.5666 31.4678C60.5666 31.9189 60.7282 32.3516 61.0157 32.6706C61.3033 32.9896 61.6933 33.1688 62.1 33.1688C62.5442 33.1681 62.9791 33.3104 63.352 33.5784C63.7248 33.8463 64.0196 34.2285 64.2006 34.6786C64.3817 35.1287 64.4411 35.6274 64.3718 36.1142C64.3025 36.601 64.1074 37.0551 63.8102 37.4214H52.7225C52.4254 37.055 52.2304 36.6008 52.1612 36.114C52.0921 35.6272 52.1516 35.1286 52.3326 34.6786C52.5137 34.2285 52.8085 33.8464 53.1813 33.5784C53.5542 33.3105 53.989 33.1682 54.4333 33.1688ZM40.032 16.435C40.1442 16.1239 40.3105 15.8403 40.5215 15.6005C40.7325 15.3606 40.984 15.1693 41.2616 15.0373C41.5393 14.9053 41.8376 14.8353 42.1397 14.8312C42.4417 14.8271 42.7416 14.8891 43.022 15.0136C43.209 15.0966 43.4089 15.1379 43.6102 15.1352C43.8116 15.1325 44.0105 15.0858 44.1956 14.9978C44.3807 14.9098 44.5484 14.7822 44.689 14.6223C44.8297 14.4624 44.9406 14.2734 45.0153 14.0659C45.1275 13.7548 45.2938 13.4713 45.5048 13.2315C45.7157 12.9916 45.9672 12.8003 46.2448 12.6683C46.5224 12.5363 46.8208 12.4662 47.1228 12.4621C47.4248 12.458 47.7246 12.52 48.0051 12.6444C48.2855 12.7689 48.5411 12.9534 48.7573 13.1874C48.9735 13.4214 49.146 13.7004 49.2649 14.0083C49.3839 14.3163 49.4471 14.6473 49.4508 14.9823C49.4544 15.3174 49.3986 15.65 49.2864 15.9611C49.2116 16.1685 49.1744 16.3902 49.1768 16.6136C49.1793 16.837 49.2214 17.0577 49.3007 17.263C49.38 17.4684 49.495 17.6544 49.6392 17.8104C49.7833 17.9665 49.9537 18.0895 50.1407 18.1724C50.6962 18.4241 51.1409 18.9068 51.3798 19.5174C51.6187 20.128 51.6329 20.8181 51.4192 21.4401C51.2055 22.0622 50.781 22.5668 50.2364 22.8462C49.6918 23.1256 49.0702 23.1575 48.5046 22.9353C48.1264 22.7833 47.7095 22.8023 47.3438 22.9882C46.9781 23.174 46.6929 23.5119 46.5496 23.9289V23.9302C46.3185 24.5514 45.8757 25.0464 45.3174 25.3076C44.7592 25.5688 44.1306 25.5751 43.5682 25.3251C43.0058 25.0751 42.555 24.5891 42.3138 23.9725C42.0725 23.356 42.0604 22.6587 42.2799 22.0322C42.2862 22.0152 42.2923 21.9982 42.2981 21.9816C42.3705 21.7709 42.4043 21.5462 42.3977 21.3208C42.3911 21.0954 42.3442 20.8737 42.2596 20.6686C42.175 20.4635 42.0546 20.2791 41.9052 20.1261C41.7558 19.9731 41.5804 19.8546 41.3894 19.7775C41.3589 19.7652 41.3284 19.7537 41.2901 19.7399C40.731 19.4829 40.2856 18.9921 40.0502 18.3737C39.8147 17.7552 39.8082 17.0588 40.032 16.435ZM39.0999 33.1688C39.5066 33.1688 39.8966 32.9896 40.1842 32.6706C40.4717 32.3516 40.6333 31.9189 40.6333 31.4678C40.6333 30.7911 40.8756 30.1421 41.3069 29.6636C41.7383 29.1851 42.3233 28.9163 42.9333 28.9163C43.5433 28.9163 44.1283 29.1851 44.5596 29.6636C44.9909 30.1421 45.2333 30.7911 45.2333 31.4678C45.2333 31.9189 45.3948 32.3516 45.6824 32.6706C45.9699 32.9896 46.3599 33.1688 46.7666 33.1688C47.3764 33.1695 47.961 33.4386 48.3922 33.917C48.8234 34.3953 49.0659 35.0439 49.0666 35.7203C49.0673 36.3493 48.8564 36.9559 48.4751 37.4214H37.3891C37.092 37.055 36.8971 36.6008 36.8279 36.114C36.7587 35.6272 36.8182 35.1286 36.9993 34.6786C37.1803 34.2285 37.4751 33.8464 37.848 33.5784C38.2208 33.3105 38.6557 33.1682 39.0999 33.1688ZM21.3132 24.6408C20.8965 24.4385 20.5431 24.1036 20.2979 23.6786C20.0527 23.2535 19.9266 22.7573 19.9356 22.2528C19.9446 21.7482 20.0882 21.2579 20.3484 20.844C20.6086 20.43 20.9735 20.1109 21.3972 19.927C21.5847 19.8456 21.756 19.724 21.9011 19.5692C22.0463 19.4144 22.1626 19.2294 22.2433 19.0247C22.324 18.82 22.3676 18.5997 22.3716 18.3764C22.3755 18.153 22.3398 17.931 22.2664 17.7229C22.1531 17.4102 22.0968 17.0757 22.1008 16.7387C22.1047 16.4017 22.1688 16.0689 22.2893 15.7596C22.4098 15.4502 22.5843 15.1704 22.8029 14.9363C23.0214 14.7022 23.2796 14.5184 23.5625 14.3956C23.8454 14.2728 24.1474 14.2134 24.4511 14.2208C24.7549 14.2282 25.0542 14.3023 25.332 14.4388C25.6098 14.5752 25.8604 14.7714 26.0695 15.016C26.2785 15.2605 26.4418 15.5485 26.55 15.8635C26.6981 16.2836 26.9907 16.6212 27.3632 16.8021C27.7358 16.9829 28.1579 16.9921 28.5366 16.8278C29.0972 16.5882 29.7202 16.6017 30.2719 16.8655C30.8237 17.1293 31.2604 17.6223 31.4884 18.2389C31.7165 18.8555 31.7178 19.5467 31.4921 20.1644C31.2663 20.782 30.8315 21.2771 30.2808 21.5434C29.9209 21.7148 29.6338 22.0324 29.4784 22.4312C29.3229 22.8299 29.3109 23.2795 29.4447 23.6878C29.4514 23.708 29.4587 23.7303 29.4665 23.7515C29.6559 24.2999 29.669 24.904 29.5035 25.4619C29.3381 26.0197 29.0042 26.4972 28.5583 26.8136C28.1124 27.1301 27.5817 27.2663 27.0558 27.1992C26.5299 27.132 26.041 26.8657 25.6715 26.4451C25.4613 26.2064 25.2959 25.9237 25.1849 25.6135L25.1805 25.6012C25.1069 25.3868 24.9949 25.1911 24.8513 25.026C24.7077 24.8608 24.5355 24.7296 24.345 24.6402C24.1545 24.5508 23.9497 24.5051 23.7429 24.5058C23.5361 24.5066 23.3315 24.5537 23.1415 24.6444C23.113 24.6582 23.084 24.6724 23.0492 24.6911C22.4871 24.9284 21.8633 24.9103 21.3132 24.6408ZM23.7666 33.1688C24.1732 33.1688 24.5632 32.9896 24.8508 32.6706C25.1384 32.3516 25.2999 31.9189 25.2999 31.4678C25.2994 31.0572 25.3886 30.6527 25.56 30.2888C26.7671 30.7545 28.0846 30.7255 29.2741 30.2069C29.3609 30.1693 29.4436 30.1248 29.5275 30.0827C29.7696 30.4948 29.899 30.9759 29.8999 31.4678C29.8999 31.9189 30.0615 32.3516 30.349 32.6706C30.6366 32.9896 31.0266 33.1688 31.4332 33.1688C32.043 33.1695 32.6277 33.4386 33.0589 33.917C33.4901 34.3953 33.7326 35.0439 33.7332 35.7203C33.7338 36.3493 33.5229 36.9559 33.1416 37.4214H22.0557C21.7587 37.055 21.5637 36.6008 21.4945 36.114C21.4253 35.6272 21.4849 35.1286 21.6659 34.6786C21.847 34.2285 22.1418 33.8464 22.5146 33.5784C22.8875 33.3105 23.3223 33.1682 23.7666 33.1688ZM8.43321 33.1688C8.83987 33.1688 9.22988 32.9896 9.51744 32.6706C9.805 32.3516 9.96654 31.9189 9.96654 31.4678C9.96654 30.7911 10.2089 30.1421 10.6402 29.6636C11.0715 29.1851 11.6565 28.9163 12.2665 28.9163C12.8765 28.9163 13.4616 29.1851 13.8929 29.6636C14.3242 30.1421 14.5666 30.7911 14.5666 31.4678C14.5666 31.9189 14.7281 32.3516 15.0157 32.6706C15.3032 32.9896 15.6932 33.1688 16.0999 33.1688C16.7097 33.1695 17.2943 33.4386 17.7255 33.917C18.1567 34.3953 18.3992 35.0439 18.3999 35.7203C18.4005 36.3493 18.1896 36.9558 17.8084 37.4214H6.72239C6.4253 37.055 6.23036 36.6008 6.16117 36.114C6.09198 35.6272 6.15152 35.1286 6.33257 34.6786C6.51362 34.2285 6.80842 33.8464 7.18126 33.5784C7.55409 33.3105 7.98897 33.1682 8.43321 33.1688ZM4.59987 40.8234H69C69.4066 40.8234 69.7966 41.0026 70.0842 41.3216C70.3718 41.6406 70.5333 42.0733 70.5333 42.5244C70.5333 42.9756 70.3718 43.4082 70.0842 43.7272C69.7966 44.0462 69.4066 44.2254 69 44.2254H4.59987C4.1932 44.2254 3.80319 44.0462 3.51564 43.7272C3.22808 43.4082 3.06653 42.9756 3.06653 42.5244C3.06653 42.0733 3.22808 41.6406 3.51564 41.3216C3.80319 41.0026 4.1932 40.8234 4.59987 40.8234ZM50.6486 98.6581L51.2558 77.1062C52.3262 73.7551 52.4197 70.1155 51.523 66.7023C51.5427 66.6026 51.5541 66.5011 51.5573 66.3991L52.0861 47.6275H58.1677L55.2927 98.6581H50.6486ZM18.3071 98.6581L15.4321 47.6275H21.5137L22.0536 66.7925C21.1704 70.2263 21.2862 73.8818 22.3845 77.2384C22.3639 77.3593 22.3551 77.4822 22.3582 77.6052L22.9512 98.6581H18.3071ZM39.8666 47.6275V54.7739C37.8428 54.3175 35.757 54.3175 33.7332 54.7739V47.6275H39.8666ZM48.6509 60.6616C47.1121 58.5833 45.1532 56.9369 42.9333 55.8562V47.6275H49.0179L48.6509 60.6616ZM30.6666 55.8562C28.4466 56.9369 26.4877 58.5833 24.949 60.6616L24.5819 47.6275H30.6666V55.8562ZM25.579 83.0176C27.0103 84.7255 28.7417 86.0901 30.6666 87.0274V98.6581H26.0194L25.579 83.0176ZM33.7332 88.1096C35.757 88.5661 37.8428 88.5661 39.8666 88.1096V98.6581H33.7332V88.1096ZM36.7999 85.0499C34.3738 85.0499 32.0022 84.2518 29.9849 82.7565C27.9677 81.2613 26.3954 79.1359 25.467 76.6494C24.5385 74.1628 24.2956 71.4267 24.7689 68.7869C25.2422 66.1472 26.4105 63.7225 28.1261 61.8193C29.8416 59.9162 32.0273 58.6202 34.4068 58.0951C36.7863 57.57 39.2527 57.8395 41.4942 58.8695C43.7356 59.8994 45.6514 61.6436 46.9993 63.8815C48.3472 66.1193 49.0666 68.7503 49.0666 71.4418C49.063 75.0496 47.7694 78.5086 45.4697 81.0597C43.1701 83.6109 40.0521 85.0459 36.7999 85.0499ZM6.33676 47.6275H12.3593L15.2343 98.6581H12.0868L6.33676 47.6275ZM42.9333 98.6581V87.0274C44.8581 86.09 46.5896 84.7253 48.0211 83.0174L47.5804 98.6581H42.9333ZM61.5131 98.6581H58.3655L61.2405 47.6275H67.2631L66.8797 51.0295H64.4C64.058 51.0295 63.7259 51.1564 63.4563 51.3898C63.1868 51.6233 62.9954 51.95 62.9124 52.3181C62.9124 52.3181 61.3473 59.3135 61.3452 59.3324C61.3408 59.3735 61.3333 66.3387 61.3333 66.3387C61.3333 66.7898 61.4948 67.2225 61.7824 67.5415C62.0699 67.8605 62.46 68.0397 62.8666 68.0397H63.0123L63.8884 77.7583C63.8656 77.8437 63.8489 77.9309 63.8384 78.0192L61.5131 98.6581ZM68.8539 98.6581L67.8712 87.7571L85.1575 91.1409L84.479 98.6581H68.8539ZM86.3663 77.717L66.6181 73.8508L66.0943 68.0397H87.239L86.3663 77.717Z" fill="white"/>
</svg>
