<svg width="427" height="419" viewBox="0 0 427 419" fill="none" xmlns="http://www.w3.org/2000/svg">
<g clip-path="url(#clip0)" filter="url(#filter0_d)">
<path d="M416.844 79.35V264.58L396.655 270.734H45.8573L10.1557 264.58V79.35C10.1557 65.7581 21.1786 54.7271 34.7786 54.7271H392.221C405.821 54.7271 416.844 65.7581 416.844 79.35Z" fill="#8AC9FE"/>
<path d="M59.4015 54.7271C45.8015 54.7271 34.7786 65.7581 34.7786 79.35V264.58L29.2327 269.326H15.2625L10.1557 264.58V79.35C10.1557 65.7581 21.1786 54.7271 34.7786 54.7271H59.4015Z" fill="#60B7FF"/>
<path d="M173.901 276.888H253.104V386.871H173.901V276.888Z" fill="#E8EDF2"/>
<path d="M173.898 276.891H198.521V386.873H173.898V276.891Z" fill="#D9E7EC"/>
<path d="M305.838 404.107H121.166C113.007 404.107 106.393 397.492 106.393 389.333V379.484C106.393 371.324 113.007 364.71 121.166 364.71H305.838C313.998 364.71 320.612 371.324 320.612 379.484V389.333C320.612 397.493 313.998 404.107 305.838 404.107Z" fill="#F5F8F9"/>
<path d="M416.844 264.58V293.306C416.844 306.906 405.821 317.929 392.221 317.929H34.7786C21.1786 317.929 10.1557 306.906 10.1557 293.306V264.58H416.844Z" fill="#F5F8F9"/>
<path d="M145.787 404.11H121.164C113.006 404.11 106.39 397.494 106.39 389.336V379.487C106.39 371.328 113.006 364.713 121.164 364.713H145.787C137.629 364.713 131.013 371.328 131.013 379.487V389.336C131.013 397.494 137.629 404.11 145.787 404.11Z" fill="#E8EDF2"/>
<path d="M59.4015 317.929H34.7786C21.1786 317.929 10.1557 306.906 10.1557 293.306V264.58H34.7786V293.306C34.7786 306.906 45.8015 317.929 59.4015 317.929Z" fill="#E8EDF2"/>
<path d="M346.874 208.591V31.3064C346.874 22.237 339.528 14.8911 330.459 14.8911H102.286C93.217 14.8911 85.8712 22.237 85.8712 31.3064V208.591H346.874Z" fill="#F5F8F9"/>
<path d="M126.909 14.8911C117.84 14.8911 110.494 22.237 110.494 31.3064V208.591H85.8712V31.3064C85.8712 22.237 93.217 14.8911 102.286 14.8911H126.909Z" fill="#E8EDF2"/>
<path d="M392.221 48.0802H353.03V31.8044C353.03 19.3592 342.904 9.2334 330.459 9.2334H316.161C312.761 9.2334 310.005 11.9887 310.005 15.3891C310.005 18.7896 312.761 21.5449 316.161 21.5449H330.459C336.116 21.5449 340.718 26.1469 340.718 31.8044V202.934H92.0269V31.8044C92.0269 26.1469 96.629 21.5449 102.286 21.5449H287.434C290.835 21.5449 293.59 18.7896 293.59 15.3891C293.59 11.9887 290.835 9.2334 287.434 9.2334H102.286C89.8412 9.2334 79.7155 19.3592 79.7155 31.8044V48.0802H34.7786C17.8069 48.0802 4 61.887 4 78.8588V206.282C4 209.683 6.7553 212.438 10.1557 212.438C13.5562 212.438 16.3115 209.683 16.3115 206.282V78.8588C16.3115 68.6764 24.5963 60.3916 34.7786 60.3916H79.7155V202.934H68.6352C65.2347 202.934 62.4794 205.689 62.4794 209.089C62.4794 212.49 65.2347 215.245 68.6352 215.245H364.11C367.511 215.245 370.266 212.49 370.266 209.089C370.266 205.689 367.511 202.934 364.11 202.934H353.03V60.3916H392.221C402.404 60.3916 410.689 68.6764 410.689 78.8588V257.925H16.3115V235.009C16.3115 231.609 13.5562 228.853 10.1557 228.853C6.7553 228.853 4 231.609 4 235.009V292.807C4 309.779 17.8069 323.586 34.7786 323.586H167.742V358.058H121.164C109.623 358.058 100.235 367.447 100.235 378.988V388.837C100.235 400.377 109.623 409.766 121.164 409.766H305.836C317.377 409.766 326.765 400.377 326.765 388.837V378.988C326.765 367.447 317.377 358.058 305.836 358.058H259.258V323.586H392.221C409.193 323.586 423 309.779 423 292.807V78.8588C423 61.887 409.193 48.0802 392.221 48.0802V48.0802ZM314.454 378.988V388.837C314.454 393.589 310.588 397.455 305.836 397.455H121.164C116.412 397.455 112.546 393.589 112.546 388.837V378.988C112.546 374.235 116.412 370.37 121.164 370.37H305.836C310.588 370.37 314.454 374.235 314.454 378.988ZM246.946 358.058H180.054V323.586H246.946V358.058ZM392.221 311.275H34.7786C24.5963 311.275 16.3115 302.99 16.3115 292.807V270.236H410.689V292.807C410.689 302.99 402.404 311.275 392.221 311.275Z" fill="black"/>
<path d="M161.797 164.069H161.85C165.225 164.069 167.975 161.348 168.005 157.966C168.03 155.08 168.08 149.152 168.132 141.897H171.622C175.023 141.897 177.778 139.141 177.778 135.741C177.778 132.341 175.023 129.585 171.622 129.585H168.215C168.329 110.989 168.4 90.2149 168.172 87.4859C167.751 82.4398 164.787 78.3442 160.62 77.054C158.65 76.445 153.555 75.6603 148.775 81.5206C144.518 86.7431 123.274 125.126 119.058 132.767C118.007 134.674 118.04 136.995 119.147 138.871C120.255 140.746 122.27 141.898 124.448 141.898H155.819C155.778 147.556 155.735 153.007 155.694 157.861C155.665 161.26 158.396 164.039 161.797 164.069V164.069ZM134.9 129.586C143.302 114.5 151.79 99.6143 155.989 92.8209C156.043 99.9451 155.99 114.525 155.9 129.586H134.9Z" fill="black"/>
<path d="M188.493 104.921V139.663C188.493 155.035 201 167.541 216.373 167.541C231.746 167.541 244.252 155.035 244.252 139.663V104.921C244.252 89.5491 231.746 77.0415 216.373 77.0415C201 77.0415 188.493 89.5483 188.493 104.921V104.921ZM231.941 104.921V139.663C231.941 148.246 224.957 155.23 216.373 155.23C207.788 155.23 200.804 148.246 200.804 139.663V104.921C200.804 96.3368 207.788 89.353 216.373 89.353C224.957 89.353 231.941 96.3368 231.941 104.921V104.921Z" fill="black"/>
<path d="M285.449 81.5222C281.193 86.7439 259.949 125.127 255.732 132.768C254.681 134.675 254.715 136.996 255.822 138.872C256.929 140.747 258.945 141.898 261.122 141.898H292.493C292.453 147.557 292.409 153.008 292.368 157.861C292.339 161.261 295.071 164.04 298.471 164.07H298.525C301.9 164.07 304.65 161.349 304.68 157.967C304.704 155.081 304.754 149.152 304.806 141.898H308.297C311.697 141.898 314.452 139.142 314.452 135.742C314.452 132.341 311.697 129.586 308.297 129.586H304.889C305.003 110.99 305.074 90.2157 304.845 87.4867C304.425 82.4406 301.461 78.345 297.293 77.0548C295.323 76.4458 290.228 75.6595 285.449 81.5222ZM292.574 129.586H271.574C279.976 114.5 288.464 99.6143 292.663 92.8208C292.718 99.9451 292.664 114.525 292.574 129.586Z" fill="black"/>
</g>
<defs>
<filter id="filter0_d" x="0" y="0" width="427" height="427" filterUnits="userSpaceOnUse" color-interpolation-filters="sRGB">
<feFlood flood-opacity="0" result="BackgroundImageFix"/>
<feColorMatrix in="SourceAlpha" type="matrix" values="0 0 0 0 0 0 0 0 0 0 0 0 0 0 0 0 0 0 127 0"/>
<feOffset dy="4"/>
<feGaussianBlur stdDeviation="2"/>
<feColorMatrix type="matrix" values="0 0 0 0 0 0 0 0 0 0 0 0 0 0 0 0 0 0 0.25 0"/>
<feBlend mode="normal" in2="BackgroundImageFix" result="effect1_dropShadow"/>
<feBlend mode="normal" in="SourceGraphic" in2="effect1_dropShadow" result="shape"/>
</filter>
<clipPath id="clip0">
<rect width="419" height="419" fill="white" transform="translate(4)"/>
</clipPath>
</defs>
</svg>
