<svg width="43" height="43" viewBox="0 0 43 43" fill="none" xmlns="http://www.w3.org/2000/svg">
<g clip-path="url(#clip0)">
<path fill-rule="evenodd" clip-rule="evenodd" d="M25.8438 21.5008L42.1007 5.2437C43.3016 4.04277 43.3016 2.10162 42.1007 0.900696C40.8998 -0.300232 38.9586 -0.300232 37.758 0.900696L21.5008 17.1578L5.2437 0.900696C4.04277 -0.300232 2.10163 -0.300232 0.900696 0.900696C-0.300232 2.10162 -0.300232 4.04277 0.900696 5.2437L17.1578 21.5008L0.900696 37.758C-0.300232 38.9586 -0.300232 40.8998 0.900696 42.1007C1.49963 42.6996 2.28591 43.0006 3.0722 43.0006C3.85848 43.0006 4.64477 42.6996 5.2437 42.1007L21.5008 25.8438L37.758 42.1007C38.3566 42.6996 39.1432 43.0006 39.9292 43.0006C40.7155 43.0006 41.5018 42.6996 42.1007 42.1007C43.3016 40.8998 43.3016 38.9586 42.1007 37.758L25.8438 21.5008Z" fill="white"/>
</g>
<defs>
<clipPath id="clip0">
<rect width="43" height="43" fill="white"/>
</clipPath>
</defs>
</svg>
