<svg width="120" height="79" viewBox="0 0 120 79" fill="none" xmlns="http://www.w3.org/2000/svg">
<path d="M86.007 47.3327C88.8962 47.3327 91.2383 44.9906 91.2383 42.1014C91.2383 39.2122 88.8962 36.8701 86.007 36.8701C83.1179 36.8701 80.7758 39.2122 80.7758 42.1014C80.7758 44.9906 83.1179 47.3327 86.007 47.3327Z" fill="white"/>
<path d="M119.936 54.5068C119.637 47.6314 118.441 40.0086 116.647 32.8343C114.854 25.9589 112.612 19.5319 109.921 14.5996C99.4588 -3.78463 88.0994 -0.944796 74.4981 2.64237C70.1636 3.68862 65.5302 4.88434 60.7473 5.33274H59.2527C54.4698 4.88434 49.8364 3.68862 45.5019 2.64237C31.9006 -0.795331 20.5412 -3.78463 10.0787 14.749C7.38829 19.6814 4.99685 26.1084 3.35273 32.9838C1.55915 40.1581 0.363429 47.7808 0.064499 54.6562C-0.234431 62.2789 0.512894 67.8092 2.15701 71.6952C3.80113 75.2824 6.19257 77.5244 9.33134 78.4212C12.1712 79.1685 15.4594 78.8696 18.8971 77.3749C24.7262 74.9835 31.4522 69.9017 38.0286 63.7736C42.6621 59.2896 51.331 57.0477 60 57.0477C68.669 57.0477 77.338 59.2896 81.9714 63.7736C88.5478 69.9017 95.2738 74.9835 101.103 77.3749C104.541 78.7201 107.829 79.1685 110.669 78.4212C113.658 77.5244 116.199 75.4319 117.843 71.5458C119.487 67.8092 120.234 62.2789 119.936 54.5068ZM112.761 69.4533C111.864 71.5458 110.669 72.7415 109.174 73.1899C107.53 73.6383 105.437 73.3394 103.046 72.4426C97.8147 70.3501 91.6866 65.7166 85.708 60.037C80.0283 54.3573 70.0142 51.5175 60 51.5175C49.9858 51.5175 39.9717 54.3573 34.1425 59.738C28.0145 65.4177 21.8864 70.2006 16.8046 72.1436C14.4131 73.0404 12.3206 73.4888 10.6765 72.891C9.18187 72.4426 7.98615 71.2468 7.08936 69.1543C5.89364 66.3145 5.29578 61.6811 5.59471 54.8057C5.89364 48.3787 6.93989 41.0549 8.73347 34.1795C10.3776 27.7525 12.4701 21.7739 15.011 17.2899C23.2316 2.4929 32.7974 4.88434 44.1567 7.87364C48.7901 9.06937 53.573 10.2651 58.8043 10.7135C58.9538 10.7135 58.9538 10.7135 59.1032 10.7135H60.7473C60.8968 10.7135 60.8968 10.7135 61.0463 10.7135C66.427 10.2651 71.2099 9.06937 75.8433 7.87364C87.2027 5.03381 96.7684 2.4929 104.989 17.2899C107.53 21.7739 109.622 27.603 111.267 34.1795C112.911 41.0549 114.106 48.2292 114.405 54.8057C114.704 61.6811 114.106 66.3145 112.761 69.4533Z" fill="white"/>
<path d="M46.2493 25.3615C44.7546 24.0163 42.9611 22.97 40.8685 22.8206C40.7191 20.8775 39.8223 18.9345 38.4771 17.5893L38.3276 17.4398C36.6835 15.7957 34.591 14.8989 32.1996 14.8989C29.8081 14.8989 27.5661 15.9452 26.0715 17.4398C24.7263 18.785 23.6801 20.7281 23.5306 22.8206C21.4381 22.97 19.6445 23.8668 18.1498 25.212L18.0004 25.3615C16.3563 27.0056 15.4595 29.0981 15.4595 31.4895C15.4595 33.881 16.5057 36.123 18.0004 37.6176C19.495 39.1123 21.2886 40.0091 23.5306 40.1585C23.6801 42.251 24.5768 44.1941 26.0715 45.5393C27.7156 47.1834 29.8081 48.0802 32.1996 48.0802C34.591 48.0802 36.833 47.0339 38.3276 45.5393C39.6728 44.0446 40.7191 42.251 40.8685 40.1585C42.9611 40.0091 44.9041 39.1123 46.2493 37.6176C47.8934 35.9735 48.7902 33.881 48.7902 31.4895C48.7902 29.0981 47.7439 26.8561 46.2493 25.3615ZM42.5127 33.7315C41.9148 34.3294 41.1675 34.6283 40.2707 34.6283H38.1782C36.6835 34.6283 35.3383 35.824 35.3383 37.4682V39.4112C35.3383 40.308 35.0394 41.0553 34.4415 41.6532C33.8437 42.251 33.0964 42.55 32.1996 42.55C31.3028 42.55 30.5554 42.251 29.9576 41.6532C29.3597 41.0553 29.0608 40.308 29.0608 39.4112V37.3187C29.0608 35.824 27.8651 34.4789 26.221 34.4789H24.1284C23.2317 34.4789 22.4843 34.1799 21.8865 33.5821C21.4381 33.1337 20.9897 32.3863 20.9897 31.4895C20.9897 30.5928 21.2886 29.8454 21.8865 29.2476C21.8865 29.2476 21.8865 29.2476 22.0359 29.0981C22.6338 28.6497 23.3811 28.3508 24.1284 28.3508H26.221C27.7156 28.3508 29.0608 27.1551 29.0608 25.5109V23.4184C29.0608 22.5216 29.3597 21.7743 29.9576 21.1765C30.5554 20.5786 31.3028 20.2797 32.1996 20.2797C33.0964 20.2797 33.8437 20.5786 34.4415 21.1765C34.4415 21.1765 34.4415 21.1765 34.591 21.3259C35.0394 21.9238 35.3383 22.6711 35.3383 23.4184V25.5109C35.3383 27.0056 36.534 28.3508 38.1782 28.3508H40.2707C41.1675 28.3508 41.9148 28.6497 42.5127 29.2476C43.1105 29.8454 43.4094 30.5928 43.4094 31.4895C43.4094 32.3863 43.1105 33.1337 42.5127 33.7315Z" fill="white"/>
<path d="M86.007 26.1086C88.8962 26.1086 91.2383 23.7664 91.2383 20.8773C91.2383 17.9881 88.8962 15.646 86.007 15.646C83.1179 15.646 80.7758 17.9881 80.7758 20.8773C80.7758 23.7664 83.1179 26.1086 86.007 26.1086Z" fill="white"/>
<path d="M75.395 36.7209C78.2841 36.7209 80.6263 34.3787 80.6263 31.4896C80.6263 28.6004 78.2841 26.2583 75.395 26.2583C72.5058 26.2583 70.1637 28.6004 70.1637 31.4896C70.1637 34.3787 72.5058 36.7209 75.395 36.7209Z" fill="white"/>
<path d="M96.619 36.7209C99.5081 36.7209 101.85 34.3787 101.85 31.4896C101.85 28.6004 99.5081 26.2583 96.619 26.2583C93.7298 26.2583 91.3877 28.6004 91.3877 31.4896C91.3877 34.3787 93.7298 36.7209 96.619 36.7209Z" fill="white"/>
</svg>
