<svg width="98" height="130" viewBox="0 0 98 130" fill="none" xmlns="http://www.w3.org/2000/svg">
<path d="M82.4533 79.9459H81.3842L83.0001 56.8066H88.8046C92.8862 56.8066 96.1949 60.2963 96.1949 64.6008V65.4534C96.1949 73.4576 90.0425 79.9459 82.4533 79.9459V79.9459Z" fill="#F9A58E"/>
<path d="M15.547 79.9459H16.6164L15.0005 56.8066H9.19597C5.11429 56.8066 1.80566 60.2963 1.80566 64.6008V65.4534C1.80542 73.4576 7.95779 79.9459 15.547 79.9459V79.9459Z" fill="#EAAC9D"/>
<path d="M66.5903 113.691V107.058C60.4237 111.507 53.6139 114.055 49.0001 114.055C44.3864 114.055 37.5765 111.507 31.41 107.058V113.691C31.41 117.388 29.3997 120.756 26.2396 122.355L18.8052 126.118C17.8593 126.596 18.1827 128.095 19.2318 128.095H78.7684C79.8176 128.095 80.1409 126.596 79.195 126.118L71.7606 122.355C68.6006 120.757 66.5903 117.388 66.5903 113.691V113.691Z" fill="#FFCBBE"/>
<path d="M83.447 50.4035C84.9213 29.2883 69.0754 11.3003 49.0002 11.3003C28.925 11.3003 13.0791 29.2883 14.5534 50.4035L16.9019 84.0357C18.1401 101.767 38.8673 114.055 49.0002 114.055C59.1331 114.055 79.86 101.767 81.0984 84.0357L83.447 50.4035Z" fill="#FFCBBE"/>
<path d="M59.4258 12.9858C68.8717 20.1067 74.7399 32.1025 73.8167 45.3247L71.4682 78.9569C70.23 96.6882 49.5031 108.976 39.3699 108.976C37.2669 108.976 34.7075 108.447 31.9608 107.45C37.9788 111.656 44.5234 114.054 48.9999 114.054C59.1328 114.054 79.8597 101.766 81.0982 84.035L83.4467 50.4028C84.6538 33.1168 74.2527 17.9266 59.4258 12.9858V12.9858Z" fill="#EAAC9D"/>
<path d="M76.2595 45.7184C75.8466 39.1676 73.3416 33.0319 69.0134 28.1186C67.5793 26.4908 66.0038 25.0635 64.3135 23.8494C63.0081 27.7415 60.3864 31.0811 56.7987 33.1543C55.0061 34.1905 53.8921 36.0922 53.8921 38.1179V38.3934C53.8921 41.2382 51.6977 43.5528 49.0001 43.5528C46.3027 43.5528 44.1083 41.2382 44.1083 38.3934V38.1179C44.1083 32.3222 47.1694 26.9529 52.0976 24.105C53.7414 23.1552 54.8758 21.5332 55.288 19.6731C53.2561 19.1739 51.1505 18.9175 49.0001 18.9175C46.6961 18.9175 44.4437 19.2118 42.2779 19.7838C41.6204 21.8156 39.7926 23.2809 37.6466 23.2809C36.841 23.2809 36.0805 23.0744 35.4097 22.7091C33.06 24.1363 30.8978 25.9489 28.987 28.118C24.6588 33.0314 22.1538 39.1671 21.7409 45.7178C21.6001 47.9507 23.2817 49.8438 25.4034 49.8438H72.5972C74.7187 49.8441 76.4003 47.951 76.2595 45.7184V45.7184Z" fill="#DD5790"/>
<path d="M76.2595 45.7176C75.8466 39.1668 73.3416 33.0312 69.0134 28.1178C67.5793 26.49 66.0038 25.0628 64.3135 23.8486C63.8845 25.1283 63.3129 26.3481 62.6116 27.4828C64.9609 31.4562 66.3331 35.9409 66.6295 40.6395C66.7703 42.8723 65.0887 44.7655 62.967 44.7655H21.8158C21.7859 45.0818 21.7606 45.3992 21.7407 45.7176C21.5998 47.9505 23.2815 49.8436 25.4032 49.8436H72.597C74.7187 49.8434 76.4003 47.9502 76.2595 45.7176V45.7176Z" fill="#DA387D"/>
<path d="M49.0001 43.5526C46.3608 43.5526 44.2133 41.2878 44.2133 38.5042V38.2345C44.2133 32.5635 47.2087 27.3094 52.0309 24.5226C54.2911 23.2165 55.5668 20.6121 55.2815 17.8877C54.9626 14.8375 52.6318 12.3795 49.7397 12.0425C49.4934 12.0138 49.2445 11.9994 48.9999 11.9994C47.4184 11.9994 45.9609 12.5867 44.7846 13.6975C43.4455 14.9625 42.6773 16.7738 42.6773 18.6675C42.6773 21.4513 40.5301 23.7162 37.8905 23.7162C35.2511 23.7162 33.1036 21.4513 33.1036 18.6675C33.1036 13.907 35.033 9.35418 38.397 6.17628C41.3135 3.42164 45.0894 1.9043 49.0295 1.9043C49.6157 1.9043 50.2082 1.93883 50.7908 2.00688C58.0998 2.85797 63.9907 9.07081 64.7979 16.7797C65.5103 23.5839 62.3047 30.0989 56.6312 33.3776C54.8771 34.3914 53.787 36.2526 53.787 38.2345V38.5042C53.7872 41.2878 51.6397 43.5526 49.0001 43.5526V43.5526Z" fill="#756E78"/>
<path d="M42.6774 18.668C42.6774 16.7743 43.4456 14.963 44.7846 13.698C45.961 12.5872 47.4187 11.9999 48.9999 11.9999C49.0743 11.9999 49.149 12.0014 49.2238 12.0039C48.2067 10.6707 46.7128 9.75457 45.0283 9.5583C44.782 9.52961 44.5331 9.51514 44.2885 9.51514C42.707 9.51514 41.2495 10.1024 40.0732 11.2133C38.7341 12.4782 37.9659 14.2896 37.9659 16.1832C37.9659 18.7639 36.1205 20.8983 33.7487 21.1964C34.578 22.702 36.1241 23.7164 37.8908 23.7164C40.5299 23.7166 42.6774 21.4518 42.6774 18.668V18.668Z" fill="#665E66"/>
<path d="M64.7979 16.7795C64.0978 10.0941 59.5741 4.53381 53.618 2.62012C57.1413 5.32879 59.5869 9.52537 60.0864 14.295C60.7988 21.0992 57.5932 27.6142 51.9197 30.8929C50.1656 31.9067 49.0755 33.7679 49.0755 35.7499V36.0195C49.0755 38.6 47.2301 40.7346 44.858 41.0324C45.6874 42.5381 47.2335 43.5524 49.0001 43.5524C51.6397 43.5524 53.7872 41.2876 53.7872 38.504V38.2343C53.7872 36.2521 54.8773 34.391 56.6314 33.3774C62.305 30.0987 65.5105 23.5837 64.7979 16.7795V16.7795Z" fill="#665E66"/>
<path d="M53.8922 48.7147C53.8922 45.8638 51.7009 43.5527 48.9977 43.5527C46.2946 43.5527 44.1033 45.8638 44.1033 48.7147C44.1033 49.1026 44.144 49.4807 44.221 49.844H53.7747C53.8515 49.4804 53.8922 49.1026 53.8922 48.7147V48.7147Z" fill="#756E78"/>
<path d="M88.8043 54.9023H84.9432L85.2475 50.5432C86.3058 35.3865 78.8115 21.0621 66.123 13.9047C65.7544 12.431 65.2115 11.0086 64.4987 9.65404C64.0147 8.73439 62.9164 8.40254 62.0437 8.91289C61.172 9.42324 60.8573 10.5826 61.3412 11.502C62.2419 13.2138 62.8009 15.06 63.0029 16.9884C63.6351 23.023 60.7933 28.8004 55.7635 31.7071C53.4306 33.0554 51.9813 35.5563 51.9813 38.2343V38.5039C51.9813 40.2376 50.6437 41.6481 48.9999 41.6481C47.356 41.6481 46.0187 40.2376 46.0187 38.5039V38.2343C46.0187 33.259 48.6546 28.6447 52.8983 26.1925C55.802 24.5144 57.4418 21.1725 57.0763 17.6788C56.6651 13.7501 53.6627 10.5838 49.9374 10.1497C49.6256 10.1134 49.3104 10.0951 48.9996 10.0951C46.9667 10.0951 45.0925 10.8502 43.5796 12.2789C41.8585 13.9047 40.8712 16.2333 40.8712 18.6675C40.8712 20.4012 39.5338 21.8119 37.89 21.8119C37.2833 21.8119 36.7187 21.6197 36.2473 21.2901C36.2262 21.2741 36.2047 21.2586 36.1828 21.2436C35.4129 20.6746 34.9088 19.7319 34.9088 18.6672C34.9088 14.4475 36.6191 10.4117 39.6012 7.5946C42.1864 5.15329 45.5348 3.8086 49.0295 3.8086C49.5498 3.8086 50.0755 3.83932 50.5927 3.8995C52.5998 4.13335 54.5025 4.8161 56.2481 5.92948C57.1016 6.47361 58.2115 6.18517 58.7276 5.28507C59.2438 4.38522 58.9701 3.21446 58.1168 2.67034C55.919 1.26903 53.5209 0.40879 50.9897 0.114004C50.3416 0.0383399 49.6822 0 49.0295 0C44.6442 0 40.4405 1.68975 37.1923 4.75796C34.5936 7.21273 32.7639 10.4046 31.8866 13.8991C19.1859 21.0557 11.6925 35.3618 12.7525 50.5432L13.0568 54.9023H9.19593C4.12501 54.9023 0 59.253 0 64.6007V65.4531C0 74.2792 6.64639 81.499 14.9381 81.8374L15.1013 84.1752C15.2441 86.2206 15.635 88.273 16.2629 90.275C16.5138 91.0751 17.2194 91.5816 17.9768 91.5816C18.1646 91.5816 18.3558 91.5504 18.544 91.4849C19.4909 91.1546 20.0042 90.0775 19.6912 89.0789C19.1562 87.3734 18.8235 85.6295 18.7027 83.8954L18.4188 79.8298C18.4179 79.8123 18.4167 79.795 18.4152 79.7775L16.8022 56.6788C16.8015 56.6679 16.8007 56.6573 16.8 56.6463L16.3544 50.2631C15.4653 37.5294 21.258 25.4788 31.2985 18.6761C31.3002 20.0812 31.6991 21.3901 32.3831 22.4842C30.6817 23.7385 29.1007 25.1914 27.6644 26.8217C26.9859 27.5923 27.0276 28.7971 27.7585 29.5131C28.1061 29.8538 28.5469 30.0222 28.987 30.0222C29.4717 30.0222 29.9549 29.8178 30.3104 29.4141C31.7954 27.7284 33.4546 26.2603 35.2533 25.0393C36.0615 25.4128 36.9537 25.6202 37.8909 25.6202C40.6307 25.6202 42.9852 23.8482 43.979 21.334C46.8801 20.7345 49.9335 20.6642 52.8675 21.1238C52.4636 21.8352 51.8833 22.4362 51.1637 22.8521C45.7632 25.9731 42.4084 31.8671 42.4084 38.234V38.5037C42.4084 40.4781 43.1927 42.263 44.4502 43.5298C43.2967 44.6561 42.5186 46.2042 42.3383 47.9391H25.4035C24.3254 47.9391 23.471 46.9794 23.5427 45.8439C23.7481 42.588 24.5026 39.448 25.7858 36.5105C26.203 35.5553 25.8072 34.4242 24.9015 33.9842C23.9953 33.5436 22.923 33.9618 22.506 34.917C21.0375 38.2782 20.1739 41.8695 19.9394 45.5915C19.73 48.9182 22.2395 51.748 25.4035 51.748H72.5972C75.7583 51.748 78.2715 48.9215 78.0613 45.5915C77.6171 38.5451 74.9462 32.0547 70.3366 26.8219C69.0784 25.3937 67.7004 24.094 66.2323 22.9501C66.5405 21.5656 66.701 20.1333 66.7022 18.6771C76.7379 25.4816 82.5342 37.5472 81.6463 50.2634L81.2002 56.6499C81.1995 56.658 81.199 56.6664 81.1985 56.6748L79.2976 83.8959C78.1576 100.219 58.6961 112.151 49.0001 112.151C41.9642 112.151 30.0264 105.896 23.4693 96.5854C22.8746 95.7409 21.7436 95.5652 20.9433 96.1921C20.1428 96.8192 19.9755 98.0118 20.5704 98.8563C23.0771 102.416 26.2273 105.518 29.6043 108.067V113.692C29.6043 116.638 27.9769 119.365 25.4586 120.639L18.024 124.401C16.8414 125 16.2186 126.36 16.5094 127.709C16.8005 129.058 17.9198 130 19.2318 130H78.7684C80.0802 130 81.1997 129.058 81.4906 127.709C81.7816 126.36 81.1588 125 79.9762 124.401L72.5416 120.639C70.0231 119.364 68.3957 116.637 68.3957 113.691V108.04C75.8642 102.393 82.2082 94.0648 82.8987 84.1752L83.0619 81.8374C91.3536 81.499 98 74.2794 98 65.4531V64.6007C98.0002 59.2532 93.875 54.9023 88.8043 54.9023V54.9023ZM3.61125 65.4534V64.601C3.61125 61.3533 6.1165 58.7111 9.19593 58.7111H13.3229L14.6704 78.008C8.49679 77.533 3.61125 72.0836 3.61125 65.4534ZM44.6601 17.3489C44.8936 16.4968 45.3506 15.7196 45.9891 15.1163C46.829 14.3231 47.87 13.9039 48.9999 13.9039C49.1788 13.9039 49.361 13.9146 49.5416 13.9357C51.358 14.1472 52.8637 15.5348 53.3488 17.3497C50.4848 16.9061 47.5262 16.9061 44.6601 17.3489V17.3489ZM48.9977 45.4569C50.4477 45.4569 51.6679 46.5162 51.9982 47.9396H45.997C46.3278 46.5162 47.5477 45.4569 48.9977 45.4569ZM67.6905 29.4146C71.7291 33.9994 74.0694 39.6805 74.4578 45.8444C74.5293 46.9788 73.6765 47.9396 72.597 47.9396H55.6578C55.4777 46.206 54.7006 44.6589 53.5486 43.5326C54.8075 42.2656 55.5928 40.4796 55.5928 38.5039V38.2343C55.5928 36.948 56.3233 35.727 57.4993 35.0473C60.8349 33.1196 63.4044 30.1875 64.97 26.7344C65.9304 27.5532 66.8412 28.4503 67.6905 29.4146V29.4146ZM70.9794 124.073L75.1663 126.192H22.8344L27.0211 124.073C30.7845 122.169 33.2158 118.094 33.2158 113.692V110.537C38.8542 114.016 44.7044 115.959 49.0001 115.959C53.3033 115.959 59.1528 113.999 64.7844 110.515V113.692C64.7844 118.094 67.2162 122.169 70.9794 124.073V124.073ZM94.389 65.4534C94.389 72.0836 89.5034 77.533 83.3294 78.0078L84.6771 58.7109H88.8043C91.8837 58.7109 94.389 61.353 94.389 64.6007V65.4534Z" fill="#222221"/>
<path d="M44.1919 60.5029H29.8034C28.806 60.5029 27.9978 61.3555 27.9978 62.4072C27.9978 63.4589 28.806 64.3115 29.8034 64.3115H44.1919C45.1893 64.3115 45.9975 63.4589 45.9975 62.4072C45.9975 61.3555 45.1893 60.5029 44.1919 60.5029V60.5029Z" fill="#222221"/>
<path d="M55.614 77.4695V67.4783C55.614 65.7321 56.961 64.3115 58.6166 64.3115H68.1968C69.1942 64.3115 70.0024 63.4589 70.0024 62.4072C70.0024 61.3555 69.1942 60.5029 68.1968 60.5029H58.6166C54.97 60.5029 52.0027 63.6321 52.0027 67.4783V77.4695C52.0027 79.2156 50.6557 80.6362 49.0001 80.6362C48.0027 80.6362 47.1945 81.4888 47.1945 82.5405C47.1945 83.5922 48.0027 84.4448 49.0001 84.4448C52.6467 84.4448 55.614 81.3157 55.614 77.4695Z" fill="#222221"/>
<path d="M37.5963 96.6318C37.5963 97.6835 38.4045 98.5361 39.4019 98.5361H58.5984C59.5958 98.5361 60.404 97.6835 60.404 96.6318C60.404 95.5802 59.5958 94.7275 58.5984 94.7275H39.4019C38.4045 94.7275 37.5963 95.5802 37.5963 96.6318Z" fill="#222221"/>
</svg>
