<svg width="522" height="522" viewBox="0 0 522 522" fill="none" xmlns="http://www.w3.org/2000/svg">
<rect width="522" height="522" fill="#1D1D1D"/>
<g opacity="0.2" clip-path="url(#clip0)">
<g opacity="0.5">
<path fill-rule="evenodd" clip-rule="evenodd" d="M198.348 128.739C198.348 115.863 187.813 105.328 174.938 105.328C162.062 105.328 151.527 115.863 151.527 128.739V140.445C151.527 146.429 153.802 151.908 157.531 156.058C161.826 160.838 168.046 163.855 174.938 163.855C181.829 163.855 188.049 160.837 192.344 156.058C196.072 151.908 198.348 146.429 198.348 140.445V128.739Z" fill="#FFDCD5"/>
<path fill-rule="evenodd" clip-rule="evenodd" d="M192.344 156.058C188.05 160.838 181.829 163.855 174.938 163.855C168.046 163.855 161.825 160.837 157.532 156.057C143.639 162.631 133.968 176.799 133.968 193.118V207.844H215.907V193.118C215.907 176.8 206.236 162.632 192.344 156.058Z" fill="#FFC144"/>
<path fill-rule="evenodd" clip-rule="evenodd" d="M238.219 207.845H111.656C108.176 207.845 105.328 210.693 105.328 214.173V233.158C105.328 236.638 108.175 239.486 111.656 239.486H238.219C241.699 239.486 244.547 236.638 244.547 233.158V214.173C244.547 210.693 241.699 207.845 238.219 207.845Z" fill="#E3EAEF"/>
<path fill-rule="evenodd" clip-rule="evenodd" d="M238.218 239.486H111.656L124.313 416.673H225.562L238.218 239.486ZM142.349 286.542C147.29 281.6 155.304 281.6 160.245 286.542L167.688 293.985L189.628 272.045C194.57 267.103 202.583 267.103 207.524 272.045C212.466 276.987 212.466 284.999 207.524 289.941L176.636 320.83C171.694 325.771 163.681 325.771 158.739 320.83L142.348 304.439C137.407 299.497 137.407 291.484 142.349 286.542Z" fill="#6D91AC"/>
<path fill-rule="evenodd" clip-rule="evenodd" d="M189.629 272.044L167.688 293.984L160.246 286.542C155.304 281.6 147.291 281.6 142.349 286.542C137.408 291.483 137.408 299.497 142.349 304.438L158.741 320.829C163.682 325.771 171.695 325.771 176.637 320.829L207.526 289.941C212.468 284.999 212.468 276.986 207.526 272.044C202.584 267.102 194.571 267.102 189.629 272.044Z" fill="#CBE558"/>
<path fill-rule="evenodd" clip-rule="evenodd" d="M283.782 239.486H410.344C413.825 239.486 416.672 236.638 416.672 233.158V214.173C416.672 210.693 413.825 207.845 410.344 207.845H283.782C280.301 207.845 277.454 210.693 277.454 214.173V233.158C277.454 236.638 280.301 239.486 283.782 239.486Z" fill="#E3EAEF"/>
<path fill-rule="evenodd" clip-rule="evenodd" d="M410.344 239.484H283.782L296.439 416.671H397.688L410.344 239.484ZM320.215 269.588C325.137 264.666 333.191 264.666 338.113 269.588L347.062 278.538L356.011 269.588C360.933 264.666 368.988 264.666 373.91 269.588C378.832 274.51 378.832 282.565 373.91 287.487L364.961 296.436L373.91 305.385C378.832 310.307 378.832 318.362 373.91 323.284C368.988 328.206 360.934 328.206 356.012 323.284L347.063 314.334L338.114 323.284C333.192 328.206 325.137 328.206 320.215 323.284C315.293 318.362 315.293 310.307 320.215 305.385L329.164 296.436L320.215 287.487C315.293 282.565 315.293 274.51 320.215 269.588Z" fill="#6D91AC"/>
<path fill-rule="evenodd" clip-rule="evenodd" d="M356.012 269.589L347.063 278.538L338.114 269.589C333.192 264.667 325.137 264.667 320.215 269.589C315.293 274.511 315.293 282.566 320.215 287.488L329.164 296.437L320.215 305.386C315.293 310.308 315.293 318.363 320.215 323.285C325.137 328.207 333.191 328.207 338.113 323.285L347.062 314.335L356.012 323.285C360.934 328.207 368.988 328.207 373.91 323.285C378.832 318.363 378.832 310.308 373.91 305.386L364.961 296.437L373.911 287.488C378.833 282.566 378.833 274.511 373.911 269.589C368.989 264.667 360.934 264.667 356.012 269.589Z" fill="#FF5D7D"/>
<path fill-rule="evenodd" clip-rule="evenodd" d="M370.474 128.739C370.474 115.863 359.939 105.328 347.063 105.328C334.187 105.328 323.652 115.863 323.652 128.739V140.445C323.652 146.429 325.928 151.908 329.657 156.058C333.95 160.838 340.172 163.855 347.063 163.855C353.954 163.855 360.175 160.837 364.469 156.058C368.198 151.908 370.474 146.429 370.474 140.445V128.739Z" fill="#FFDCD5"/>
<path fill-rule="evenodd" clip-rule="evenodd" d="M364.469 156.058C360.175 160.838 353.954 163.855 347.063 163.855C340.172 163.855 333.951 160.837 329.658 156.057C315.765 162.631 306.094 176.799 306.094 193.118V207.844H388.032V193.118C388.032 176.8 378.361 162.632 364.469 156.058Z" fill="#60A4FF"/>
</g>
<path d="M238.218 201.516H222.234V193.118C222.234 177.225 214.389 162.724 201.41 153.968C203.493 149.908 204.676 145.313 204.676 140.445V128.739C204.676 112.341 191.335 99 174.937 99C158.539 99 145.198 112.341 145.198 128.739V140.445C145.198 145.313 146.382 149.907 148.464 153.967C135.483 162.722 127.64 177.22 127.64 193.118V201.516H111.656C104.678 201.516 99 207.194 99 214.173V233.157C99 237.966 101.696 242.155 105.656 244.296L118.001 417.122C118.238 420.434 120.994 423 124.314 423H225.562C228.882 423 231.638 420.435 231.874 417.122L244.22 244.296C248.179 242.155 250.876 237.965 250.876 233.157V214.173C250.874 207.194 245.197 201.516 238.218 201.516ZM157.854 128.739C157.854 119.32 165.517 111.656 174.937 111.656C184.357 111.656 192.02 119.32 192.02 128.739V140.445C192.02 149.865 184.357 157.528 174.937 157.528C165.518 157.528 157.854 149.865 157.854 140.445V128.739ZM140.297 193.118C140.297 181.082 146.449 170.137 156.558 163.798C161.621 167.792 168.003 170.184 174.938 170.184C181.872 170.184 188.253 167.792 193.317 163.798C203.426 170.137 209.578 181.087 209.578 193.118V201.516H140.297V193.118ZM219.669 410.344H130.206L118.453 245.813H146.463C149.958 245.813 152.791 242.98 152.791 239.485C152.791 235.99 149.958 233.157 146.463 233.157H111.656V214.173H238.218V233.157H203.416C199.922 233.157 197.088 235.99 197.088 239.485C197.088 242.98 199.922 245.813 203.416 245.813H231.422L219.669 410.344Z" fill="black"/>
<path d="M198.577 262.009C193.506 262.009 188.739 263.984 185.153 267.569L167.688 285.035L164.721 282.067C161.135 278.481 156.368 276.507 151.297 276.507C146.226 276.507 141.459 278.481 137.874 282.067C134.289 285.652 132.314 290.419 132.314 295.49C132.314 300.561 134.289 305.328 137.874 308.913L154.265 325.304C157.966 329.004 162.827 330.855 167.688 330.855C172.549 330.855 177.41 329.004 181.111 325.304L212 294.415C219.401 287.014 219.401 274.97 212 267.569C208.414 263.984 203.647 262.009 198.577 262.009ZM203.051 285.466L172.162 316.355C169.696 318.822 165.681 318.823 163.214 316.355L146.824 299.964C145.629 298.769 144.97 297.181 144.97 295.491C144.97 293.801 145.629 292.212 146.824 291.017C148.019 289.822 149.607 289.164 151.297 289.164C152.988 289.164 154.577 289.822 155.771 291.017L163.213 298.459C164.4 299.646 166.01 300.313 167.688 300.313C169.366 300.313 170.975 299.646 172.162 298.459L194.103 276.519C196.569 274.052 200.583 274.052 203.05 276.519C205.517 278.986 205.517 283 203.051 285.466Z" fill="black"/>
<path d="M410.344 201.516H394.36V193.118C394.36 177.225 386.515 162.723 373.535 153.968C375.618 149.908 376.801 145.313 376.801 140.445V128.739C376.801 112.341 363.46 99 347.062 99C330.664 99 317.324 112.341 317.324 128.739V140.445C317.324 145.313 318.507 149.907 320.589 153.967C307.609 162.722 299.765 177.22 299.765 193.118V201.516H283.782C276.803 201.516 271.126 207.194 271.126 214.173V233.157C271.126 237.966 273.822 242.155 277.782 244.296L290.127 417.122C290.364 420.434 293.12 423 296.439 423H397.688C401.007 423 403.763 420.435 404 417.122L416.346 244.296C420.305 242.155 423.001 237.965 423.001 233.157V214.173C423 207.194 417.323 201.516 410.344 201.516ZM329.98 128.739C329.98 119.32 337.643 111.656 347.062 111.656C356.482 111.656 364.145 119.32 364.145 128.739V140.445C364.145 149.865 356.482 157.528 347.063 157.528C337.644 157.528 329.98 149.865 329.98 140.445V128.739ZM312.422 193.118C312.422 181.083 318.574 170.137 328.684 163.798C333.747 167.792 340.129 170.184 347.063 170.184C353.997 170.184 360.379 167.792 365.442 163.798C375.551 170.137 381.704 181.087 381.704 193.118V201.516H312.422V193.118ZM410.344 214.172V233.156H283.782L283.781 214.172H410.344ZM391.794 410.344H302.331L290.578 245.813H403.548L391.794 410.344Z" fill="black"/>
<path d="M378.385 265.114C370.983 257.713 358.94 257.712 351.537 265.114L347.063 269.589L342.588 265.114C339.013 261.538 334.245 259.569 329.165 259.569C324.084 259.569 319.316 261.538 315.74 265.114C308.338 272.516 308.338 284.56 315.74 291.962L320.214 296.436L315.74 300.911C308.338 308.313 308.338 320.357 315.74 327.759C319.316 331.334 324.084 333.304 329.165 333.304C334.245 333.304 339.013 331.334 342.588 327.759L347.063 323.284L351.537 327.759C355.238 331.46 360.1 333.31 364.962 333.31C369.823 333.31 374.684 331.46 378.385 327.759C385.787 320.357 385.787 308.313 378.385 300.911L373.911 296.437L378.385 291.963C385.787 284.561 385.787 272.517 378.385 265.114ZM360.487 300.912L369.436 309.862C370.621 311.047 371.274 312.636 371.274 314.336C371.274 316.037 370.621 317.626 369.436 318.811C366.969 321.278 362.954 321.278 360.487 318.811L351.538 309.862C350.351 308.675 348.741 308.008 347.063 308.008C345.385 308.008 343.776 308.675 342.588 309.862L333.639 318.812C332.453 319.997 330.864 320.649 329.165 320.649C327.464 320.649 325.875 319.997 324.69 318.811C322.223 316.344 322.223 312.329 324.69 309.862L333.639 300.912C336.11 298.441 336.11 294.434 333.639 291.963L324.69 283.014C323.505 281.829 322.852 280.24 322.852 278.539C322.852 276.839 323.505 275.25 324.69 274.065C325.875 272.879 327.464 272.226 329.165 272.226C330.865 272.226 332.453 272.879 333.639 274.065L342.588 283.014C343.776 284.201 345.385 284.868 347.063 284.868C348.741 284.868 350.351 284.201 351.538 283.014L360.487 274.065C362.953 271.598 366.968 271.597 369.436 274.065C371.903 276.532 371.903 280.547 369.436 283.014L360.487 291.963C358.016 294.434 358.016 298.441 360.487 300.912Z" fill="black"/>
<path d="M174.942 245.814C178.437 245.814 181.271 242.981 181.271 239.486C181.271 235.991 178.437 233.158 174.942 233.158H174.937C171.443 233.158 168.612 235.991 168.612 239.486C168.612 242.981 171.447 245.814 174.942 245.814Z" fill="black"/>
</g>
<defs>
<clipPath id="clip0">
<rect width="324" height="324" fill="white" transform="translate(99 99)"/>
</clipPath>
</defs>
</svg>
