<svg width="522" height="522" viewBox="0 0 522 522" fill="none" xmlns="http://www.w3.org/2000/svg">
<rect width="522" height="522" fill="#1D1D1D"/>
<g opacity="0.1">
<path fill-rule="evenodd" clip-rule="evenodd" d="M203.308 141.931C203.308 129.838 193.414 119.944 181.321 119.944C169.228 119.944 159.333 129.838 159.333 141.931V152.925C159.333 158.546 161.471 163.692 164.973 167.589C169.006 172.078 174.849 174.912 181.321 174.912C187.793 174.912 193.636 172.078 197.669 167.589C201.17 163.692 203.308 158.546 203.308 152.925V141.931Z" fill="#FFDCD5"/>
<path fill-rule="evenodd" clip-rule="evenodd" d="M197.668 167.59C193.634 172.079 187.792 174.912 181.32 174.912C174.847 174.912 169.005 172.078 164.973 167.588C151.925 173.763 142.841 187.069 142.841 202.396V216.227H219.798V202.396C219.798 187.071 210.715 173.764 197.668 167.59V167.59Z" fill="#FFC144"/>
<path fill-rule="evenodd" clip-rule="evenodd" d="M240.754 216.228H121.887C118.618 216.228 115.943 218.902 115.943 222.171V240.001C115.943 243.27 118.617 245.944 121.887 245.944H240.754C244.022 245.944 246.697 243.27 246.697 240.001V222.171C246.697 218.902 244.022 216.228 240.754 216.228Z" fill="#E3EAEF"/>
<path fill-rule="evenodd" clip-rule="evenodd" d="M240.753 245.944H121.887L133.774 412.357H228.867L240.753 245.944ZM150.713 290.14C155.354 285.498 162.88 285.498 167.521 290.14L174.511 297.129L195.117 276.523C199.759 271.882 207.285 271.882 211.926 276.523C216.567 281.165 216.567 288.691 211.926 293.332L182.915 322.342C178.274 326.983 170.748 326.983 166.107 322.342L150.712 306.948C146.072 302.307 146.072 294.781 150.713 290.14V290.14Z" fill="#6D91AC"/>
<path fill-rule="evenodd" clip-rule="evenodd" d="M195.118 276.524L174.512 297.13L167.522 290.14C162.88 285.498 155.355 285.498 150.714 290.14C146.073 294.781 146.073 302.307 150.714 306.948L166.108 322.343C170.749 326.984 178.275 326.984 182.917 322.343L211.927 293.332C216.568 288.691 216.568 281.165 211.927 276.524C207.286 271.882 199.76 271.882 195.118 276.524V276.524Z" fill="#CBE558"/>
<path fill-rule="evenodd" clip-rule="evenodd" d="M283.546 245.944H402.413C405.682 245.944 408.356 243.27 408.356 240.001V222.171C408.356 218.902 405.682 216.228 402.413 216.228H283.546C280.277 216.228 277.603 218.902 277.603 222.171V240.001C277.603 243.27 280.276 245.944 283.546 245.944Z" fill="#E3EAEF"/>
<path fill-rule="evenodd" clip-rule="evenodd" d="M402.412 245.944H283.546L295.433 412.357H390.526L402.412 245.944ZM317.763 274.218C322.386 269.595 329.951 269.595 334.574 274.218L342.979 282.623L351.384 274.218C356.006 269.595 363.571 269.595 368.194 274.218C372.816 278.841 372.816 286.405 368.194 291.028L359.789 299.433L368.194 307.838C372.817 312.461 372.817 320.026 368.194 324.648C363.572 329.271 356.007 329.271 351.384 324.648L342.979 316.243L334.574 324.648C329.951 329.271 322.387 329.271 317.764 324.648C313.141 320.026 313.141 312.46 317.764 307.838L326.168 299.433L317.763 291.028C313.141 286.405 313.141 278.841 317.763 274.218Z" fill="#6D91AC"/>
<path fill-rule="evenodd" clip-rule="evenodd" d="M351.385 274.217L342.98 282.622L334.575 274.217C329.952 269.594 322.387 269.594 317.765 274.217C313.142 278.84 313.142 286.404 317.765 291.027L326.169 299.432L317.764 307.837C313.141 312.46 313.141 320.025 317.764 324.647C322.387 329.27 329.951 329.27 334.574 324.647L342.979 316.242L351.384 324.647C356.007 329.27 363.572 329.27 368.194 324.647C372.817 320.025 372.817 312.459 368.194 307.837L359.79 299.432L368.195 291.027C372.818 286.404 372.818 278.84 368.195 274.217C363.572 269.593 356.008 269.594 351.385 274.217Z" fill="#FF5D7D"/>
<path fill-rule="evenodd" clip-rule="evenodd" d="M364.967 141.931C364.967 129.838 355.073 119.944 342.98 119.944C330.887 119.944 320.992 129.838 320.992 141.931V152.925C320.992 158.546 323.129 163.692 326.632 167.589C330.664 172.078 336.507 174.912 342.98 174.912C349.452 174.912 355.294 172.078 359.327 167.589C362.829 163.692 364.967 158.546 364.967 152.925V141.931Z" fill="#FFDCD5"/>
<path fill-rule="evenodd" clip-rule="evenodd" d="M359.327 167.59C355.294 172.079 349.452 174.912 342.979 174.912C336.507 174.912 330.664 172.078 326.632 167.588C313.584 173.763 304.501 187.069 304.501 202.396V216.227H381.457V202.396C381.457 187.071 372.374 173.764 359.327 167.59V167.59Z" fill="#60A4FF"/>
<path d="M240.753 210.283H225.741V202.396C225.741 187.469 218.373 173.849 206.183 165.626C208.139 161.812 209.251 157.497 209.251 152.925V141.931C209.251 126.53 196.721 114 181.319 114C165.918 114 153.389 126.53 153.389 141.931V152.925C153.389 157.497 154.501 161.812 156.456 165.625C144.265 173.848 136.899 187.464 136.899 202.396V210.283H121.887C115.332 210.283 110 215.615 110 222.17V240C110 244.516 112.532 248.451 116.251 250.462L127.846 412.779C128.068 415.89 130.657 418.3 133.774 418.3H228.866C231.984 418.3 234.573 415.89 234.795 412.779L246.39 250.462C250.108 248.451 252.641 244.515 252.641 240V222.17C252.64 215.615 247.307 210.283 240.753 210.283V210.283ZM165.276 141.931C165.276 133.084 172.473 125.887 181.319 125.887C190.167 125.887 197.364 133.084 197.364 141.931V152.925C197.364 161.772 190.167 168.969 181.32 168.969C172.473 168.969 165.276 161.772 165.276 152.925V141.931ZM148.786 202.396C148.786 191.091 154.564 180.811 164.058 174.858C168.813 178.609 174.808 180.855 181.32 180.855C187.833 180.855 193.826 178.609 198.582 174.858C208.076 180.812 213.855 191.096 213.855 202.396V210.283H148.786V202.396ZM223.332 406.413H139.308L128.27 251.886H154.577C157.859 251.886 160.521 249.226 160.521 245.943C160.521 242.661 157.859 240 154.577 240H121.887V222.17H240.753V240H208.067C204.785 240 202.124 242.661 202.124 245.943C202.124 249.226 204.785 251.886 208.067 251.886H234.37L223.332 406.413Z" fill="black"/>
<path d="M203.521 267.099C198.759 267.099 194.282 268.954 190.914 272.321L174.511 288.725L171.724 285.937C168.356 282.57 163.879 280.715 159.117 280.715C154.354 280.715 149.877 282.57 146.51 285.937C143.142 289.305 141.288 293.782 141.288 298.544C141.288 303.307 143.142 307.784 146.51 311.151L161.904 326.545C165.38 330.021 169.945 331.759 174.511 331.759C179.076 331.759 183.642 330.021 187.118 326.545L216.128 297.534C223.08 290.583 223.08 279.272 216.128 272.32C212.761 268.954 208.284 267.099 203.521 267.099ZM207.723 289.13L178.713 318.141C176.397 320.457 172.626 320.458 170.309 318.141L154.916 302.746C153.793 301.624 153.175 300.132 153.175 298.545C153.175 296.958 153.793 295.466 154.916 294.343C156.038 293.221 157.529 292.603 159.117 292.603C160.704 292.603 162.197 293.221 163.318 294.343L170.308 301.333C171.423 302.447 172.935 303.074 174.511 303.074C176.087 303.074 177.598 302.447 178.713 301.333L199.32 280.727C201.636 278.41 205.406 278.41 207.723 280.727C210.04 283.043 210.04 286.813 207.723 289.13V289.13Z" fill="black"/>
<path d="M402.412 210.284H387.4V202.396C387.4 187.47 380.032 173.849 367.842 165.626C369.798 161.813 370.909 157.498 370.909 152.926V141.931C370.909 126.53 358.379 114 342.978 114C327.578 114 315.048 126.53 315.048 141.931V152.926C315.048 157.497 316.16 161.812 318.115 165.625C305.924 173.848 298.557 187.464 298.557 202.396V210.284H283.546C276.992 210.284 271.659 215.616 271.659 222.17V240C271.659 244.517 274.192 248.451 277.91 250.462L289.505 412.78C289.727 415.89 292.316 418.3 295.434 418.3H390.526C393.644 418.3 396.232 415.891 396.454 412.78L408.049 250.462C411.768 248.451 414.3 244.516 414.3 240V222.17C414.299 215.616 408.967 210.284 402.412 210.284V210.284ZM326.935 141.931C326.935 133.085 334.132 125.887 342.978 125.887C351.825 125.887 359.022 133.085 359.022 141.931V152.926C359.022 161.772 351.826 168.97 342.979 168.97C334.132 168.97 326.935 161.772 326.935 152.926V141.931ZM310.444 202.396C310.444 191.093 316.222 180.812 325.717 174.858C330.473 178.609 336.466 180.856 342.979 180.856C349.491 180.856 355.485 178.609 360.24 174.859C369.735 180.812 375.513 191.096 375.513 202.396V210.284H310.444V202.396ZM402.412 222.17V240H283.546L283.545 222.17H402.412ZM384.991 406.413H300.967L289.928 251.887H396.029L384.991 406.413Z" fill="black"/>
<path d="M372.398 270.014C365.446 263.063 354.134 263.062 347.182 270.014L342.98 274.217L338.777 270.014C335.419 266.655 330.942 264.806 326.17 264.806C321.398 264.806 316.92 266.655 313.562 270.013C306.61 276.965 306.61 288.277 313.562 295.229L317.764 299.431L313.562 303.634C306.61 310.586 306.61 321.898 313.562 328.85C316.92 332.208 321.398 334.057 326.17 334.057C330.942 334.057 335.419 332.208 338.777 328.85L342.98 324.647L347.182 328.85C350.658 332.325 355.224 334.063 359.79 334.063C364.356 334.063 368.921 332.325 372.398 328.85C379.35 321.898 379.35 310.586 372.398 303.634L368.195 299.432L372.398 295.23C379.35 288.278 379.35 276.967 372.398 270.014ZM355.588 303.635L363.993 312.041C365.106 313.154 365.719 314.646 365.719 316.243C365.719 317.84 365.106 319.333 363.993 320.446C361.676 322.763 357.905 322.762 355.588 320.446L347.183 312.041C346.068 310.926 344.556 310.3 342.98 310.3C341.404 310.3 339.892 310.926 338.777 312.041L330.372 320.446C329.259 321.56 327.766 322.172 326.17 322.172C324.572 322.172 323.08 321.56 321.967 320.446C319.65 318.128 319.65 314.358 321.967 312.041L330.372 303.636C332.693 301.315 332.693 297.551 330.372 295.23L321.967 286.825C320.854 285.712 320.241 284.22 320.241 282.623C320.241 281.026 320.854 279.533 321.967 278.42C323.08 277.307 324.573 276.694 326.17 276.694C327.767 276.694 329.259 277.307 330.372 278.42L338.777 286.825C339.892 287.94 341.404 288.566 342.98 288.566C344.556 288.566 346.068 287.94 347.183 286.825L355.588 278.42C357.904 276.104 361.675 276.103 363.993 278.42C366.31 280.738 366.31 284.508 363.993 286.825L355.588 295.23C353.267 297.551 353.267 301.314 355.588 303.635V303.635Z" fill="black"/>
<path d="M181.325 251.888C184.607 251.888 187.268 249.227 187.268 245.944C187.268 242.662 184.607 240.001 181.325 240.001H181.32C178.038 240.001 175.379 242.662 175.379 245.944C175.379 249.227 178.042 251.888 181.325 251.888Z" fill="black"/>
</g>
</svg>
