<svg width="522" height="522" viewBox="0 0 522 522" fill="none" xmlns="http://www.w3.org/2000/svg">
<rect width="522" height="522" fill="#1D1D1D"/>
<g opacity="0.1" clip-path="url(#clip0)">
<path d="M266.345 126.195C182.446 126.195 114.195 194.446 114.195 278.345C114.195 362.244 182.446 430.495 266.345 430.495C350.244 430.495 418.495 362.244 418.495 278.345C418.495 194.446 350.244 126.195 266.345 126.195Z" fill="#FFC107"/>
<path d="M279.023 354.42C279.023 361.422 273.347 367.099 266.345 367.099C259.343 367.099 253.667 361.422 253.667 354.42C253.667 347.418 259.343 341.742 266.345 341.742C273.347 341.742 279.023 347.418 279.023 354.42Z" fill="#ECEFF1"/>
<path d="M286.415 286.485C281.927 288.551 279.023 293.078 279.023 298.011V303.704C279.023 310.701 273.356 316.382 266.344 316.382C259.333 316.382 253.666 310.701 253.666 303.704V298.011C253.666 283.213 262.363 269.648 275.791 263.447C288.711 257.501 298.042 241.714 298.042 233.967C298.042 216.497 283.829 202.27 266.344 202.27C248.86 202.27 234.647 216.497 234.647 233.967C234.647 240.967 228.978 246.648 221.967 246.648C214.955 246.648 209.288 240.967 209.288 233.967C209.288 202.511 234.886 176.911 266.344 176.911C297.803 176.911 323.401 202.511 323.401 233.967C323.401 251.098 308.54 276.279 286.415 286.485V286.485Z" fill="#FAFAFA"/>
</g>
<defs>
<clipPath id="clip0">
<rect width="304.301" height="304.301" fill="white" transform="translate(114.195 126.195)"/>
</clipPath>
</defs>
</svg>
