<svg width="522" height="522" viewBox="0 0 522 522" fill="none" xmlns="http://www.w3.org/2000/svg">
<rect width="522" height="522" fill="#1D1D1D"/>
<g opacity="0.2">
<path d="M197.493 121.322L179.451 103.242C175.265 99.0478 169.698 96.7388 163.773 96.7388C157.848 96.7388 152.281 99.0484 148.096 103.242L135.017 116.349C126.408 124.975 126.408 139.011 135.017 147.638L153.098 165.756C154.866 167.528 157.186 168.414 159.506 168.414C161.82 168.414 164.134 167.532 165.901 165.769C169.44 162.238 193.947 137.651 197.481 134.124C201.019 130.593 201.025 124.861 197.493 121.322Z" fill="#105C6E"/>
<path d="M261.5 61.8105C256.5 61.8105 252.447 65.8638 252.447 70.8633V99.832C252.447 104.832 256.5 108.885 261.5 108.885C266.5 108.885 270.553 104.832 270.553 99.832V70.8633C270.553 65.8638 266.5 61.8105 261.5 61.8105Z" fill="#26879C"/>
<path d="M283.83 60H239.17C234.17 60 230.117 64.0532 230.117 69.0527C230.117 74.0523 234.17 78.1055 239.17 78.1055H283.83C288.83 78.1055 292.883 74.0523 292.883 69.0527C292.883 64.0532 288.83 60 283.83 60Z" fill="#DE513C"/>
<path d="M261.5 60H239.17C234.17 60 230.117 64.0532 230.117 69.0527C230.117 74.0523 234.17 78.1055 239.17 78.1055H261.5V60Z" fill="#FC6249"/>
<path d="M359.658 131.586C333.44 105.314 298.58 90.8442 261.499 90.8442C224.419 90.8442 189.559 105.314 163.341 131.586C137.128 157.853 122.691 192.777 122.691 229.922C122.691 267.067 137.128 301.991 163.341 328.258C189.559 354.531 224.419 369 261.499 369C298.58 369 333.44 354.531 359.658 328.258C385.871 301.991 400.307 267.067 400.307 229.922C400.307 192.777 385.871 157.853 359.658 131.586Z" fill="#DE513C"/>
<path d="M261.499 90.8442C224.419 90.8442 189.559 105.314 163.341 131.586C137.128 157.853 122.691 192.777 122.691 229.922C122.691 267.067 137.128 301.991 163.341 328.258C189.559 354.531 224.419 369 261.499 369V90.8442Z" fill="#FC6249"/>
<path d="M261.5 125.504C204.035 125.504 157.283 172.346 157.283 229.922C157.283 287.498 204.035 334.34 261.5 334.34C318.966 334.34 365.718 287.498 365.718 229.922C365.718 172.346 318.966 125.504 261.5 125.504Z" fill="#96D1D9"/>
<path d="M261.5 125.504C204.035 125.504 157.283 172.346 157.283 229.922C157.283 287.498 204.035 334.34 261.5 334.34V125.504Z" fill="#F4F2E6"/>
<path d="M261.5 148.117C266.5 148.117 270.553 144.064 270.553 139.064V125.903C267.568 125.644 264.55 125.504 261.5 125.504C258.45 125.504 255.432 125.644 252.447 125.903V139.064C252.447 144.064 256.5 148.117 261.5 148.117Z" fill="#105C6E"/>
<path d="M261.5 311.726C256.5 311.726 252.447 315.779 252.447 320.779V333.94C255.432 334.199 258.45 334.339 261.5 334.339C264.55 334.339 267.568 334.199 270.553 333.94V320.779C270.553 315.779 266.5 311.726 261.5 311.726Z" fill="#105C6E"/>
<path d="M365.323 220.869H352.358C347.359 220.869 343.306 224.922 343.306 229.922C343.306 234.921 347.359 238.975 352.358 238.975H365.323C365.58 235.99 365.718 232.972 365.718 229.922C365.718 226.872 365.58 223.854 365.323 220.869Z" fill="#105C6E"/>
<path d="M179.695 229.922C179.695 224.922 175.642 220.869 170.643 220.869H157.679C157.422 223.854 157.283 226.872 157.283 229.922C157.283 232.972 157.422 235.99 157.679 238.975H170.643C175.642 238.975 179.695 234.921 179.695 229.922Z" fill="#105C6E"/>
<path d="M283.831 224.697H271.059V188.083C271.059 183.084 267.006 179.031 262.006 179.031C257.007 179.031 252.954 183.084 252.954 188.083V233.75C252.954 238.749 257.007 242.802 262.006 242.802H283.831C288.83 242.802 292.883 238.749 292.883 233.75C292.883 228.75 288.83 224.697 283.831 224.697Z" fill="#105C6E"/>
</g>
</svg>
