<svg width="20" height="20" viewBox="0 0 20 20" fill="none" xmlns="http://www.w3.org/2000/svg">
<path fill-rule="evenodd" clip-rule="evenodd" d="M8.8251 0H11.1739C12.8492 0.00379 13.2338 0.0185499 14.1227 0.0590999C15.1871 0.10765 15.9141 0.27672 16.5502 0.52396C17.2079 0.77949 17.7656 1.12144 18.3216 1.6774C18.8775 2.2334 19.2195 2.79111 19.475 3.44873C19.7222 4.08484 19.8913 4.81182 19.9399 5.87626C19.9869 6.90737 19.9992 7.25998 20 9.7357V10.2633C19.9992 12.739 19.9869 13.0916 19.9399 14.1227C19.8913 15.1871 19.7222 15.9141 19.475 16.5502C19.2195 17.2079 18.8775 17.7656 18.3216 18.3216C17.7656 18.8775 17.2079 19.2195 16.5502 19.475C15.9141 19.7222 15.1871 19.8913 14.1227 19.9399C13.0916 19.9869 12.739 19.9992 10.2633 20H9.7357C7.25998 19.9992 6.90737 19.9869 5.87626 19.9399C4.81182 19.8913 4.08484 19.7222 3.44873 19.475C2.79111 19.2195 2.2334 18.8775 1.6774 18.3216C1.12144 17.7656 0.77949 17.2079 0.52396 16.5502C0.27672 15.9141 0.10765 15.1871 0.0590999 14.1227C0.0185499 13.2338 0.00379 12.8492 0 11.1739V8.8251C0.00379 7.1498 0.0185499 6.76515 0.0590999 5.87626C0.10765 4.81182 0.27672 4.08484 0.52396 3.44873C0.77949 2.79111 1.12144 2.2334 1.6774 1.6774C2.2334 1.12144 2.79111 0.77949 3.44873 0.52396C4.08484 0.27672 4.81182 0.10765 5.87626 0.0590999C6.76515 0.0185499 7.1498 0.00379 8.8251 0ZM10.733 1.80115H9.2659C7.25858 1.80324 6.90746 1.81583 5.9584 1.85914C4.98335 1.9036 4.45383 2.06651 4.10144 2.20347C3.63464 2.38489 3.3015 2.60159 2.95157 2.95157C2.60159 3.3015 2.38489 3.63464 2.20347 4.10144C2.06651 4.45383 1.9036 4.98335 1.85914 5.9584C1.81583 6.90746 1.80324 7.25858 1.80115 9.2659V10.733C1.80324 12.7404 1.81583 13.0915 1.85914 14.0406C1.9036 15.0156 2.06651 15.5451 2.20347 15.8975C2.38489 16.3643 2.60163 16.6975 2.95157 17.0474C3.3015 17.3974 3.63464 17.6141 4.10144 17.7955C4.45383 17.9324 4.98335 18.0954 5.9584 18.1398C7.0128 18.1879 7.32902 18.1981 9.9995 18.1981C12.6699 18.1981 12.9862 18.1879 14.0406 18.1398C15.0156 18.0954 15.5451 17.9324 15.8975 17.7955C16.3643 17.6141 16.6975 17.3974 17.0474 17.0474C17.3974 16.6975 17.6141 16.3643 17.7955 15.8975C17.9324 15.5451 18.0954 15.0156 18.1398 14.0406C18.1879 12.986 18.1981 12.6697 18.1981 9.9995C18.1981 7.32922 18.1879 7.01292 18.1398 5.9584C18.0954 4.98335 17.9324 4.45383 17.7955 4.10144C17.6141 3.63464 17.3974 3.3015 17.0474 2.95157C16.6975 2.60159 16.3643 2.38489 15.8975 2.20347C15.5451 2.06651 15.0156 1.9036 14.0406 1.85914C13.0915 1.81583 12.7404 1.80324 10.733 1.80115ZM9.9995 4.9992C12.7611 4.9992 14.9998 7.23788 14.9998 9.9995C14.9998 12.7611 12.7611 14.9998 9.9995 14.9998C7.23788 14.9998 4.9992 12.7611 4.9992 9.9995C4.9992 7.23788 7.23788 4.9992 9.9995 4.9992ZM9.9995 6.75368C8.2069 6.75368 6.75368 8.2069 6.75368 9.9995C6.75368 11.7921 8.2069 13.2453 9.9995 13.2453C11.7921 13.2453 13.2453 11.7921 13.2453 9.9995C13.2453 8.2069 11.7921 6.75368 9.9995 6.75368ZM15.4164 3.33244C16.1068 3.33244 16.6665 3.89213 16.6665 4.58253C16.6665 5.27293 16.1068 5.83258 15.4164 5.83258C14.7261 5.83258 14.1664 5.27293 14.1664 4.58253C14.1664 3.89213 14.7261 3.33244 15.4164 3.33244Z" fill="white"/>
</svg>
