<svg width="229" height="140" viewBox="0 0 229 140" fill="none" xmlns="http://www.w3.org/2000/svg">
<path fill-rule="evenodd" clip-rule="evenodd" d="M3.64243 140C-6.24145 96.2985 10.3103 48.9009 49.1669 21.5587C100.539 -14.5903 171.744 -2.20466 207.893 49.1675C227.181 76.5782 232.651 109.635 225.754 140H204.401C211.722 113.933 207.713 84.9051 190.953 61.0873C161.377 19.0555 103.119 8.92128 61.0866 38.4981C27.9271 61.8315 14.6213 103.015 25.0031 140H3.64243Z" fill="white" fill-opacity="0.3"/>
<circle cx="89.5" cy="85.5" r="11.5" fill="white" fill-opacity="0.3"/>
<path fill-rule="evenodd" clip-rule="evenodd" d="M101.071 98.071C97.1658 101.976 97.1658 108.308 101.071 112.213L128.858 140H156.548C156.097 139.163 155.518 138.376 154.811 137.669L115.213 98.071C111.308 94.1658 104.976 94.1658 101.071 98.071Z" fill="white" fill-opacity="0.3"/>
</svg>
