<svg width="522" height="522" viewBox="0 0 522 522" fill="none" xmlns="http://www.w3.org/2000/svg">
<rect width="522" height="522" fill="#1D1D1D"/>
<g opacity="0.2">
<path d="M346.34 251.944H343.613L347.735 192.915H362.542C372.955 192.915 381.395 201.817 381.395 212.798V214.973C381.395 235.392 365.7 251.944 346.34 251.944V251.944Z" fill="#F9A58E"/>
<path d="M175.661 251.944H178.389L174.267 192.915H159.459C149.047 192.915 140.606 201.817 140.606 212.798V214.973C140.606 235.392 156.301 251.944 175.661 251.944V251.944Z" fill="#EAAC9D"/>
<path d="M305.872 338.029V321.108C290.141 332.457 272.769 338.955 261 338.955C249.23 338.955 231.858 332.457 216.127 321.107V338.028C216.127 347.458 210.998 356.052 202.937 360.131L183.972 369.729C181.559 370.95 182.384 374.774 185.06 374.774H336.939C339.616 374.774 340.44 370.95 338.027 369.729L319.062 360.131C311.001 356.053 305.872 347.458 305.872 338.029V338.029Z" fill="#FFCBBE"/>
<path d="M348.874 176.58C352.636 122.715 312.212 76.8271 261 76.8271C209.788 76.8271 169.364 122.715 173.126 176.58L179.117 262.377C182.275 307.61 235.151 338.957 261 338.957C286.849 338.957 339.724 307.61 342.883 262.377L348.874 176.58Z" fill="#FFCBBE"/>
<path d="M287.597 81.127C311.694 99.2923 326.664 129.894 324.308 163.624L318.317 249.42C315.159 294.653 262.284 326.001 236.434 326.001C231.069 326.001 224.54 324.65 217.533 322.106C232.885 332.837 249.581 338.955 261 338.955C286.85 338.955 339.724 307.608 342.884 262.375L348.875 176.578C351.954 132.482 325.421 93.731 287.597 81.127V81.127Z" fill="#EAAC9D"/>
<path d="M330.539 164.628C329.486 147.917 323.095 132.265 312.054 119.731C308.396 115.578 304.376 111.938 300.064 108.84C296.735 118.769 290.046 127.289 280.894 132.577C276.321 135.221 273.479 140.072 273.479 145.239V145.942C273.479 153.199 267.881 159.104 261 159.104C254.119 159.104 248.521 153.199 248.521 145.942V145.239C248.521 130.455 256.33 116.757 268.901 109.492C273.095 107.069 275.989 102.932 277.04 98.1864C271.857 96.913 266.485 96.2588 261 96.2588C255.122 96.2588 249.376 97.0095 243.851 98.4688C242.174 103.652 237.511 107.39 232.037 107.39C229.982 107.39 228.041 106.863 226.33 105.931C220.336 109.572 214.82 114.196 209.946 119.73C198.905 132.264 192.514 147.916 191.461 164.627C191.102 170.323 195.392 175.153 200.804 175.153H321.196C326.608 175.153 330.898 170.324 330.539 164.628V164.628Z" fill="#DD5790"/>
<path d="M330.54 164.627C329.486 147.915 323.096 132.263 312.055 119.729C308.396 115.577 304.377 111.936 300.065 108.838C298.971 112.103 297.513 115.215 295.724 118.109C301.717 128.245 305.217 139.686 305.973 151.672C306.333 157.368 302.043 162.198 296.63 162.198H191.653C191.576 163.005 191.512 163.814 191.461 164.627C191.102 170.323 195.392 175.152 200.804 175.152H321.196C326.609 175.151 330.899 170.322 330.54 164.627V164.627Z" fill="#DA387D"/>
<path d="M261 159.104C254.267 159.104 248.789 153.326 248.789 146.225V145.537C248.789 131.07 256.43 117.667 268.732 110.558C274.497 107.226 277.752 100.582 277.024 93.632C276.21 85.8509 270.265 79.5803 262.887 78.7208C262.258 78.6476 261.623 78.6107 260.999 78.6107C256.965 78.6107 253.247 80.1088 250.246 82.9426C246.83 86.1696 244.87 90.7904 244.87 95.6211C244.87 102.723 239.393 108.5 232.659 108.5C225.926 108.5 220.448 102.723 220.448 95.6211C220.448 83.477 225.37 71.8627 233.951 63.7558C241.391 56.7287 251.024 52.8579 261.075 52.8579C262.57 52.8579 264.082 52.946 265.568 53.1196C284.213 55.2908 299.241 71.1398 301.3 90.8053C303.118 108.163 294.94 124.783 280.467 133.147C275.992 135.733 273.211 140.481 273.211 145.537V146.225C273.212 153.326 267.734 159.104 261 159.104V159.104Z" fill="#756E78"/>
<path d="M244.871 95.6225C244.871 90.7918 246.83 86.1709 250.246 82.944C253.247 80.1102 256.966 78.612 261 78.612C261.189 78.612 261.38 78.6159 261.571 78.6224C258.976 75.2212 255.165 72.8842 250.868 72.3836C250.24 72.3104 249.604 72.2734 248.981 72.2734C244.946 72.2734 241.228 73.7716 238.227 76.6054C234.811 79.8323 232.851 84.4532 232.851 89.2839C232.851 95.8673 228.144 101.312 222.093 102.073C224.209 105.913 228.153 108.501 232.66 108.501C239.392 108.502 244.871 102.724 244.871 95.6225V95.6225Z" fill="#665E66"/>
<path d="M301.301 90.8049C299.515 73.7504 287.975 59.566 272.78 54.6841C281.769 61.594 288.007 72.2995 289.282 84.467C291.099 101.825 282.921 118.444 268.448 126.808C263.973 129.395 261.192 134.143 261.192 139.199V139.887C261.192 146.469 256.485 151.915 250.434 152.675C252.549 156.516 256.493 159.103 261 159.103C267.734 159.103 273.212 153.326 273.212 146.225V145.537C273.212 140.48 275.993 135.732 280.468 133.146C294.941 124.782 303.119 108.163 301.301 90.8049V90.8049Z" fill="#665E66"/>
<path d="M273.48 172.272C273.48 165 267.89 159.104 260.995 159.104C254.099 159.104 248.509 165 248.509 172.272C248.509 173.262 248.613 174.226 248.809 175.153H273.181C273.377 174.226 273.48 173.262 273.48 172.272V172.272Z" fill="#756E78"/>
<path d="M362.542 188.057H352.692L353.468 176.937C356.168 138.272 337.05 101.73 304.681 83.4712C303.741 79.7118 302.356 76.0833 300.537 72.6277C299.303 70.2816 296.501 69.435 294.275 70.737C292.051 72.0389 291.248 74.9964 292.483 77.3418C294.78 81.7087 296.206 86.4183 296.722 91.3377C298.334 106.732 291.085 121.47 278.254 128.885C272.303 132.325 268.605 138.705 268.605 145.536V146.224C268.605 150.647 265.193 154.245 261 154.245C256.806 154.245 253.395 150.647 253.395 146.224V145.536C253.395 132.844 260.119 121.073 270.945 114.818C278.352 110.537 282.535 102.012 281.603 93.0989C280.554 83.0767 272.895 74.9996 263.391 73.892C262.596 73.7994 261.792 73.7528 260.999 73.7528C255.813 73.7528 251.032 75.6791 247.173 79.3238C242.782 83.4712 240.263 89.4114 240.263 95.6211C240.263 100.044 236.852 103.642 232.658 103.642C231.11 103.642 229.67 103.152 228.468 102.311C228.414 102.271 228.359 102.231 228.303 102.193C226.339 100.741 225.053 98.3364 225.053 95.6205C225.053 84.856 229.416 74.5605 237.024 67.374C243.618 61.1462 252.16 57.7158 261.075 57.7158C262.402 57.7158 263.744 57.7942 265.063 57.9477C270.183 58.5443 275.037 60.286 279.49 63.1262C281.667 64.5143 284.499 63.7785 285.815 61.4823C287.132 59.1868 286.434 56.2002 284.257 54.8121C278.651 51.2373 272.533 49.0428 266.076 48.2908C264.422 48.0978 262.74 48 261.075 48C249.888 48 239.165 52.3106 230.878 60.1376C224.249 66.3998 219.581 74.5423 217.343 83.4569C184.944 101.714 165.828 138.209 168.532 176.937L169.308 188.057H159.459C146.523 188.057 136 199.155 136 212.798V214.972C136 237.488 152.955 255.906 174.107 256.769L174.524 262.733C174.888 267.951 175.885 273.186 177.487 278.293C178.127 280.334 179.927 281.627 181.859 281.627C182.338 281.627 182.826 281.547 183.306 281.38C185.722 280.537 187.031 277.789 186.233 275.242C184.868 270.891 184.019 266.443 183.711 262.019L182.987 251.647C182.984 251.603 182.981 251.559 182.978 251.514L178.863 192.589C178.861 192.561 178.859 192.534 178.857 192.506L177.72 176.222C175.452 143.738 190.23 112.997 215.843 95.6431C215.847 99.2276 216.865 102.567 218.61 105.358C214.27 108.557 210.236 112.264 206.572 116.423C204.842 118.389 204.948 121.462 206.812 123.289C207.699 124.158 208.824 124.587 209.947 124.587C211.183 124.587 212.415 124.066 213.323 123.036C217.111 118.736 221.343 114.991 225.932 111.876C227.994 112.828 230.27 113.358 232.661 113.358C239.65 113.358 245.656 108.837 248.191 102.423C255.592 100.894 263.381 100.715 270.866 101.887C269.836 103.702 268.355 105.235 266.52 106.296C252.743 114.258 244.185 129.294 244.185 145.536V146.224C244.185 151.26 246.186 155.814 249.393 159.045C246.451 161.919 244.466 165.868 244.006 170.294H200.805C198.055 170.294 195.875 167.845 196.058 164.949C196.582 156.643 198.507 148.633 201.78 141.139C202.844 138.702 201.835 135.817 199.524 134.694C197.213 133.57 194.477 134.637 193.413 137.074C189.667 145.649 187.464 154.81 186.866 164.305C186.332 172.791 192.734 180.01 200.805 180.01H321.197C329.261 180.01 335.672 172.8 335.136 164.305C334.003 146.329 327.189 129.772 315.43 116.423C312.221 112.78 308.705 109.464 304.96 106.546C305.746 103.014 306.156 99.3604 306.159 95.6457C331.76 113.004 346.546 143.784 344.281 176.223L343.143 192.515C343.142 192.536 343.14 192.557 343.139 192.579L338.29 262.02C335.382 303.661 285.735 334.099 261 334.099C243.052 334.099 212.598 318.144 195.871 294.391C194.354 292.237 191.468 291.789 189.427 293.388C187.385 294.988 186.958 298.03 188.476 300.184C194.87 309.264 202.906 317.179 211.521 323.682V338.03C211.521 345.545 207.37 352.502 200.945 355.753L181.98 365.35C178.963 366.877 177.374 370.346 178.116 373.788C178.858 377.229 181.714 379.633 185.061 379.633H336.94C340.286 379.633 343.142 377.229 343.884 373.788C344.627 370.346 343.038 366.876 340.021 365.35L321.055 355.752C314.63 352.501 310.479 345.544 310.479 338.029V323.612C329.531 309.206 345.715 287.961 347.476 262.733L347.893 256.769C369.045 255.906 386 237.488 386 214.972V212.798C386.001 199.156 375.477 188.057 362.542 188.057V188.057ZM145.212 214.973V212.798C145.212 204.513 151.603 197.773 159.459 197.773H169.987L173.424 247C157.675 245.788 145.212 231.887 145.212 214.973ZM249.929 92.2575C250.525 90.0837 251.69 88.1011 253.319 86.5621C255.462 84.5386 258.117 83.4692 261 83.4692C261.456 83.4692 261.921 83.4964 262.382 83.5502C267.015 84.0897 270.856 87.6295 272.094 92.2594C264.788 91.1279 257.24 91.1279 249.929 92.2575V92.2575ZM260.994 163.962C264.693 163.962 267.806 166.664 268.648 170.295H253.339C254.183 166.664 257.295 163.962 260.994 163.962ZM308.68 123.037C318.982 134.733 324.953 149.226 325.943 164.95C326.126 167.844 323.95 170.295 321.196 170.295H277.984C277.525 165.872 275.542 161.926 272.604 159.052C275.815 155.82 277.818 151.264 277.818 146.224V145.536C277.818 142.255 279.682 139.14 282.682 137.406C291.191 132.489 297.746 125.009 301.74 116.2C304.19 118.289 306.513 120.577 308.68 123.037V123.037ZM317.07 364.512L327.751 369.917H194.251L204.931 364.512C214.532 359.654 220.734 349.259 220.734 338.03V329.981C235.118 338.857 250.042 343.815 261 343.815C271.978 343.815 286.9 338.815 301.266 329.926V338.03C301.266 349.259 307.47 359.654 317.07 364.512V364.512ZM376.788 214.973C376.788 231.887 364.325 245.788 348.575 246.999L352.013 197.773H362.542C370.397 197.773 376.788 204.513 376.788 212.798V214.973Z" fill="#222221"/>
<path d="M248.735 202.344H212.03C209.486 202.344 207.424 204.519 207.424 207.202C207.424 209.885 209.486 212.06 212.03 212.06H248.735C251.28 212.06 253.341 209.885 253.341 207.202C253.341 204.519 251.28 202.344 248.735 202.344V202.344Z" fill="#222221"/>
<path d="M277.872 245.626V220.138C277.872 215.684 281.308 212.06 285.532 212.06H309.971C312.515 212.06 314.577 209.885 314.577 207.202C314.577 204.519 312.515 202.344 309.971 202.344H285.532C276.229 202.344 268.66 210.327 268.66 220.138V245.626C268.66 250.081 265.223 253.705 261 253.705C258.455 253.705 256.394 255.88 256.394 258.563C256.394 261.245 258.455 263.42 261 263.42C270.302 263.42 277.872 255.438 277.872 245.626Z" fill="#222221"/>
<path d="M231.909 294.51C231.909 297.193 233.97 299.368 236.515 299.368H285.485C288.03 299.368 290.092 297.193 290.092 294.51C290.092 291.827 288.03 289.652 285.485 289.652H236.515C233.97 289.652 231.909 291.827 231.909 294.51Z" fill="#222221"/>
</g>
</svg>
