<svg width="97" height="106" viewBox="0 0 97 106" fill="none" xmlns="http://www.w3.org/2000/svg">
<path d="M74.7206 3.75098L72.486 4.98517C72.2735 5.10261 72.3274 5.41578 72.5674 5.45834L74.7204 5.84136V3.75098H74.7206Z" stroke="white" stroke-width="3"/>
<path d="M74.7206 3.75098L72.486 4.98517C72.2735 5.10261 72.3274 5.41578 72.5674 5.45834L74.7204 5.84136V3.75098H74.7206Z" stroke="url(#paint0_linear)" stroke-width="3"/>
<path d="M33.6969 92.9305C33.068 89.5292 35.3754 86.2729 38.8506 85.6574L49.9697 83.6878C48.7234 82.9463 38.3677 78.5527 38.3677 78.5527L54.4521 72.1836L85.5435 77.7977C88.5807 78.3461 90.7833 80.9404 90.7782 83.9629C90.773 86.9853 88.5612 89.5724 85.5222 90.1108L41.1286 97.9745C37.6672 98.5873 34.3285 96.3458 33.6969 92.9305V92.9305Z" stroke="white" stroke-width="3"/>
<path d="M33.6969 92.9305C33.068 89.5292 35.3754 86.2729 38.8506 85.6574L49.9697 83.6878C48.7234 82.9463 38.3677 78.5527 38.3677 78.5527L54.4521 72.1836L85.5435 77.7977C88.5807 78.3461 90.7833 80.9404 90.7782 83.9629C90.773 86.9853 88.5612 89.5724 85.5222 90.1108L41.1286 97.9745C37.6672 98.5873 34.3285 96.3458 33.6969 92.9305V92.9305Z" stroke="url(#paint1_linear)" stroke-width="3"/>
<path d="M48.988 103.738L8.45335 90.5317C5.7591 89.6539 3.97908 87.1423 4.08266 84.365C4.18645 81.5876 6.14903 79.21 8.90174 78.527L36.1699 71.7612L46.5653 81.9909L33.2162 85.4071L53.0278 91.8617C56.3787 92.9534 58.1909 96.4972 57.0755 99.7766C55.96 103.055 52.3399 104.83 48.988 103.738V103.738Z" stroke="white" stroke-width="3"/>
<path d="M48.988 103.738L8.45335 90.5317C5.7591 89.6539 3.97908 87.1423 4.08266 84.365C4.18645 81.5876 6.14903 79.21 8.90174 78.527L36.1699 71.7612L46.5653 81.9909L33.2162 85.4071L53.0278 91.8617C56.3787 92.9534 58.1909 96.4972 57.0755 99.7766C55.96 103.055 52.3399 104.83 48.988 103.738V103.738Z" stroke="url(#paint2_linear)" stroke-width="3"/>
<path d="M53.3174 29.914C57.6298 25.6934 57.6298 18.8505 53.3174 14.63C49.0049 10.4094 42.013 10.4094 37.7005 14.63C33.388 18.8505 33.388 25.6934 37.7005 29.914C42.013 34.1345 49.0049 34.1345 53.3174 29.914Z" stroke="white" stroke-width="3"/>
<path d="M53.3174 29.914C57.6298 25.6934 57.6298 18.8505 53.3174 14.63C49.0049 10.4094 42.013 10.4094 37.7005 14.63C33.388 18.8505 33.388 25.6934 37.7005 29.914C42.013 34.1345 49.0049 34.1345 53.3174 29.914Z" stroke="url(#paint3_linear)" stroke-width="3"/>
<path d="M51.6318 36.5234H39.6924L39.6003 37.3274C39.1954 40.865 42.024 43.9607 45.6612 43.9607C49.2934 43.9607 52.1204 40.873 51.7235 37.3395L51.6318 36.5234Z" stroke="white" stroke-width="3"/>
<path d="M51.6318 36.5234H39.6924L39.6003 37.3274C39.1954 40.865 42.024 43.9607 45.6612 43.9607C49.2934 43.9607 52.1204 40.873 51.7235 37.3395L51.6318 36.5234Z" stroke="url(#paint4_linear)" stroke-width="3"/>
<path d="M18.3836 54.7446L10.2674 49.496C7.8117 47.9081 4.5062 48.569 2.8835 50.9723C1.26101 53.3755 1.93626 56.6109 4.39195 58.1988L20.7748 68.7931C24.2943 71.0688 29.0416 68.613 29.0416 64.4417V60.925L18.3836 54.7446Z" stroke="white" stroke-width="3"/>
<path d="M18.3836 54.7446L10.2674 49.496C7.8117 47.9081 4.5062 48.569 2.8835 50.9723C1.26101 53.3755 1.93626 56.6109 4.39195 58.1988L20.7748 68.7931C24.2943 71.0688 29.0416 68.613 29.0416 64.4417V60.925L18.3836 54.7446Z" stroke="url(#paint5_linear)" stroke-width="3"/>
<path d="M88.792 50.1608C87.1388 47.778 83.8249 47.1575 81.3899 48.7757L72.6288 54.5974L61.9708 60.9255V64.4422C61.9708 68.6421 66.7778 71.0932 70.2931 68.7571L87.3767 57.4054C89.8115 55.7874 90.4451 52.5439 88.792 50.1608V50.1608Z" stroke="white" stroke-width="3"/>
<path d="M88.792 50.1608C87.1388 47.778 83.8249 47.1575 81.3899 48.7757L72.6288 54.5974L61.9708 60.9255V64.4422C61.9708 68.6421 66.7778 71.0932 70.2931 68.7571L87.3767 57.4054C89.8115 55.7874 90.4451 52.5439 88.792 50.1608V50.1608Z" stroke="url(#paint6_linear)" stroke-width="3"/>
<path d="M72.6286 48.8033C72.594 42.0319 66.8484 36.5229 59.821 36.5229H51.632C51.6535 39.5996 48.7181 42.1844 45.6544 42.1844C42.3707 42.1844 39.924 39.609 39.6926 36.5229H31.2122C24.1735 36.5229 18.4187 42.0319 18.3838 48.8033V48.8294V54.7446L26.5648 60.925H29.0418V48.8466C29.0531 47.8548 30.0846 46.9538 31.2122 46.9538H31.3414V73.8813C31.3414 78.6908 35.3252 82.5897 40.2395 82.5897H50.774C55.6927 82.5897 59.6784 78.684 59.6721 73.87L59.6345 46.9538H59.821C60.9377 46.9538 61.9593 47.8548 61.9706 48.8466V60.925H65.7778L72.6286 54.5969V48.8296C72.6286 48.8205 72.6286 48.8119 72.6286 48.8033Z" stroke="white" stroke-width="3"/>
<path d="M72.6286 48.8033C72.594 42.0319 66.8484 36.5229 59.821 36.5229H51.632C51.6535 39.5996 48.7181 42.1844 45.6544 42.1844C42.3707 42.1844 39.924 39.609 39.6926 36.5229H31.2122C24.1735 36.5229 18.4187 42.0319 18.3838 48.8033V48.8294V54.7446L26.5648 60.925H29.0418V48.8466C29.0531 47.8548 30.0846 46.9538 31.2122 46.9538H31.3414V73.8813C31.3414 78.6908 35.3252 82.5897 40.2395 82.5897H50.774C55.6927 82.5897 59.6784 78.684 59.6721 73.87L59.6345 46.9538H59.821C60.9377 46.9538 61.9593 47.8548 61.9706 48.8466V60.925H65.7778L72.6286 54.5969V48.8296C72.6286 48.8205 72.6286 48.8119 72.6286 48.8033Z" stroke="url(#paint7_linear)" stroke-width="3"/>
<path d="M92.5722 17.4479L81.908 8.79508C80.5335 7.67973 79.7011 6.07716 79.4782 4.3435C79.4765 4.33065 79.4747 4.3176 79.4728 4.30456C79.3014 3.10408 78.2912 2.14752 77.0598 2.01643C75.4037 1.84018 74.0029 3.10509 74.0029 4.69019C74.0029 5.36751 74.2589 5.98562 74.6813 6.45777C75.6861 7.58116 76.2802 8.99944 76.2802 10.4924C76.2802 15.0988 80.0956 18.8329 84.8023 18.8329H92.0618C92.8107 18.8331 93.1488 17.9156 92.5722 17.4479V17.4479Z" stroke="white" stroke-width="3"/>
<path d="M92.5722 17.4479L81.908 8.79508C80.5335 7.67973 79.7011 6.07716 79.4782 4.3435C79.4765 4.33065 79.4747 4.3176 79.4728 4.30456C79.3014 3.10408 78.2912 2.14752 77.0598 2.01643C75.4037 1.84018 74.0029 3.10509 74.0029 4.69019C74.0029 5.36751 74.2589 5.98562 74.6813 6.45777C75.6861 7.58116 76.2802 8.99944 76.2802 10.4924C76.2802 15.0988 80.0956 18.8329 84.8023 18.8329H92.0618C92.8107 18.8331 93.1488 17.9156 92.5722 17.4479V17.4479Z" stroke="url(#paint8_linear)" stroke-width="3"/>
<path d="M84.6196 7.29728L80.8973 10.9402C83.4876 13.4753 87.6874 13.4753 90.2777 10.9402L94 7.29728C91.4097 4.76224 87.2099 4.76224 84.6196 7.29728V7.29728Z" stroke="white" stroke-width="3"/>
<path d="M84.6196 7.29728L80.8973 10.9402C83.4876 13.4753 87.6874 13.4753 90.2777 10.9402L94 7.29728C91.4097 4.76224 87.2099 4.76224 84.6196 7.29728V7.29728Z" stroke="url(#paint9_linear)" stroke-width="3"/>
<defs>
<linearGradient id="paint0_linear" x1="73.5369" y1="3.75098" x2="73.5369" y2="5.84136" gradientUnits="userSpaceOnUse">
<stop stop-color="white"/>
<stop offset="1" stop-color="white" stop-opacity="0"/>
</linearGradient>
<linearGradient id="paint1_linear" x1="62.1859" y1="72.1836" x2="62.1859" y2="98.0753" gradientUnits="userSpaceOnUse">
<stop stop-color="white"/>
<stop offset="1" stop-color="white" stop-opacity="0"/>
</linearGradient>
<linearGradient id="paint2_linear" x1="30.7414" y1="71.7612" x2="30.7414" y2="104.06" gradientUnits="userSpaceOnUse">
<stop stop-color="white"/>
<stop offset="1" stop-color="white" stop-opacity="0"/>
</linearGradient>
<linearGradient id="paint3_linear" x1="37.7005" y1="14.63" x2="52.981" y2="30.2432" gradientUnits="userSpaceOnUse">
<stop stop-color="white"/>
<stop offset="1" stop-color="white" stop-opacity="0"/>
</linearGradient>
<linearGradient id="paint4_linear" x1="45.6612" y1="36.5234" x2="45.6612" y2="43.9607" gradientUnits="userSpaceOnUse">
<stop stop-color="white"/>
<stop offset="1" stop-color="white" stop-opacity="0"/>
</linearGradient>
<linearGradient id="paint5_linear" x1="15.5208" y1="48.6313" x2="15.5208" y2="69.6617" gradientUnits="userSpaceOnUse">
<stop stop-color="white"/>
<stop offset="1" stop-color="white" stop-opacity="0"/>
</linearGradient>
<linearGradient id="paint6_linear" x1="75.8417" y1="47.8745" x2="75.8417" y2="69.6623" gradientUnits="userSpaceOnUse">
<stop stop-color="white"/>
<stop offset="1" stop-color="white" stop-opacity="0"/>
</linearGradient>
<linearGradient id="paint7_linear" x1="45.5062" y1="36.5229" x2="45.5062" y2="82.5897" gradientUnits="userSpaceOnUse">
<stop stop-color="white"/>
<stop offset="1" stop-color="white" stop-opacity="0"/>
</linearGradient>
<linearGradient id="paint8_linear" x1="83.433" y1="2" x2="83.433" y2="18.8329" gradientUnits="userSpaceOnUse">
<stop stop-color="white"/>
<stop offset="1" stop-color="white" stop-opacity="0"/>
</linearGradient>
<linearGradient id="paint9_linear" x1="87.4486" y1="5.396" x2="87.4486" y2="12.8415" gradientUnits="userSpaceOnUse">
<stop stop-color="white"/>
<stop offset="1" stop-color="white" stop-opacity="0"/>
</linearGradient>
</defs>
</svg>
