<svg width="152" height="152" viewBox="0 0 152 152" fill="none" xmlns="http://www.w3.org/2000/svg">
<g clip-path="url(#clip0)">
<path d="M76.0429 25.333C48.1065 25.333 25.377 48.0637 25.377 76.0001C25.377 103.936 48.1065 126.667 76.0429 126.667C103.979 126.667 126.71 103.936 126.71 76.0001C126.71 48.0637 103.979 25.333 76.0429 25.333ZM76.0429 117.167C53.3447 117.167 34.877 98.6982 34.877 76.0001C34.877 53.3019 53.3447 34.833 76.0429 34.833C98.7422 34.833 117.21 53.3019 117.21 76.0001C117.21 98.6982 98.7422 117.167 76.0429 117.167Z" fill="white"/>
<path d="M71.2929 4.75V15.8329C71.2929 18.455 73.4209 20.5829 76.0429 20.5829C78.6649 20.5829 80.7929 18.455 80.7929 15.8329V4.75C80.7929 2.12799 78.6649 0 76.0429 0C73.4209 0 71.2929 2.12799 71.2929 4.75Z" fill="white"/>
<path d="M16.6934 36.9296C14.3625 35.7328 11.5004 36.6895 10.3095 39.0193C9.12544 41.363 10.0624 44.2192 12.4061 45.4033L21.7913 50.1533C22.4825 50.5081 23.2166 50.667 23.9321 50.667C25.6681 50.667 27.3403 49.7161 28.1753 48.0635C29.3605 45.7198 28.4223 42.8636 26.0798 41.6796L16.6934 36.9296Z" fill="white"/>
<path d="M21.7982 101.846L12.4119 106.596C10.0682 107.781 9.13117 110.637 10.3152 112.98C11.1513 114.633 12.8236 115.583 14.5596 115.583C15.2809 115.583 16.0092 115.425 16.7003 115.07L26.0855 110.32C28.4292 109.136 29.3662 106.28 28.1822 103.936C26.9912 101.599 24.135 100.643 21.7982 101.846Z" fill="white"/>
<path d="M76.0429 131.417C73.4209 131.417 71.2929 133.545 71.2929 136.167V147.25C71.2929 149.872 73.4209 152 76.0429 152C78.6649 152 80.7929 149.872 80.7929 147.25V136.167C80.7929 133.545 78.6649 131.417 76.0429 131.417Z" fill="white"/>
<path d="M139.681 106.597L130.295 101.847C127.958 100.65 125.102 101.6 123.911 103.937C122.727 106.28 123.664 109.137 126.007 110.321L135.392 115.071C136.077 115.425 136.812 115.583 137.533 115.583C139.269 115.583 140.94 114.633 141.776 112.981C142.962 110.637 142.018 107.781 139.681 106.597Z" fill="white"/>
<path d="M135.392 36.9295L126.007 41.6795C123.664 42.8635 122.727 45.7198 123.911 48.0635C124.747 49.716 126.419 50.6669 128.154 50.6669C128.876 50.6669 129.604 50.5081 130.295 50.1532L139.681 45.4032C142.023 44.2192 142.962 41.3629 141.776 39.0192C140.592 36.6825 137.736 35.7258 135.392 36.9295Z" fill="white"/>
</g>
<defs>
<clipPath id="clip0">
<rect width="152" height="152" fill="white"/>
</clipPath>
</defs>
</svg>
