<svg width="20" height="20" viewBox="0 0 20 20" fill="none" xmlns="http://www.w3.org/2000/svg">
<path fill-rule="evenodd" clip-rule="evenodd" d="M18.3292 0C19.252 0 20 0.74752 20 1.67079V18.3292C20 19.252 19.2525 20 18.3292 20H1.67079C0.74804 20 0 19.2525 0 18.3292V1.67079C0 0.74804 0.74752 0 1.67079 0H18.3292ZM13.5187 7.5C12.0993 7.5 11.1281 8.1274 10.6957 8.8563L10.625 8.9858V7.625H7.91667V17.2083H10.8333V12.5662C10.8333 11.0104 11.4062 10.0208 12.7833 10.0208C13.7331 10.0208 14.1316 10.8607 14.1644 12.358L14.1667 12.5662V17.2083H17.0833V11.9154C17.0833 9.0575 16.3996 7.5 13.5187 7.5ZM5.83333 7.5H2.91667V17.0833H5.83333V7.5ZM4.375 2.5C3.33958 2.5 2.5 3.33958 2.5 4.375C2.5 5.41042 3.33958 6.25 4.375 6.25C5.41042 6.25 6.25 5.41042 6.25 4.375C6.25 3.33958 5.41042 2.5 4.375 2.5Z" fill="white"/>
</svg>
