<svg width="242" height="76" viewBox="0 0 242 76" fill="none" xmlns="http://www.w3.org/2000/svg">
<path d="M131.224 26.088V51H127.948V32.424L119.668 51H117.364L109.048 32.388V51H105.772V26.088H109.3L118.516 46.68L127.732 26.088H131.224ZM140.056 25.908V51H136.78V25.908H140.056ZM165.367 51H162.091L148.915 31.02V51H145.639V25.872H148.915L162.091 45.816V25.872H165.367V51ZM178.764 25.908C181.5 25.908 183.864 26.424 185.856 27.456C187.872 28.464 189.408 29.916 190.464 31.812C191.544 33.708 192.084 35.94 192.084 38.508C192.084 41.076 191.544 43.308 190.464 45.204C189.408 47.076 187.872 48.516 185.856 49.524C183.864 50.508 181.5 51 178.764 51H170.952V25.908H178.764ZM178.764 48.3C182.004 48.3 184.476 47.448 186.18 45.744C187.884 44.016 188.736 41.604 188.736 38.508C188.736 35.388 187.872 32.952 186.144 31.2C184.44 29.448 181.98 28.572 178.764 28.572H174.228V48.3H178.764ZM210.085 36.42V39.192H195.721V36.42H210.085ZM236.357 55.752L231.353 50.748C230.129 51.084 228.881 51.252 227.609 51.252C225.281 51.252 223.157 50.712 221.237 49.632C219.317 48.528 217.793 47.004 216.665 45.06C215.561 43.092 215.009 40.884 215.009 38.436C215.009 35.988 215.561 33.792 216.665 31.848C217.793 29.88 219.317 28.356 221.237 27.276C223.157 26.172 225.281 25.62 227.609 25.62C229.961 25.62 232.097 26.172 234.017 27.276C235.937 28.356 237.449 29.868 238.553 31.812C239.657 33.756 240.209 35.964 240.209 38.436C240.209 40.836 239.681 42.996 238.625 44.916C237.569 46.836 236.117 48.348 234.269 49.452L240.605 55.752H236.357ZM218.357 38.436C218.357 40.428 218.753 42.18 219.545 43.692C220.361 45.204 221.465 46.368 222.857 47.184C224.273 48 225.857 48.408 227.609 48.408C229.361 48.408 230.933 48 232.325 47.184C233.741 46.368 234.845 45.204 235.637 43.692C236.453 42.18 236.861 40.428 236.861 38.436C236.861 36.42 236.453 34.668 235.637 33.18C234.845 31.668 233.753 30.504 232.361 29.688C230.969 28.872 229.385 28.464 227.609 28.464C225.833 28.464 224.249 28.872 222.857 29.688C221.465 30.504 220.361 31.668 219.545 33.18C218.753 34.668 218.357 36.42 218.357 38.436Z" fill="white"/>
<path d="M5 16.3306C5 6.46866 17.7645 2.5605 23.2858 10.732L37.2774 31.4391M5 16.3306L37.2774 31.4391M5 16.3306V53.9665C5 64.6131 19.4251 67.8866 24.0205 58.2828L30.2813 45.1983L44.1634 45.1983L52.038 60.2674C56.8804 69.5341 70.9008 66.0916 70.9008 55.636V15.5907C70.9008 5.86457 58.4227 1.86275 52.766 9.77484L37.2774 31.4391M5 16.3306L37.2774 31.4391" stroke="white" stroke-width="10"/>
</svg>
