<svg width="333" height="331" viewBox="0 0 333 471" fill="none" xmlns="http://www.w3.org/2000/svg">
<path d="M54.9761 257.757L14.8801 371.765L0 386.645L65.207 451.852L152.664 364.395L216.812 249.754L108.497 227.48C85.5992 222.769 62.7328 235.704 54.9761 257.757Z" fill="#FFCBBE"/>
<path d="M115.853 339.679L118.478 342.304L185.526 275.256L163.439 253.169L115.852 300.757C105.105 311.504 105.105 328.931 115.853 339.679Z" fill="#EAAC9D"/>
<path d="M192.459 326.198C187.217 381.569 140.203 423.554 84.5944 422.534L60.2416 446.887L76.0163 462.662L100.369 438.309L122.508 438.72C165.632 439.51 202.074 406.958 206.146 364.032L208.4 340.21L265.432 283.178C272.255 276.354 275.663 267.411 275.671 258.469C275.671 249.518 272.263 240.576 265.432 233.745C262.672 230.985 259.573 228.787 256.268 227.143C258.687 232.029 259.89 237.358 259.889 242.687C259.889 251.637 256.481 260.58 249.658 267.404L192.626 324.436L192.459 326.198Z" fill="#EAAC9D"/>
<rect x="107.996" width="225.004" height="310.849" fill="#FA0000"/>
<path d="M230.094 241.564L45.6451 426.015L90.1129 470.482L114.466 446.13L136.605 446.541C179.729 447.331 216.17 414.779 220.243 371.853L222.497 348.03L279.529 290.999C286.352 284.175 289.759 275.232 289.768 266.29C289.768 257.339 286.352 248.389 279.529 241.565C265.881 227.918 243.742 227.918 230.094 241.564Z" fill="#FFCBBE"/>
</svg>
