<svg width="92" height="103" viewBox="0 0 92 103" fill="none" xmlns="http://www.w3.org/2000/svg">
<path d="M90.7013 69.4644C90.3326 68.7396 89.4849 68.4716 88.8083 68.8669C88.1316 69.262 87.8819 70.17 88.2507 70.8952C88.8779 72.1282 89.2092 73.5276 89.2092 74.9423V81.7667C89.2092 86.4383 85.6621 90.2388 81.302 90.2388H74.4108V66.4701H81.302C82.4023 66.4701 83.4662 66.7069 84.4643 67.1741C84.6461 67.2593 84.8357 67.2995 85.0223 67.2995C85.5602 67.2995 86.0726 66.9644 86.3016 66.4027C86.6103 65.646 86.2878 64.7645 85.5816 64.434C84.229 63.8009 82.7893 63.4799 81.3022 63.4799H80.936V56.8889H81.3855C83.2823 56.8889 84.8255 55.2356 84.8255 53.2033V46.9117C85.9462 46.8036 86.9571 46.1113 87.5067 45.058C87.8317 44.4488 87.9859 43.7505 87.9526 43.0353C87.3867 31.4264 82.726 20.596 74.8291 12.5392C66.9034 4.45309 56.5251 0 45.6053 0C35.8701 0 26.3541 3.63798 18.8104 10.2438C18.2136 10.7664 18.1254 11.7083 18.613 12.3476C19.1009 12.9871 19.98 13.0814 20.5764 12.5593C27.6232 6.3885 36.512 2.99012 45.6053 2.99012C55.8052 2.99012 65.5002 7.15038 72.9045 14.7046C80.2826 22.2322 84.637 32.349 85.1654 43.188C85.1721 43.3303 85.1445 43.4601 85.0774 43.5864C84.9624 43.8067 84.7535 43.9383 84.5185 43.9383H74.5877C74.2478 43.9383 73.9639 43.6636 73.9412 43.3125C72.9168 27.4374 60.4701 15.0019 45.6053 15.0019C30.7427 15.0019 18.296 27.4374 17.2692 43.3127C17.2467 43.6636 16.9635 43.9383 16.6249 43.9383H15.5458C15.5409 43.9383 15.5363 43.9375 15.5314 43.9375C15.5266 43.9375 15.522 43.9383 15.5171 43.9383H7.76693C7.7621 43.9383 7.75744 43.9375 7.75261 43.9375C7.74777 43.9375 7.74312 43.9383 7.73828 43.9383H6.69416C6.45787 43.9383 6.24819 43.8067 6.1267 43.5741C6.06604 43.4605 6.03869 43.3305 6.04521 43.1915C6.5202 33.4653 10.1664 24.1251 16.3123 16.8912C16.831 16.2806 16.7895 15.335 16.2198 14.7792C15.65 14.2234 14.7675 14.2679 14.2486 14.8783C7.66963 22.6213 3.76663 32.6211 3.25777 43.0387C3.22466 43.7507 3.37871 44.449 3.69723 45.0454C4.24794 46.1007 5.24704 46.7909 6.35703 46.9083V53.3697C6.35703 55.402 7.90015 57.0554 9.79713 57.0554H10.2465V63.4919C4.55642 63.7467 0 68.7836 0 74.9419V81.7665C0 88.0869 4.79903 93.2287 10.698 93.2287H17.7397C17.7604 93.3587 17.7806 93.4886 17.8057 93.6168C18.5775 97.5889 21.4529 100.783 25.1304 101.754C25.9042 101.959 26.7048 102.063 27.5099 102.063C30.1594 102.063 32.6492 100.957 34.5194 98.9508C36.3933 96.9456 37.4251 94.2782 37.4251 91.4392V76.3686C37.4251 75.5427 36.8004 74.8735 36.0297 74.8735C35.2591 74.8735 34.6343 75.5427 34.6343 76.3686V91.4392C34.6343 93.4785 33.8931 95.3949 32.5459 96.8364C31.2021 98.2786 29.4135 99.0728 27.51 99.0728C26.9305 99.0728 26.355 98.9982 25.7993 98.8511C23.1575 98.1536 21.0924 95.86 20.5377 93.005C20.4382 92.4973 20.3876 91.9706 20.3876 91.4396V65.2981C20.3876 64.7671 20.438 64.2402 20.5381 63.7305C21.0938 60.8775 23.159 58.5837 25.8 57.8862C26.3552 57.7395 26.9307 57.6649 27.5102 57.6649C31.4387 57.6649 34.6347 61.0892 34.6347 65.2983V69.8553C34.6347 70.6812 35.2595 71.3503 36.0301 71.3503C36.8007 71.3503 37.4255 70.6812 37.4255 69.8553V65.2983C37.4255 59.4405 32.9776 54.6748 27.5102 54.6748C26.7056 54.6748 25.9052 54.7787 25.1316 54.9832C21.4552 55.954 18.5799 59.148 17.8065 63.1179C17.783 63.2377 17.7643 63.3589 17.7447 63.4799H13.0374V57.0556H13.4867C15.3835 57.0556 16.9268 55.4022 16.9268 53.3699V46.9127C18.5898 46.7562 19.9372 45.3225 20.0533 43.5191C20.9791 29.2047 32.2028 17.9918 45.6053 17.9918C59.0096 17.9918 70.2334 29.2045 71.1571 43.5187C71.2727 45.3119 72.6054 46.7404 74.2558 46.9111V53.2033C74.2558 55.2356 75.7989 56.8889 77.6959 56.8889H78.1452V63.4799H74.2631C74.2437 63.3597 74.2251 63.2391 74.2019 63.1203C73.4301 59.1484 70.5547 55.9544 66.8768 54.9832C66.1028 54.7785 65.3024 54.6746 64.4978 54.6746C61.848 54.6746 59.3583 55.7804 57.4883 57.7865C55.6143 59.7915 54.5823 62.4591 54.5823 65.2981V91.4394C54.5823 97.2972 59.0303 102.063 64.4976 102.063C65.3017 102.063 66.1023 101.959 66.8761 101.754C70.5525 100.784 73.4279 97.5899 74.2011 93.6196C74.2264 93.4902 74.2471 93.3595 74.2677 93.2287H81.302C87.201 93.2287 92 88.0869 92 81.7665V74.9421C92 73.0292 91.5509 71.1351 90.7013 69.4644ZM2.79097 81.7667V74.9421C2.79097 70.2705 6.33805 66.4701 10.6982 66.4701H17.5968V90.2388H10.6982C6.33805 90.2388 2.79097 86.4381 2.79097 81.7667ZM13.4867 54.0654H9.79732C9.43936 54.0654 9.148 53.7535 9.148 53.3699V46.9284H14.1361V53.3699C14.1361 53.7533 13.8447 54.0654 13.4867 54.0654ZM77.0464 53.2033V46.9282H82.0345V53.2033C82.0345 53.5868 81.7433 53.8988 81.3854 53.8988H77.6957C77.3378 53.8988 77.0464 53.5866 77.0464 53.2033ZM66.2076 98.8513C65.6519 98.9982 65.0764 99.0728 64.4976 99.0728C60.5691 99.0728 57.3731 95.6485 57.3731 91.4394V65.2981C57.3731 63.2589 58.1143 61.3424 59.4617 59.901C60.8057 58.4589 62.5943 57.6647 64.4978 57.6647C65.0771 57.6647 65.6526 57.7393 66.2083 57.8862C68.8503 58.5839 70.9153 60.8775 71.4701 63.7323C71.5698 64.2404 71.6202 64.7671 71.6202 65.2979V91.4392C71.6202 91.5325 71.6167 91.6256 71.6135 91.7187C71.6135 91.7236 71.6128 91.7284 71.6128 91.7336L71.613 91.7384C71.5975 92.1676 71.5508 92.5928 71.4695 93.0066C70.9138 95.86 68.8486 98.154 66.2076 98.8513Z" fill="white"/>
</svg>
