<svg width="121" height="121" viewBox="0 0 121 121" fill="none" xmlns="http://www.w3.org/2000/svg">
<g clip-path="url(#clip0)">
<path d="M72.6946 12.6821C46.5956 5.68892 19.6753 21.2314 12.6821 47.3304C5.68892 73.4294 21.2313 100.35 47.3304 107.343C73.4294 114.336 100.35 98.7936 107.343 72.6946C114.336 46.5956 98.7936 19.6753 72.6946 12.6821Z" fill="#FFC107"/>
<path d="M57.6153 84.7343C57.0317 86.9124 54.7927 88.2051 52.6146 87.6215C50.4364 87.0378 49.1438 84.7989 49.7274 82.6207C50.311 80.4425 52.55 79.1499 54.7281 79.7335C56.9063 80.3172 58.199 82.5561 57.6153 84.7343Z" fill="#ECEFF1"/>
<path d="M65.5776 64.2172C64.0093 64.4859 62.7285 65.6521 62.3173 67.1868L61.8428 68.9577C61.2595 71.1344 59.0231 72.4293 56.842 71.8448C54.661 71.2604 53.3716 69.0208 53.9549 66.8441L54.4294 65.0733C55.6628 60.4699 59.4989 56.975 64.193 56.1653C68.7077 55.3926 72.9261 51.2594 73.5718 48.8494C75.028 43.4148 71.7926 37.8044 66.3536 36.3471C60.9147 34.8897 55.3075 38.1307 53.8513 43.5653C53.2679 45.7427 51.0307 47.0374 48.8497 46.453C46.6686 45.8686 45.3793 43.629 45.9627 41.4515C48.5846 31.6664 58.6815 25.8363 68.4674 28.4584C78.2533 31.0806 84.0824 41.178 81.4605 50.9631C80.0325 56.2923 73.3109 62.8866 65.5776 64.2172Z" fill="#FAFAFA"/>
</g>
<defs>
<clipPath id="clip0">
<rect width="98" height="98" fill="white" transform="translate(25.3643) rotate(15)"/>
</clipPath>
</defs>
</svg>
