<svg width="118" height="118" viewBox="0 0 118 118" fill="none" xmlns="http://www.w3.org/2000/svg">
<path d="M54.1961 107.251L38.5329 103.054L39.4948 96.2589C35.0192 93.9563 30.9575 90.8407 27.5803 87.1236L21.4353 89.7138L13.3288 75.6729L18.6445 71.6463C17.114 66.8631 16.4464 61.7877 16.6903 56.7604L10.3249 54.196L14.5218 38.5328L21.3167 39.4947C23.6192 35.0191 26.7349 30.9574 30.452 27.5802L27.8618 21.4352L41.9026 13.3288L45.9292 18.6444C50.7125 17.114 55.7879 16.4464 60.8151 16.6903L63.3795 10.3248L79.0427 14.5218L78.0808 21.3166C82.5564 23.6192 86.6181 26.7348 89.9953 30.4519L96.1403 27.8617L104.247 41.9026L98.9311 45.9292C100.462 50.7124 101.129 55.7878 100.885 60.8151L107.251 63.3795L103.054 79.0427L96.259 78.0808C93.9564 82.5564 90.8407 86.6181 87.1237 89.9953L89.7139 96.1403L75.673 104.247L71.6464 98.9311C66.8631 100.462 61.7877 101.129 56.7605 100.885L54.1961 107.251Z" fill="#F3F5F9"/>
<path d="M98.9312 45.9292L104.247 41.9026L96.1404 27.8617L89.9954 30.4519C86.6182 26.7349 82.5565 23.619 78.0809 21.3166L79.0428 14.5218L71.2112 12.4233L46.3646 105.152L54.1962 107.251L56.7605 100.885C61.7878 101.129 66.8632 100.462 71.6465 98.9311L75.6731 104.247L89.7139 96.1403L87.1237 89.9953C90.8408 86.6181 93.9566 82.5565 96.259 78.0808L103.054 79.0427L107.251 63.3795L100.885 60.8151C101.129 55.7878 100.462 50.7125 98.9312 45.9292Z" fill="#E1E6F0"/>
<path d="M39.4333 33.2197L47.5833 35.4035L46.1275 40.8368L37.9775 38.6531L39.4333 33.2197Z" fill="#4D6666"/>
<path d="M58.45 38.3154L88.3333 46.3226L86.8774 51.756L56.9941 43.7488L58.45 38.3154Z" fill="#4D6666"/>
<path d="M35.0657 49.5195L64.949 57.5267L63.4931 62.9601L33.6098 54.9529L35.0657 49.5195Z" fill="#4D6666"/>
<path d="M75.8157 60.4385L83.9657 62.6223L82.5098 68.0556L74.3598 65.8718L75.8157 60.4385Z" fill="#3A4D4D"/>
<path d="M30.6982 65.8198L38.8482 68.0036L37.3924 73.4369L29.2424 71.2532L30.6982 65.8198Z" fill="#4D6666"/>
<path d="M49.7148 70.915L79.5982 78.9223L78.1423 84.3556L48.259 76.3484L49.7148 70.915Z" fill="#4D6666"/>
<path d="M55.1482 72.3711L79.5982 78.9225L78.1423 84.3558L53.6923 77.8044L55.1482 72.3711Z" fill="#3A4D4D"/>
<path d="M59.5156 56.0708L64.949 57.5267L63.4931 62.96L58.0598 61.5041L59.5156 56.0708Z" fill="#3A4D4D"/>
<path d="M63.8833 39.771L88.3333 46.3224L86.8774 51.7557L62.4274 45.2043L63.8833 39.771Z" fill="#3A4D4D"/>
<path d="M50.1049 47.726C45.6108 46.5218 42.9345 41.8863 44.1387 37.3922C45.3429 32.8981 49.9784 30.2218 54.4725 31.426C58.9666 32.6302 61.6429 37.2657 60.4387 41.7598C59.2345 46.2538 54.599 48.9302 50.1049 47.726Z" fill="#FF7F40"/>
<path d="M67.4707 69.8495C62.9766 68.6453 60.3003 64.0098 61.5044 59.5157C62.7086 55.0216 67.3441 52.3453 71.8382 53.5495C76.3323 54.7537 79.0086 59.3892 77.8044 63.8833C76.6003 68.3774 71.9648 71.0537 67.4707 69.8495Z" fill="#F25A3C"/>
<path d="M41.3698 80.3261C36.8757 79.1219 34.1994 74.4864 35.4036 69.9923C36.6078 65.4982 41.2433 62.8219 45.7374 64.0261C50.2315 65.2303 52.9078 69.8658 51.7036 74.3599C50.4994 78.8539 45.8639 81.5303 41.3698 80.3261Z" fill="#FF7F40"/>
</svg>
