<svg width="70" height="107" viewBox="0 0 70 107" fill="none" xmlns="http://www.w3.org/2000/svg">
<path fill-rule="evenodd" clip-rule="evenodd" d="M52.0622 16.4662C53.0702 12.7043 50.817 8.80164 47.0551 7.79365C43.2933 6.78567 39.3906 9.03889 38.3826 12.8007L37.4662 16.2207C36.9977 17.9692 37.2337 19.748 37.9983 21.2524C38.8788 22.9851 40.46 24.3536 42.4734 24.893C44.4867 25.4325 46.5404 25.0378 48.1692 23.9777C49.5834 23.0571 50.6773 21.6346 51.1458 19.8861L52.0622 16.4662Z" fill="#FFDCD5"/>
<path fill-rule="evenodd" clip-rule="evenodd" d="M48.1691 23.9775C46.5403 25.0378 44.4867 25.4323 42.4733 24.8928C40.4599 24.3534 38.8786 22.9846 37.9986 21.2519C33.4249 22.0851 29.4902 25.4674 28.2127 30.2352L27.0598 34.5376L50.9992 40.9521L52.1521 36.6497C53.4295 31.8823 51.7133 26.9856 48.1691 23.9775Z" fill="#FFC144"/>
<path fill-rule="evenodd" clip-rule="evenodd" d="M57.5181 42.6992L20.5412 32.7913C19.5244 32.5188 18.4695 33.1279 18.197 34.1447L16.7108 39.6913C16.4383 40.7081 17.0472 41.763 18.0642 42.0355L55.0411 51.9434C56.058 52.2159 57.1129 51.6068 57.3853 50.59L58.8715 45.0434C59.144 44.0266 58.5349 42.9717 57.5181 42.6992Z" fill="#E3EAEF"/>
<path fill-rule="evenodd" clip-rule="evenodd" d="M55.0409 51.9435L18.0642 42.0356L7.89104 94.7939L37.4722 102.72L55.0409 51.9435ZM23.3476 58.1865C25.1783 57.1294 27.5195 57.7568 28.5763 59.5875L30.1681 62.3446L38.2958 57.6521C40.1266 56.5952 42.4676 57.2225 43.5245 59.0531C44.5813 60.8839 43.9541 63.2249 42.1234 64.2818L30.6808 70.8882C28.8502 71.9451 26.509 71.3178 25.4521 69.4872L21.9464 63.4152C20.8897 61.5846 21.517 59.2436 23.3476 58.1865Z" fill="#6D91AC"/>
<path fill-rule="evenodd" clip-rule="evenodd" d="M38.2958 57.652L30.1681 62.3445L28.5763 59.5875C27.5193 57.7566 25.1783 57.1293 23.3476 58.1864C21.517 59.2433 20.8897 61.5845 21.9466 63.4151L25.4523 69.4872C26.5092 71.3178 28.8504 71.9451 30.681 70.8882L42.1237 64.2818C43.9543 63.2249 44.5816 60.8837 43.5247 59.0531C42.4677 57.2222 40.1267 56.5949 38.2958 57.652Z" fill="#CBE558"/>
<path d="M58.0131 40.8502L53.3432 39.5988L54.0006 37.1453C55.2448 32.5019 54.088 27.651 50.9816 24.0767C51.9078 23.0535 52.6132 21.8039 52.9943 20.3816L53.9108 16.9614C55.1945 12.1705 52.3412 7.22844 47.5501 5.94468C42.7592 4.66096 37.8173 7.51434 36.5336 12.3052L35.6171 15.7254C35.236 17.1477 35.2222 18.5824 35.5126 19.9316C31.0349 21.4733 27.6085 25.095 26.3639 29.74L25.7064 32.1936L21.0364 30.9423C18.9976 30.396 16.8943 31.6103 16.348 33.6492L14.8618 39.1957C14.4854 40.6006 14.9452 42.0356 15.9344 42.9712L6.01161 94.431C5.82152 95.4171 6.4258 96.3825 7.3957 96.6424L36.9767 104.569C37.9466 104.828 38.9526 104.295 39.281 103.346L56.4176 53.8187C57.742 53.503 58.8578 52.49 59.2342 51.0852L60.7204 45.5387C61.2663 43.4997 60.052 41.3965 58.0131 40.8502ZM40.2312 13.296C40.9686 10.544 43.8073 8.90495 46.5593 9.64235C49.3115 10.3798 50.9505 13.2186 50.2131 15.9706L49.2967 19.3908C48.5593 22.1428 45.7204 23.7818 42.9684 23.0444C40.2164 22.307 38.5774 19.4682 39.3148 16.7162L40.2312 13.296ZM30.0615 30.7308C31.0038 27.2143 33.6581 24.498 37.1078 23.4374C38.2744 25.0006 39.9519 26.1991 41.9779 26.742C44.0036 27.2848 46.0555 27.0855 47.8473 26.3152C50.3046 28.9586 51.245 32.6393 50.3031 36.1545L49.6457 38.6081L29.4041 33.1844L30.0615 30.7308ZM36.2458 100.41L10.1079 93.406L19.5543 44.4162L27.738 46.609C28.7589 46.8825 29.8086 46.2767 30.0822 45.2556C30.3559 44.2344 29.7497 43.1849 28.7288 42.9113L18.5595 40.1865L20.0457 34.64L57.0224 44.5478L55.5362 50.0943L45.3683 47.3699C44.3474 47.0963 43.2977 47.7022 43.0241 48.7233C42.7505 49.7444 43.3566 50.794 44.3775 51.0675L52.5597 53.26L36.2458 100.41Z" fill="black"/>
<path d="M41.6956 55.4207C40.2141 55.0238 38.6668 55.2276 37.3386 55.9943L30.8685 59.7298L30.2339 58.6304C29.467 57.3022 28.2289 56.3521 26.7474 55.9552C25.2657 55.5582 23.7184 55.7618 22.3904 56.5287C21.0621 57.2956 20.1121 58.5338 19.7151 60.0153C19.3182 61.4967 19.5218 63.044 20.2888 64.3721L23.7943 70.4441C24.5859 71.815 25.8612 72.7362 27.2815 73.1167C28.7017 73.4973 30.2667 73.3372 31.6378 72.5458L43.0805 65.9393C45.8223 64.3563 46.7651 60.8376 45.1822 58.0958C44.4152 56.7679 43.1771 55.8177 41.6956 55.4207ZM41.1664 62.6243L29.7237 69.2307C28.8101 69.7583 27.6371 69.4442 27.1096 68.5303L23.6041 62.4583C23.3484 62.0156 23.2805 61.5001 23.4128 61.0062C23.545 60.5126 23.8617 60.0999 24.3045 59.8442C24.7471 59.5887 25.2627 59.5207 25.7565 59.6531C26.2504 59.7854 26.6631 60.102 26.9184 60.5446L28.5102 63.3017C28.764 63.7412 29.1821 64.0621 29.6724 64.1935C30.1628 64.3248 30.6851 64.256 31.1249 64.0022L39.2526 59.3097C40.1664 58.7821 41.3389 59.0963 41.8667 60.0101C42.3944 60.924 42.0802 62.0967 41.1664 62.6243Z" fill="black"/>
<path d="M36.0585 48.8388C37.0794 49.1124 38.1291 48.5065 38.4027 47.4853C38.6763 46.4642 38.0702 45.4147 37.0493 45.1411L37.0478 45.1407C36.0269 44.8671 34.9779 45.4732 34.7043 46.4944C34.4307 47.5155 35.0374 48.5652 36.0585 48.8388Z" fill="black"/>
</svg>
