<svg width="92" height="84" viewBox="0 0 92 84" fill="none" xmlns="http://www.w3.org/2000/svg">
<path d="M8.08594 9.58594H21.7422C22.4035 9.58594 22.9375 10.1199 22.9375 10.7812C22.9375 11.4426 22.4035 11.9766 21.7422 11.9766H8.08594C7.42458 11.9766 6.89062 11.4426 6.89062 10.7812C6.89062 10.1199 7.42458 9.58594 8.08594 9.58594Z" stroke="white" stroke-width="3"/>
<path d="M8.08594 31.1484H21.7422C22.4035 31.1484 22.9375 31.6824 22.9375 32.3438C22.9375 33.0051 22.4035 33.5391 21.7422 33.5391H8.08594C7.42458 33.5391 6.89062 33.0051 6.89062 32.3438C6.89062 31.6824 7.42458 31.1484 8.08594 31.1484Z" stroke="white" stroke-width="3"/>
<path d="M2.69531 20.3672H16.3516C17.0129 20.3672 17.5469 20.9011 17.5469 21.5625C17.5469 22.2239 17.0129 22.7578 16.3516 22.7578H2.69531C2.03395 22.7578 1.5 22.2239 1.5 21.5625C1.5 20.9011 2.03395 20.3672 2.69531 20.3672Z" stroke="white" stroke-width="3"/>
<path d="M68.7579 32.3435V33.8435H70.2579H86.6094C88.7579 33.8435 90.5 35.5857 90.5 37.7341C90.5 39.8826 88.7579 41.6248 86.6094 41.6248H64.8672C62.7188 41.6248 60.9766 39.8826 60.9766 37.7341V34.5756V30.9543L58.4159 33.5149L49.8668 42.0641L48.8061 43.1248L49.8668 44.1854L62.2273 56.546C63.7473 58.0659 63.7473 60.5274 62.2273 62.0473L43.3601 80.9145C41.8402 82.4345 39.3786 82.4343 37.8587 80.9145C36.3388 79.3946 36.3388 76.9331 37.8587 75.4131L52.9146 60.3573L53.9752 59.2966L52.9146 58.236L40.554 45.8755C39.0341 44.3555 39.0341 41.8941 40.554 40.3741L62.1149 18.8132L62.1156 18.8125C64.563 16.3619 68.7579 18.1362 68.7579 21.5623V32.3435Z" stroke="white" stroke-width="3"/>
<path d="M57.5169 11.7431C57.0481 12.084 56.6007 12.4621 56.1811 12.8817L51.8173 17.2454L48.9113 15.1521L47.8761 14.4064L46.9739 15.3085L35.2741 27.0083C33.7541 28.5284 31.2925 28.5284 29.7725 27.0085C28.2526 25.4885 28.2526 23.0271 29.7725 21.5071L44.5967 6.68297C45.9037 5.37607 47.9486 5.16906 49.4964 6.19045L57.5169 11.7431Z" stroke="white" stroke-width="3"/>
<path d="M5.51498 75.413L32.3354 48.5926C32.9049 49.762 33.664 50.8506 34.6214 51.808L37.3721 54.5587L11.0164 80.9144C9.49642 82.4343 7.0348 82.4342 5.51498 80.9144C3.99501 79.3944 3.99501 76.9329 5.51498 75.413Z" stroke="white" stroke-width="3"/>
<path d="M79.5391 8.08594C79.5391 11.7233 76.5904 14.6719 72.9531 14.6719C69.3158 14.6719 66.3672 11.7233 66.3672 8.08594C66.3672 4.44862 69.3158 1.5 72.9531 1.5C76.5904 1.5 79.5391 4.44862 79.5391 8.08594Z" stroke="white" stroke-width="3"/>
</svg>
