<svg width="129" height="129" viewBox="0 0 129 129" fill="none" xmlns="http://www.w3.org/2000/svg">
<g clip-path="url(#clip0)">
<path fill-rule="evenodd" clip-rule="evenodd" d="M40.0732 12.5735C40.0732 7.48671 35.9112 3.32471 30.8244 3.32471C25.7377 3.32471 21.5757 7.48671 21.5757 12.5735V17.198C21.5757 19.5622 22.4747 21.7267 23.9479 23.3662C25.6444 25.2545 28.1019 26.4465 30.8244 26.4465C33.5469 26.4465 36.0044 25.2542 37.7009 23.3662C39.1739 21.7267 40.0732 19.5622 40.0732 17.198V12.5735Z" fill="#FFDCD5"/>
<path fill-rule="evenodd" clip-rule="evenodd" d="M37.7009 23.3662C36.0044 25.2545 33.5469 26.4465 30.8244 26.4465C28.1019 26.4465 25.6442 25.2542 23.9482 23.3657C18.4597 25.963 14.6389 31.5602 14.6389 38.0072V43.825H47.0097V38.0072C47.0097 31.5607 43.1892 25.9632 37.7009 23.3662Z" fill="#FFC144"/>
<path fill-rule="evenodd" clip-rule="evenodd" d="M55.8245 43.8252H5.82446C4.44946 43.8252 3.32446 44.9502 3.32446 46.3252V53.8252C3.32446 55.2002 4.44921 56.3252 5.82446 56.3252H55.8245C57.1995 56.3252 58.3245 55.2002 58.3245 53.8252V46.3252C58.3245 44.9502 57.1995 43.8252 55.8245 43.8252Z" fill="#E3EAEF"/>
<path fill-rule="evenodd" clip-rule="evenodd" d="M55.8243 56.3252H5.82446L10.8247 126.325H50.8243L55.8243 56.3252ZM17.9499 74.9154C19.9022 72.9629 23.0679 72.9629 25.0201 74.9154L27.9604 77.8556L36.6281 69.1879C38.5806 67.2357 41.7461 67.2357 43.6983 69.1879C45.6506 71.1404 45.6506 74.3059 43.6983 76.2581L31.4954 88.4611C29.5431 90.4133 26.3774 90.4133 24.4251 88.4611L17.9497 81.9856C15.9977 80.0334 15.9977 76.8679 17.9499 74.9154Z" fill="#6D91AC"/>
<path fill-rule="evenodd" clip-rule="evenodd" d="M36.6285 69.188L27.9608 77.8558L25.0205 74.9155C23.068 72.963 19.9025 72.963 17.9503 74.9155C15.998 76.8678 15.998 80.0335 17.9503 81.9857L24.4258 88.4613C26.378 90.4135 29.5438 90.4135 31.496 88.4613L43.699 76.2582C45.6513 74.306 45.6513 71.1403 43.699 69.188C41.7465 67.2355 38.581 67.2355 36.6285 69.188Z" fill="#CBE558"/>
<path fill-rule="evenodd" clip-rule="evenodd" d="M73.8247 56.3252H123.825C125.2 56.3252 126.325 55.2002 126.325 53.8252V46.3252C126.325 44.9502 125.2 43.8252 123.825 43.8252H73.8247C72.4497 43.8252 71.3247 44.9502 71.3247 46.3252V53.8252C71.3247 55.2002 72.4495 56.3252 73.8247 56.3252Z" fill="#E3EAEF"/>
<path fill-rule="evenodd" clip-rule="evenodd" d="M123.825 56.3252H73.8247L78.8249 126.325H118.825L123.825 56.3252ZM88.2179 68.2182C90.1624 66.2737 93.3444 66.2737 95.2889 68.2182L98.8244 71.7536L102.36 68.2182C104.304 66.2737 107.486 66.2737 109.431 68.2182C111.375 70.1626 111.375 73.3446 109.431 75.2891L105.896 78.8246L109.431 82.3601C111.376 84.3046 111.376 87.4866 109.431 89.4311C107.487 91.3756 104.305 91.3756 102.36 89.4311L98.8246 85.8956L95.2891 89.4311C93.3446 91.3756 90.1626 91.3756 88.2181 89.4311C86.2737 87.4866 86.2737 84.3043 88.2181 82.3601L91.7534 78.8246L88.2179 75.2891C86.2734 73.3446 86.2734 70.1626 88.2179 68.2182Z" fill="#6D91AC"/>
<path fill-rule="evenodd" clip-rule="evenodd" d="M102.36 68.2177L98.8246 71.7532L95.2891 68.2177C93.3446 66.2732 90.1626 66.2732 88.2181 68.2177C86.2736 70.1622 86.2736 73.3442 88.2181 75.2887L91.7534 78.8242L88.2179 82.3597C86.2734 84.3042 86.2734 87.4862 88.2179 89.4307C90.1624 91.3752 93.3444 91.3752 95.2889 89.4307L98.8244 85.8952L102.36 89.4307C104.304 91.3752 107.486 91.3752 109.431 89.4307C111.375 87.4862 111.375 84.304 109.431 82.3597L105.896 78.8242L109.431 75.2887C111.376 73.3442 111.376 70.1622 109.431 68.2177C107.487 66.273 104.305 66.2732 102.36 68.2177Z" fill="#FF5D7D"/>
<path fill-rule="evenodd" clip-rule="evenodd" d="M108.073 12.5735C108.073 7.48671 103.911 3.32471 98.8247 3.32471C93.7379 3.32471 89.5759 7.48671 89.5759 12.5735V17.198C89.5759 19.5622 90.4749 21.7267 91.9482 23.3662C93.6444 25.2545 96.1022 26.4465 98.8247 26.4465C101.547 26.4465 104.005 25.2542 105.701 23.3662C107.174 21.7267 108.073 19.5622 108.073 17.198V12.5735Z" fill="#FFDCD5"/>
<path fill-rule="evenodd" clip-rule="evenodd" d="M105.701 23.3662C104.005 25.2545 101.547 26.4465 98.8247 26.4465C96.1022 26.4465 93.6444 25.2542 91.9484 23.3657C86.4599 25.963 82.6392 31.5602 82.6392 38.0072V43.825H115.01V38.0072C115.01 31.5607 111.189 25.9632 105.701 23.3662Z" fill="#60A4FF"/>
<path d="M55.8242 41.325H49.5095V38.0073C49.5095 31.7286 46.4103 25.9996 41.2828 22.5404C42.1055 20.9364 42.573 19.1214 42.573 17.1981V12.5734C42.573 6.09519 37.3026 0.824707 30.8241 0.824707C24.3459 0.824707 19.0756 6.09519 19.0756 12.5734V17.1981C19.0756 19.1214 19.5431 20.9361 20.3656 22.5401C15.2377 25.9989 12.1392 31.7263 12.1392 38.0073V41.325H5.82444C3.06745 41.325 0.824463 43.568 0.824463 46.325V53.825C0.824463 55.7247 1.88971 57.3797 3.45395 58.2257L8.33118 126.503C8.42468 127.811 9.51343 128.825 10.8249 128.825H50.8243C52.1358 128.825 53.2245 127.811 53.318 126.503L58.1952 58.2257C59.7595 57.3797 60.8247 55.7245 60.8247 53.825V46.325C60.8242 43.568 58.5812 41.325 55.8242 41.325ZM24.0756 12.5734C24.0756 8.85217 27.1029 5.82469 30.8241 5.82469C34.5456 5.82469 37.5731 8.85217 37.5731 12.5734V17.1981C37.5731 20.9194 34.5456 23.9469 30.8243 23.9469C27.1031 23.9469 24.0756 20.9194 24.0756 17.1981V12.5734ZM17.1391 38.0073C17.1391 33.2523 19.5696 28.9281 23.5634 26.4239C25.5636 28.0016 28.0851 28.9466 30.8246 28.9466C33.5638 28.9466 36.0851 28.0016 38.0853 26.4241C42.079 28.9283 44.5098 33.2541 44.5098 38.0073V41.325H17.1391V38.0073ZM48.4963 123.825H13.1527L8.50943 58.825H19.5754C20.9559 58.825 22.0754 57.7057 22.0754 56.325C22.0754 54.9442 20.9559 53.825 19.5754 53.825H5.82444V46.325H55.8242V53.825H42.0753C40.6948 53.825 39.5753 54.9442 39.5753 56.325C39.5753 57.7057 40.6948 58.825 42.0753 58.825H53.1392L48.4963 123.825Z" fill="black"/>
<path d="M40.1633 65.2236C38.1601 65.2236 36.2768 66.0039 34.8603 67.4201L27.9603 74.3201L26.7881 73.1476C25.3716 71.7311 23.4883 70.9511 21.4851 70.9511C19.4816 70.9511 17.5983 71.7311 16.1821 73.1476C14.7656 74.5641 13.9856 76.4474 13.9856 78.4506C13.9856 80.4539 14.7656 82.3371 16.1821 83.7534L22.6573 90.2289C24.1196 91.6909 26.0398 92.4219 27.9603 92.4219C29.8808 92.4219 31.8011 91.6909 33.2633 90.2289L45.4663 78.0259C48.3903 75.1019 48.3903 70.3439 45.4663 67.4199C44.0498 66.0039 42.1666 65.2236 40.1633 65.2236ZM41.9308 74.4906L29.7278 86.6936C28.7536 87.6681 27.1676 87.6684 26.1931 86.6936L19.7178 80.2181C19.2456 79.7461 18.9856 79.1186 18.9856 78.4509C18.9856 77.7834 19.2456 77.1556 19.7178 76.6834C20.1898 76.2114 20.8173 75.9514 21.4851 75.9514C22.1528 75.9514 22.7806 76.2114 23.2523 76.6834L26.1926 79.6236C26.6613 80.0924 27.2973 80.3559 27.9603 80.3559C28.6233 80.3559 29.2591 80.0924 29.7281 79.6236L38.3958 70.9559C39.3703 69.9814 40.9558 69.9814 41.9306 70.9559C42.9053 71.9304 42.9053 73.5161 41.9308 74.4906Z" fill="black"/>
<path d="M123.824 41.325H117.51V38.0073C117.51 31.7286 114.411 25.9994 109.283 22.5404C110.106 20.9364 110.573 19.1214 110.573 17.1981V12.5734C110.573 6.09519 105.303 0.824707 98.8243 0.824707C92.3461 0.824707 87.0759 6.09519 87.0759 12.5734V17.1981C87.0759 19.1211 87.5434 20.9361 88.3659 22.5399C83.2379 25.9989 80.1392 31.7263 80.1392 38.0073V41.325H73.8247C71.0677 41.325 68.8247 43.568 68.8247 46.325V53.825C68.8247 55.7247 69.8899 57.3797 71.4542 58.2257L76.3314 126.503C76.4249 127.811 77.5137 128.825 78.8252 128.825H118.825C120.136 128.825 121.225 127.811 121.318 126.503L126.195 58.2257C127.76 57.3797 128.825 55.7245 128.825 53.825V46.325C128.824 43.568 126.581 41.325 123.824 41.325ZM92.0759 12.5734C92.0759 8.85217 95.1031 5.82469 98.8243 5.82469C102.546 5.82469 105.573 8.85217 105.573 12.5734V17.1981C105.573 20.9194 102.546 23.9469 98.8246 23.9469C95.1034 23.9469 92.0759 20.9194 92.0759 17.1981V12.5734ZM85.1391 38.0073C85.1391 33.2526 87.5696 28.9281 91.5636 26.4239C93.5639 28.0016 96.0851 28.9466 98.8246 28.9466C101.564 28.9466 104.085 28.0016 106.085 26.4241C110.079 28.9283 112.51 33.2541 112.51 38.0073V41.325H85.1391V38.0073ZM123.824 46.3248V53.8247H73.8247L73.8242 46.3248H123.824ZM116.496 123.825H81.1527L76.5094 58.825H121.139L116.496 123.825Z" fill="black"/>
<path d="M111.199 66.4499C108.275 63.5259 103.517 63.5257 100.592 66.4499L98.8245 68.2177L97.0568 66.4499C95.6443 65.0372 93.7608 64.2592 91.7535 64.2592C89.7463 64.2592 87.8628 65.0372 86.45 66.4497C83.5258 69.3739 83.5258 74.1322 86.45 77.0564L88.2175 78.8239L86.45 80.5917C83.5258 83.5159 83.5258 88.2742 86.45 91.1984C87.8628 92.6109 89.7463 93.3889 91.7535 93.3889C93.7608 93.3889 95.6443 92.6109 97.0568 91.1984L98.8245 89.4307L100.592 91.1984C102.054 92.6604 103.975 93.3914 105.896 93.3914C107.816 93.3914 109.737 92.6604 111.199 91.1984C114.123 88.2742 114.123 83.5159 111.199 80.5917L109.431 78.8244L111.199 77.0569C114.123 74.1324 114.123 69.3744 111.199 66.4499ZM104.128 80.5922L107.663 84.1279C108.132 84.5962 108.39 85.2239 108.39 85.8957C108.39 86.5674 108.132 87.1952 107.663 87.6634C106.689 88.6382 105.103 88.6379 104.128 87.6634L100.592 84.1279C100.124 83.6592 99.4875 83.3957 98.8245 83.3957C98.1615 83.3957 97.5258 83.6592 97.0568 84.1279L93.521 87.6637C93.0528 88.1319 92.425 88.3897 91.7535 88.3897C91.0815 88.3897 90.454 88.1319 89.9858 87.6634C89.011 86.6887 89.011 85.1027 89.9858 84.1279L93.5213 80.5924C94.4975 79.6162 94.4975 78.0332 93.5213 77.0569L89.9858 73.5214C89.5175 73.0532 89.2595 72.4254 89.2595 71.7537C89.2595 71.0819 89.5175 70.4542 89.9858 69.9859C90.454 69.5174 91.0818 69.2597 91.7535 69.2597C92.4253 69.2597 93.0528 69.5174 93.521 69.9859L97.0568 73.5214C97.5258 73.9902 98.1615 74.2537 98.8245 74.2537C99.4875 74.2537 100.124 73.9902 100.592 73.5214L104.128 69.9859C105.102 69.0114 106.688 69.0112 107.663 69.9859C108.638 70.9607 108.638 72.5467 107.663 73.5214L104.128 77.0569C103.152 78.0329 103.152 79.6159 104.128 80.5922Z" fill="black"/>
<path d="M30.8264 58.8252C32.2069 58.8252 33.3264 57.706 33.3264 56.3252C33.3264 54.9444 32.2069 53.8252 30.8264 53.8252H30.8244C29.4439 53.8252 28.3254 54.9444 28.3254 56.3252C28.3254 57.706 29.4457 58.8252 30.8264 58.8252Z" fill="black"/>
</g>
<defs>
<clipPath id="clip0">
<rect width="128" height="128" fill="white" transform="translate(0.824463 0.824707)"/>
</clipPath>
</defs>
</svg>
