<svg width="92" height="123" viewBox="0 0 92 123" fill="none" xmlns="http://www.w3.org/2000/svg">
<path d="M85.7682 110.977L64.7346 104.017V97.6351C66.7355 96.2465 68.5801 94.6764 70.2235 92.9454C70.9446 92.1858 70.8408 91.0469 69.9916 90.4016C69.1428 89.7562 67.8694 89.8493 67.1483 90.609C63.6641 94.2792 59.1752 97.1495 54.1672 98.9099L46.821 101.492C46.3858 101.645 45.9065 101.645 45.4711 101.492L38.1246 98.9099C31.9751 96.7484 26.7581 93.0241 23.0372 88.1397C19.3165 83.2556 17.3495 77.5496 17.3495 71.639V60.0544C18.8474 60.4153 20.419 60.6121 22.0406 60.6191V71.2947C22.0406 75.4995 24.8336 79.3603 29.0635 81.1134L30.0638 82.7602C31.5378 85.1871 34.1291 86.8438 37.1733 87.305C40.2172 87.7665 43.2741 86.9662 45.5596 85.1091L46.2815 84.5225L47.0034 85.1091C48.8647 86.6214 51.237 87.433 53.6981 87.433C54.2589 87.433 54.8246 87.3909 55.3897 87.3053C58.4336 86.8438 61.0252 85.1873 62.4994 82.7602L63.4997 81.1134C67.7296 79.3603 70.5226 75.4998 70.5226 71.2949V60.6006C72.0522 60.5327 73.5324 60.2952 74.9423 59.9119V71.6393C74.9423 76.0869 73.7839 80.5489 71.5926 84.5427C71.1017 85.4373 71.5143 86.5187 72.5146 86.9578C72.8005 87.0834 73.1034 87.1429 73.4019 87.1429C74.1473 87.1429 74.8641 86.7718 75.2143 86.133C77.6759 81.6469 78.9769 76.635 78.9769 71.639V71.0639H81.828C85.2762 71.0639 88.0819 68.554 88.0819 65.469V58.1961C88.0819 56.153 86.4019 54.459 84.2141 54.1493C86.5896 51.376 88.0055 47.912 88.0055 44.1562C88.0055 39.5062 85.8362 35.3035 82.3595 32.3064L83.7926 26.0736C84.4803 23.0808 84.4104 20.0725 83.5844 17.1322C83.313 16.1654 82.2167 15.5782 81.1362 15.8217C80.0558 16.0645 79.4 17.0451 79.6717 18.0119C80.3487 20.4219 80.4054 22.8897 79.8406 25.3467L78.7935 29.9011C76.0863 28.4983 72.9476 27.691 69.6006 27.691H32.484C31.3699 27.691 30.4667 28.499 30.4667 29.4957C30.4667 30.4923 31.3699 31.3003 32.484 31.3003H69.6003C77.5242 31.3003 83.9709 37.0675 83.9709 44.1562C83.9709 51.2448 77.5242 57.012 69.6003 57.012H55.9048C55.5712 57.012 55.2563 56.8813 55.0408 56.6537L51.6975 53.119C50.5923 51.9503 48.9769 51.2802 47.2654 51.2802H44.4651C42.7539 51.2802 41.1385 51.9503 40.0333 53.119L36.6899 56.6537C36.4745 56.8813 36.1598 57.012 35.8263 57.012H22.131C14.2071 57.012 7.76038 51.2448 7.76038 44.1562C7.76038 37.0675 14.2071 31.3003 22.131 31.3003H23.8871C25.0012 31.3003 25.9044 30.4923 25.9044 29.4957C25.9044 28.499 25.0012 27.691 23.8871 27.691H22.131C20.0384 27.691 18.0287 28.0094 16.1528 28.5876L12.5599 17.0114C11.0851 12.2601 12.7493 7.19602 16.8046 3.91493L18.8167 6.45106C19.8109 7.70396 21.588 8.27423 23.2411 7.86951C34.3192 5.15484 47.4545 4.41541 63.3962 5.60865C68.4953 5.99027 73.055 8.18184 76.2356 11.7796C76.9265 12.5614 78.1953 12.6939 79.0692 12.0755C79.9431 11.4574 80.0913 10.3224 79.4 9.54061C75.5195 5.15147 69.9556 2.47746 63.7321 2.01162C47.3116 0.78278 33.7173 1.55998 22.1751 4.38823C22.1512 4.39352 22.1232 4.38317 22.1065 4.362L19.635 1.24694C19.1072 0.581863 18.2866 0.137197 17.3834 0.0269936C16.4807 -0.0834508 15.5563 0.148266 14.8489 0.66247C9.12326 4.82254 6.69875 11.6191 8.6722 17.9772L12.4534 30.1593C7.21975 33.0658 3.7258 38.2521 3.7258 44.1564C3.7258 47.9286 5.15458 51.4058 7.54843 54.1852C5.47708 54.5796 3.91812 56.2276 3.91812 58.1963V65.4695C3.91812 68.5545 6.72376 71.0644 10.1723 71.0644H13.3155V71.6395C13.3155 78.2782 15.5245 84.6871 19.7035 90.173C21.8906 93.0436 24.5413 95.5535 27.5578 97.6457V104.012L6.26248 110.984C2.51677 112.211 0 115.432 0 119V121.195C0 122.192 0.903208 123 2.01729 123C3.13137 123 4.03458 122.192 4.03458 121.195V119C4.03458 116.941 5.48703 115.081 7.64903 114.374L10.9017 113.309V121.195C10.9017 122.192 11.8049 123 12.919 123C14.0331 123 14.9363 122.192 14.9363 121.195V111.988L20.1909 110.267V121.195C20.1909 122.192 21.0941 123 22.2082 123C23.3223 123 24.2255 122.192 24.2255 121.195V108.946L29.4228 107.245C30.8304 107.899 32.2651 108.484 33.6987 108.988L41.0451 111.57C42.6813 112.145 44.3973 112.437 46.1459 112.437C47.8945 112.437 49.6108 112.145 51.2472 111.57L58.5939 108.988C60.0257 108.485 61.459 107.9 62.866 107.247L67.7745 108.871V121.195C67.7745 122.192 68.6774 123 69.7918 123C70.9061 123 71.8091 122.192 71.8091 121.195V110.206L77.0637 111.945V121.195C77.0637 122.192 77.9667 123 79.081 123C80.1954 123 81.0983 122.192 81.0983 121.195V113.28L84.3687 114.362C86.52 115.074 87.9654 116.931 87.9654 118.983V121.195C87.9654 122.192 88.8684 123 89.9827 123C91.0971 123 92 122.192 92 121.195V118.983C92 115.428 89.4959 112.21 85.7682 110.977ZM58.9546 81.0371C58.0756 82.484 56.5307 83.4717 54.7159 83.7467C52.9003 84.0218 51.0791 83.5446 49.7163 82.4378L47.6379 80.7491C46.8689 80.124 45.6946 80.1237 44.9256 80.7491L42.8475 82.4378C41.4852 83.5449 39.6632 84.0223 37.8479 83.7467C36.0331 83.4717 34.4881 82.484 33.6094 81.0374L32.0633 78.4921C33.5475 78.4907 34.9752 77.989 36.0761 77.0633L38.889 74.6982C40.413 73.4169 42.7483 73.2834 44.4423 74.3799L45.0988 74.8051C45.8041 75.2618 46.7581 75.262 47.4639 74.8051L48.1204 74.3799C49.8144 73.2832 52.1499 73.4172 53.6736 74.698L56.4868 77.0635C57.5883 77.9892 59.0154 78.4909 60.4996 78.4923L58.9546 81.0371ZM84.0473 65.469C84.0473 66.5639 83.0518 67.4546 81.828 67.4546H78.9769V58.3164C79.3546 58.1155 79.723 57.9025 80.0827 57.6785C80.1868 57.6934 80.2927 57.7033 80.4014 57.7033H83.4965C83.8001 57.7033 84.0473 57.9242 84.0473 58.1961V65.469ZM39.7702 58.9851L43.1135 55.4504C43.4506 55.094 43.9433 54.8895 44.4654 54.8895H47.2657C47.7877 54.8895 48.2805 55.094 48.6175 55.4504L51.9608 58.9851C52.9445 60.025 54.3821 60.6213 55.9048 60.6213H66.4883V71.2947C66.4883 72.9923 65.8016 74.6027 64.6359 75.8701C63.95 75.0325 62.8211 74.6044 61.6661 74.7517L60.7785 74.865C60.218 74.9367 59.662 74.7789 59.2505 74.4331L56.4373 72.0678C53.6613 69.7338 49.4841 69.3796 46.2817 71.1412C43.0796 69.3796 38.9028 69.7335 36.1262 72.0678L33.3133 74.4328C32.9015 74.7789 32.3436 74.9365 31.7852 74.865L30.6122 74.7151C29.5294 74.577 28.4731 74.9726 27.8163 75.7452C26.7186 74.4981 26.0758 72.9372 26.0758 71.2947V60.6213H35.8263C37.3492 60.6213 38.7868 60.0248 39.7702 58.9851ZM10.1723 67.4546C8.94843 67.4546 7.9527 66.5639 7.9527 65.469V58.1961C7.9527 57.9244 8.19961 57.7033 8.50355 57.7033H11.5986C11.6266 57.7033 11.6535 57.7006 11.6812 57.6994C12.2073 58.0252 12.7514 58.3289 13.3152 58.6054V67.4546H10.1723ZM57.1186 105.628L49.7722 108.211C47.4437 109.029 44.8489 109.029 42.5207 108.211L35.1743 105.628C33.9757 105.207 32.7756 104.721 31.5926 104.183V100.081C33.2038 100.919 34.8924 101.651 36.6496 102.269L43.996 104.851C44.6894 105.095 45.4178 105.217 46.1462 105.217C46.8746 105.217 47.6032 105.095 48.2966 104.851L55.6428 102.269C57.3906 101.655 59.0816 100.92 60.7003 100.075V104.183C59.5168 104.722 58.3166 105.207 57.1186 105.628Z" fill="white"/>
<path d="M40.1765 40.9405L43.0427 38.9836H48.6892L51.5556 40.9405C51.9209 41.19 52.351 41.3108 52.7778 41.3108C53.3854 41.3108 53.9861 41.0664 54.3831 40.601C55.059 39.8086 54.889 38.6763 54.0033 38.0716L50.7697 35.8637C50.3079 35.5482 49.7336 35.3745 49.1526 35.3745H42.5795C41.9993 35.3745 41.4259 35.5478 40.9635 35.8632L37.7291 38.0719C36.8434 38.6765 36.6734 39.8091 37.3493 40.6013C38.0253 41.3934 39.2908 41.545 40.1765 40.9405Z" fill="white"/>
<path d="M30.5027 38.2227H17.2023C16.0883 38.2227 15.1851 39.0307 15.1851 40.0273C15.1851 41.024 16.0883 41.832 17.2023 41.832H30.5027C31.6168 41.832 32.52 41.024 32.52 40.0273C32.52 39.0307 31.6168 38.2227 30.5027 38.2227Z" fill="white"/>
<path d="M17.2023 46.417C16.0883 46.417 15.1851 47.225 15.1851 48.2216C15.1851 49.2183 16.0883 50.0263 17.2023 50.0263H18.0951C19.2091 50.0263 20.1124 49.2183 20.1124 48.2216C20.1124 47.225 19.2091 46.417 18.0951 46.417H17.2023Z" fill="white"/>
<path d="M25.6003 46.417C24.4862 46.417 23.583 47.225 23.583 48.2216C23.583 49.2183 24.4862 50.0263 25.6003 50.0263H30.771C31.8851 50.0263 32.7883 49.2183 32.7883 48.2216C32.7883 47.225 31.8851 46.417 30.771 46.417H25.6003Z" fill="white"/>
<path d="M76.6179 48.6811C77.6698 49.0114 78.8202 48.5158 79.1893 47.5754C79.621 46.4743 79.8399 45.3239 79.8399 44.156C79.8399 38.4598 74.6595 33.8257 68.2921 33.8257C61.9248 33.8257 56.7446 38.4598 56.7446 44.156C56.7446 49.8522 61.9248 54.4863 68.2921 54.4863C69.3137 54.4863 70.3326 54.3647 71.3208 54.1248C72.3958 53.864 73.0312 52.8727 72.7393 51.9107C72.4475 50.9487 71.3396 50.3806 70.2642 50.6414C69.6203 50.7976 68.957 50.877 68.2921 50.877C64.1497 50.877 60.7792 47.862 60.7792 44.156C60.7792 40.4499 64.1494 37.435 68.2921 37.435C72.4348 37.435 75.8053 40.4499 75.8053 44.156C75.8053 44.9161 75.663 45.6647 75.3822 46.381C75.0132 47.3213 75.5668 48.3512 76.6179 48.6811Z" fill="white"/>
</svg>
