<svg width="59" height="28" viewBox="0 0 59 28" fill="none" xmlns="http://www.w3.org/2000/svg">
<path d="M0.5 14C0.5 6.54416 6.54416 0.5 14 0.5L45 0.5C52.4558 0.5 58.5 6.54416 58.5 14V14C58.5 21.4558 52.4558 27.5 45 27.5L14 27.5C6.54416 27.5 0.5 21.4558 0.5 14V14Z" fill="#747474"/>
<path d="M0.5 14C0.5 6.54416 6.54416 0.5 14 0.5L45 0.5C52.4558 0.5 58.5 6.54416 58.5 14V14C58.5 21.4558 52.4558 27.5 45 27.5L14 27.5C6.54416 27.5 0.5 21.4558 0.5 14V14Z" fill="#747474"/>
<path d="M0.5 14C0.5 6.54416 6.54416 0.5 14 0.5L45 0.5C52.4558 0.5 58.5 6.54416 58.5 14V14C58.5 21.4558 52.4558 27.5 45 27.5L14 27.5C6.54416 27.5 0.5 21.4558 0.5 14V14Z" fill="#747474"/>
<path d="M0.5 14C0.5 6.54416 6.54416 0.5 14 0.5L45 0.5C52.4558 0.5 58.5 6.54416 58.5 14V14C58.5 21.4558 52.4558 27.5 45 27.5L14 27.5C6.54416 27.5 0.5 21.4558 0.5 14V14Z" fill="#747474"/>
<path d="M3.5 14C3.5 8.20101 8.20101 3.5 14 3.5V3.5C19.799 3.5 24.5 8.20101 24.5 14V14C24.5 19.799 19.799 24.5 14 24.5V24.5C8.20101 24.5 3.5 19.799 3.5 14V14Z" fill="white"/>
<path d="M34.5 14C34.5 8.20101 39.201 3.5 45 3.5V3.5C50.799 3.5 55.5 8.20101 55.5 14V14C55.5 19.799 50.799 24.5 45 24.5V24.5C39.201 24.5 34.5 19.799 34.5 14V14Z" fill="black"/>
</svg>
