<svg width="63" height="88" viewBox="0 0 63 88" fill="none" xmlns="http://www.w3.org/2000/svg">
<path d="M31.5 30C38.9558 30 45 36.0442 45 43.5L45 74.5C45 81.9558 38.9558 88 31.5 88V88C24.0442 88 18 81.9558 18 74.5L18 43.5C18 36.0442 24.0442 30 31.5 30V30Z" fill="#747474"/>
<path d="M31.5 30C38.9558 30 45 36.0442 45 43.5L45 74.5C45 81.9558 38.9558 88 31.5 88V88C24.0442 88 18 81.9558 18 74.5L18 43.5C18 36.0442 24.0442 30 31.5 30V30Z" fill="#747474"/>
<path d="M31.5 30C38.9558 30 45 36.0442 45 43.5L45 74.5C45 81.9558 38.9558 88 31.5 88V88C24.0442 88 18 81.9558 18 74.5L18 43.5C18 36.0442 24.0442 30 31.5 30V30Z" fill="#747474"/>
<path d="M31.5 30C38.9558 30 45 36.0442 45 43.5L45 74.5C45 81.9558 38.9558 88 31.5 88V88C24.0442 88 18 81.9558 18 74.5L18 43.5C18 36.0442 24.0442 30 31.5 30V30Z" fill="#747474"/>
<path d="M31.5 33C37.299 33 42 37.701 42 43.5V43.5C42 49.299 37.299 54 31.5 54V54C25.701 54 21 49.299 21 43.5V43.5C21 37.701 25.701 33 31.5 33V33Z" fill="white"/>
<path d="M31.5 64C37.299 64 42 68.701 42 74.5V74.5C42 80.299 37.299 85 31.5 85V85C25.701 85 21 80.299 21 74.5V74.5C21 68.701 25.701 64 31.5 64V64Z" fill="black"/>
<path d="M9.108 7.454V8.786H5.688V20H4.05V8.786H0.612V7.454H9.108ZM16.0203 9.956C16.7643 9.956 17.4363 10.118 18.0363 10.442C18.6363 10.754 19.1043 11.228 19.4403 11.864C19.7883 12.5 19.9623 13.274 19.9623 14.186V20H18.3423V14.42C18.3423 13.436 18.0963 12.686 17.6043 12.17C17.1123 11.642 16.4403 11.378 15.5883 11.378C14.7243 11.378 14.0343 11.648 13.5183 12.188C13.0143 12.728 12.7623 13.514 12.7623 14.546V20H11.1243V6.68H12.7623V11.54C13.0863 11.036 13.5303 10.646 14.0943 10.37C14.6703 10.094 15.3123 9.956 16.0203 9.956ZM31.638 14.69C31.638 15.002 31.62 15.332 31.584 15.68H23.7C23.76 16.652 24.09 17.414 24.69 17.966C25.302 18.506 26.04 18.776 26.904 18.776C27.612 18.776 28.2 18.614 28.668 18.29C29.148 17.954 29.484 17.51 29.676 16.958H31.44C31.176 17.906 30.648 18.68 29.856 19.28C29.064 19.868 28.08 20.162 26.904 20.162C25.968 20.162 25.128 19.952 24.384 19.532C23.652 19.112 23.076 18.518 22.656 17.75C22.236 16.97 22.026 16.07 22.026 15.05C22.026 14.03 22.23 13.136 22.638 12.368C23.046 11.6 23.616 11.012 24.348 10.604C25.092 10.184 25.944 9.974 26.904 9.974C27.84 9.974 28.668 10.178 29.388 10.586C30.108 10.994 30.66 11.558 31.044 12.278C31.44 12.986 31.638 13.79 31.638 14.69ZM29.946 14.348C29.946 13.724 29.808 13.19 29.532 12.746C29.256 12.29 28.878 11.948 28.398 11.72C27.93 11.48 27.408 11.36 26.832 11.36C26.004 11.36 25.296 11.624 24.708 12.152C24.132 12.68 23.802 13.412 23.718 14.348H29.946ZM45.6621 9.956C46.4301 9.956 47.1141 10.118 47.7141 10.442C48.3141 10.754 48.7881 11.228 49.1361 11.864C49.4841 12.5 49.6581 13.274 49.6581 14.186V20H48.0381V14.42C48.0381 13.436 47.7921 12.686 47.3001 12.17C46.8201 11.642 46.1661 11.378 45.3381 11.378C44.4861 11.378 43.8081 11.654 43.3041 12.206C42.8001 12.746 42.5481 13.532 42.5481 14.564V20H40.9281V14.42C40.9281 13.436 40.6821 12.686 40.1901 12.17C39.7101 11.642 39.0561 11.378 38.2281 11.378C37.3761 11.378 36.6981 11.654 36.1941 12.206C35.6901 12.746 35.4381 13.532 35.4381 14.564V20H33.8001V10.136H35.4381V11.558C35.7621 11.042 36.1941 10.646 36.7341 10.37C37.2861 10.094 37.8921 9.956 38.5521 9.956C39.3801 9.956 40.1121 10.142 40.7481 10.514C41.3841 10.886 41.8581 11.432 42.1701 12.152C42.4461 11.456 42.9021 10.916 43.5381 10.532C44.1741 10.148 44.8821 9.956 45.6621 9.956ZM61.345 14.69C61.345 15.002 61.327 15.332 61.291 15.68H53.407C53.467 16.652 53.797 17.414 54.397 17.966C55.009 18.506 55.747 18.776 56.611 18.776C57.319 18.776 57.907 18.614 58.375 18.29C58.855 17.954 59.191 17.51 59.383 16.958H61.147C60.883 17.906 60.355 18.68 59.563 19.28C58.771 19.868 57.787 20.162 56.611 20.162C55.675 20.162 54.835 19.952 54.091 19.532C53.359 19.112 52.783 18.518 52.363 17.75C51.943 16.97 51.733 16.07 51.733 15.05C51.733 14.03 51.937 13.136 52.345 12.368C52.753 11.6 53.323 11.012 54.055 10.604C54.799 10.184 55.651 9.974 56.611 9.974C57.547 9.974 58.375 10.178 59.095 10.586C59.815 10.994 60.367 11.558 60.751 12.278C61.147 12.986 61.345 13.79 61.345 14.69ZM59.653 14.348C59.653 13.724 59.515 13.19 59.239 12.746C58.963 12.29 58.585 11.948 58.105 11.72C57.637 11.48 57.115 11.36 56.539 11.36C55.711 11.36 55.003 11.624 54.415 12.152C53.839 12.68 53.509 13.412 53.425 14.348H59.653Z" fill="#8F8F8F"/>
</svg>
