<svg width="121" height="121" viewBox="0 0 121 121" fill="none" xmlns="http://www.w3.org/2000/svg">
<g clip-path="url(#clip0)">
<path d="M32.7558 36.7217L25.7443 32.6639C24.1179 31.7227 22.2228 31.4724 20.4078 31.9587C18.5928 32.445 17.0768 33.6096 16.1391 35.2377L13.2083 40.3266C11.279 43.6758 12.4312 47.9758 15.7767 49.9119L22.8029 53.9781C23.49 54.3758 24.2733 54.4568 24.9842 54.2663C25.6928 54.0765 26.3295 53.6164 26.7261 52.9313C27.5204 51.5588 33.0096 42.0152 33.8028 40.6446C34.5969 39.2724 34.1282 37.5161 32.7558 36.7217Z" fill="#105C6E"/>
<path d="M47.4791 13.2369C45.9475 13.6473 45.0385 15.2217 45.4489 16.7532L47.8268 25.6277C48.2372 27.1593 49.8116 28.0682 51.3432 27.6579C52.8747 27.2475 53.7837 25.6731 53.3733 24.1415L50.9954 15.2671C50.585 13.7355 49.0107 12.8265 47.4791 13.2369Z" fill="#26879C"/>
<path d="M54.171 10.8493L40.4896 14.5152C38.958 14.9256 38.049 16.5 38.4594 18.0316C38.8698 19.5631 40.4442 20.4721 41.9758 20.0617L55.6572 16.3958C57.1888 15.9854 58.0977 14.411 57.6874 12.8794C57.277 11.3479 55.7026 10.4389 54.171 10.8493Z" fill="#DE513C"/>
<path d="M47.3303 12.6822L40.4896 14.5152C38.958 14.9256 38.049 16.5 38.4594 18.0316C38.8698 19.5631 40.4442 20.4721 41.9758 20.0617L48.8165 18.2288L47.3303 12.6822Z" fill="#FC6249"/>
<path d="M83.2771 26.555C73.0888 20.6587 61.2218 19.0876 49.8623 22.1313C38.5028 25.1751 29.0113 32.4692 23.1361 42.6697C17.262 52.8683 15.7062 64.752 18.7553 76.1312C21.8044 87.5105 29.0935 97.0242 39.2799 102.919C49.4682 108.816 61.3352 110.387 72.6947 107.343C84.0542 104.299 93.5457 97.0051 99.4209 86.8047C105.295 76.6061 106.851 64.7224 103.802 53.3431C100.753 41.9639 93.4635 32.4502 83.2771 26.555Z" fill="#DE513C"/>
<path d="M49.8623 22.1313C38.5028 25.1751 29.0113 32.4692 23.1361 42.6697C17.262 52.8683 15.7062 64.752 18.7553 76.1312C21.8044 87.5105 29.0935 97.0242 39.2799 102.919C49.4682 108.816 61.3352 110.387 72.6947 107.343L49.8623 22.1313Z" fill="#FC6249"/>
<path d="M52.7073 32.749C35.103 37.4661 24.6257 55.6533 29.3519 73.2915C34.078 90.9296 52.2452 101.442 69.8495 96.7247C87.4538 92.0076 97.9311 73.8202 93.2049 56.1821C88.4788 38.5439 70.3116 28.032 52.7073 32.749Z" fill="#96D1D9"/>
<path d="M52.7073 32.749C35.103 37.4661 24.6257 55.6533 29.3519 73.2915C34.078 90.9296 52.2452 101.442 69.8495 96.7247L52.7073 32.749Z" fill="#F4F2E6"/>
<path d="M54.5635 39.6763C56.0951 39.266 57.0041 37.6916 56.5937 36.16L55.5133 32.128C54.5778 32.2939 53.6418 32.4987 52.7073 32.7491C51.7729 32.9995 50.8598 33.2901 49.9668 33.6142L51.0471 37.6462C51.4575 39.1777 53.0319 40.0867 54.5635 39.6763Z" fill="#105C6E"/>
<path d="M67.9932 89.7974C66.4617 90.2078 65.5527 91.7822 65.9631 93.3138L67.0434 97.3457C67.9789 97.1799 68.915 96.975 69.8494 96.7247C70.7838 96.4743 71.6969 96.1837 72.59 95.8596L71.5096 91.8276C71.0992 90.296 69.5248 89.387 67.9932 89.7974Z" fill="#105C6E"/>
<path d="M92.3405 53.4413L88.369 54.5054C86.8374 54.9158 85.9284 56.4902 86.3388 58.0218C86.7492 59.5534 88.3236 60.4624 89.8552 60.052L93.8267 58.9878C93.6604 58.0525 93.4552 57.1165 93.2048 56.182C92.9545 55.2476 92.6642 54.3344 92.3405 53.4413Z" fill="#105C6E"/>
<path d="M36.2178 71.4516C35.8074 69.92 34.233 69.011 32.7014 69.4214L28.7299 70.4856C28.8961 71.4209 29.1014 72.3569 29.3517 73.2913C29.6021 74.2257 29.8924 75.1389 30.2161 76.0321L34.1876 74.9679C35.7192 74.5575 36.6282 72.9832 36.2178 71.4516Z" fill="#105C6E"/>
<path d="M67.6902 61.3032L63.7777 62.3516L60.7723 51.1352C60.3619 49.6036 58.7875 48.6947 57.2559 49.105C55.7244 49.5154 54.8154 51.0898 55.2258 52.6214L58.9743 66.6111C59.3847 68.1426 60.9591 69.0516 62.4906 68.6412L69.1764 66.8498C70.708 66.4394 71.617 64.865 71.2066 63.3334C70.7962 61.8018 69.2218 60.8929 67.6902 61.3032Z" fill="#105C6E"/>
</g>
<defs>
<clipPath id="clip0">
<rect width="98" height="98" fill="white" transform="translate(0 25.3643) rotate(-15)"/>
</clipPath>
</defs>
</svg>
