<svg width="20" height="16" viewBox="0 0 20 16" fill="none" xmlns="http://www.w3.org/2000/svg">
<path fill-rule="evenodd" clip-rule="evenodd" d="M17.9442 3.98749C17.9569 4.16248 17.9569 4.33751 17.9569 4.5125C17.9569 9.85 13.8326 16 6.29444 16C3.97209 16 1.81473 15.3375 0 14.1875C0.32996 14.225 0.64719 14.2375 0.98985 14.2375C2.90607 14.2375 4.67006 13.6 6.0787 12.5125C4.27666 12.475 2.76649 11.3125 2.24618 9.7125C2.5 9.75 2.7538 9.775 3.02032 9.775C3.38833 9.775 3.75638 9.725 4.099 9.6375C2.22083 9.2625 0.81215 7.6375 0.81215 5.67499V5.62501C1.35782 5.92501 1.99239 6.1125 2.66493 6.1375C1.56087 5.41247 0.83754 4.17498 0.83754 2.77497C0.83754 2.02499 1.04055 1.33749 1.3959 0.73748C3.41369 3.18748 6.4467 4.78745 9.8477 4.96248C9.7843 4.66248 9.7462 4.35001 9.7462 4.03751C9.7462 1.81248 11.5736 0 13.8452 0C15.0254 0 16.0914 0.4875 16.8401 1.275C17.7665 1.10001 18.6548 0.76249 19.4416 0.3C19.137 1.23752 18.4898 2.02502 17.6396 2.52499C18.4645 2.43753 19.264 2.21248 20 1.90001C19.4417 2.69998 18.7437 3.41245 17.9442 3.98749Z" fill="white"/>
</svg>
